<svg width="40.000000" height="40.000000" viewBox="0 0 40 40" fill="none" xmlns="http://www.w3.org/2000/svg" xmlns:xlink="http://www.w3.org/1999/xlink">
	<desc>
			Created with Pixso.
	</desc>
	<defs>
		<clipPath id="clip16_17">
			<rect id="arrow-down" width="40.000000" height="40.000000" transform="translate(40.000000 40.000000) rotate(180.000000)" fill="white" fill-opacity="0"/>
		</clipPath>
	</defs>
	<g clip-path="url(#clip16_17)">
		<path id="path" d="M35.91 26.7675C35.7939 26.8835 35.6677 26.9871 35.5312 27.0783C35.3947 27.1695 35.2507 27.2464 35.099 27.3092C34.9474 27.372 34.7911 27.4194 34.6301 27.4514C34.4692 27.4835 34.3066 27.4995 34.1425 27.4995C33.9784 27.4995 33.8158 27.4835 33.6549 27.4514C33.4939 27.4194 33.3376 27.372 33.186 27.3092C33.0343 27.2464 32.8903 27.1695 32.7538 27.0783C32.6173 26.9871 32.4911 26.8835 32.375 26.7675L20 14.3925L7.62499 26.7675C7.50824 26.8803 7.38169 26.9807 7.24538 27.0688C7.10905 27.157 6.9655 27.2311 6.81474 27.2913C6.66397 27.3514 6.50882 27.3965 6.34928 27.4264C6.18974 27.4564 6.02881 27.4706 5.86649 27.4692C5.70416 27.4678 5.5435 27.4507 5.38451 27.418C5.22551 27.3853 5.07117 27.3376 4.92147 27.2748C4.77177 27.2121 4.62953 27.1354 4.49476 27.045C4.35999 26.9545 4.23521 26.8518 4.12043 26.7371C4.00565 26.6223 3.90302 26.4975 3.81255 26.3627C3.72206 26.228 3.64545 26.0857 3.58267 25.936C3.51991 25.7863 3.47217 25.632 3.43946 25.473C3.40675 25.314 3.38969 25.1533 3.38829 24.991C3.38688 24.8287 3.40114 24.6678 3.43108 24.5082C3.46101 24.3487 3.50607 24.1935 3.56623 24.0428C3.62639 23.892 3.70053 23.7484 3.78865 23.6121C3.87677 23.4758 3.97722 23.3493 4.09 23.2325L18.2325 9.09C18.3486 8.97396 18.4748 8.87037 18.6113 8.7792C18.7478 8.68803 18.8918 8.61105 19.0435 8.54826C19.1951 8.48547 19.3514 8.43806 19.5124 8.40605C19.6733 8.37404 19.8359 8.35803 20 8.35803C20.1641 8.35803 20.3267 8.37404 20.4876 8.40605C20.6486 8.43806 20.8049 8.48547 20.9565 8.54826C21.1082 8.61105 21.2522 8.68803 21.3887 8.7792C21.5252 8.87037 21.6514 8.97396 21.7675 9.09L35.91 23.2325C36.026 23.3486 36.1296 23.4748 36.2208 23.6113C36.312 23.7478 36.3889 23.8918 36.4517 24.0435C36.5145 24.1951 36.5619 24.3514 36.5939 24.5124C36.626 24.6733 36.642 24.8359 36.642 25C36.642 25.1641 36.626 25.3267 36.5939 25.4876C36.5619 25.6486 36.5145 25.8049 36.4517 25.9565C36.3889 26.1082 36.312 26.2522 36.2208 26.3887C36.1296 26.5252 36.026 26.6514 35.91 26.7675Z" fill="#FFFFFF" fill-opacity="1.000000" fill-rule="nonzero"/>
	</g>
</svg>
