<svg width="30.000000" height="30.000008" viewBox="0 0 30 30" fill="none" xmlns="http://www.w3.org/2000/svg" xmlns:xlink="http://www.w3.org/1999/xlink">
	<desc>
			Created with Pixso.
	</desc>
	<defs>
		<clipPath id="clip15_11">
			<rect id="briefcase_fclos1wictlt" width="30.000000" height="30.000000" fill="white" fill-opacity="0"/>
		</clipPath>
	</defs>
	<g clip-path="url(#clip15_11)">
		<path id="path" d="M11.6204 1.64693L18.4041 1.64693L18.4041 4.02856L19.9286 4.02856L19.9286 0.88163C19.9286 0.453056 19.598 0.122444 19.1694 0.122444L10.8551 0.122444C10.4265 0.122444 10.0959 0.453056 10.0959 0.88163L10.0959 4.02245L11.6204 4.02245L11.6204 1.64693Z" fill="#FFFFFF" fill-opacity="1.000000" fill-rule="nonzero"/>
		<path id="path" d="M26.8041 5.54694L3.19592 5.54694C1.43265 5.54694 0 6.97959 0 8.73673L0 11.2837L30 11.2837L30 8.73673C30 6.97959 28.5674 5.54694 26.8041 5.54694Z" fill="#FFFFFF" fill-opacity="1.000000" fill-rule="nonzero"/>
		<path id="path" d="M23.9265 12.8082L23.9265 16.3776C23.9265 16.8061 23.5959 17.1367 23.1673 17.1367C22.7388 17.1367 22.4082 16.8061 22.4082 16.3776L22.4082 12.8082L7.59796 12.8082L7.59796 16.3776C7.59796 16.8061 7.26735 17.1367 6.83878 17.1367C6.4102 17.1367 6.07959 16.8061 6.07959 16.3776L6.07959 12.8082L0 12.8082L0 26.6878C0 28.451 1.42653 29.8776 3.18979 29.8776L26.8041 29.8776C28.5674 29.8776 29.9939 28.451 29.9939 26.6878L29.9939 12.8082L23.9265 12.8082Z" fill="#FFFFFF" fill-opacity="1.000000" fill-rule="nonzero"/>
	</g>
</svg>
