<!-- icon666.com - MILLIONS vector ICONS FREE --><svg enable-background="new 0 0 32 32" viewBox="0 0 32 32" xmlns="http://www.w3.org/2000/svg"><g id="_x32_4-down"><g fill="rgb(0,0,0)"><path d="m14.78 22.49c.33.33.76.51 1.22.51s.89-.18 1.22-.51l8.28-8.4c.49-.5.63-1.24.36-1.88s-.89-1.06-1.58-1.06h-2.28v-8.43c0-.95-.76-1.72-1.71-1.72h-8.58c-.95 0-1.71.77-1.71 1.72v8.42h-2.28c-.69 0-1.31.42-1.58 1.06-.27.65-.13 1.39.36 1.88zm-4.5-9.34c.95 0 1.71-.77 1.71-1.72v-8.43h8.01v8.42c0 .95.77 1.72 1.71 1.72h1.9l-7.61 7.73-7.62-7.73h1.9z"></path><path d="m26 25h-20c-.55 0-1 .45-1 1v4c0 .55.45 1 1 1h20c.55 0 1-.45 1-1v-4c0-.55-.45-1-1-1zm-1 4h-18v-2h18z"></path></g></g></svg>