<svg width="30.000000" height="29.999992" viewBox="0 0 30 30" fill="none" xmlns="http://www.w3.org/2000/svg" xmlns:xlink="http://www.w3.org/1999/xlink">
	<desc>
			Created with Pixso.
	</desc>
	<defs>
		<clipPath id="clip21_2">
			<rect id="quaver_note_yd8fbgui59lr" width="30.000000" height="30.000000" fill="white" fill-opacity="0"/>
		</clipPath>
	</defs>
	<g clip-path="url(#clip21_2)">
		<path id="path" d="M27.4289 18.4297C27.4348 18.3929 27.4515 18.3626 27.4515 18.3234L27.4515 15.1714L27.4515 3.87427L27.4515 1.54955C27.4515 0.693176 26.7583 -7.62939e-06 25.8995 -7.62939e-06L10.6403 -7.62939e-06C9.78744 -7.62939e-06 9.09068 0.693176 9.09068 1.54961L9.09068 20.5448C7.52507 20.232 5.6769 20.803 4.28461 22.1965C2.25369 24.2298 1.96172 27.2353 3.63589 28.9119C5.3119 30.5879 8.31791 30.2941 10.3507 28.2632C11.4783 27.1379 12.0492 25.71 12.0718 24.3764C12.1003 24.2868 12.127 24.1948 12.127 24.0945L12.127 22.0463L12.127 8.38719L24.4152 8.38719L24.4152 14.4432C22.8579 14.1446 21.0287 14.7162 19.6459 16.0972C17.615 18.1287 17.3212 21.1383 18.9954 22.812C20.6739 24.4862 23.6793 24.1948 25.7125 22.1632C26.7969 21.0808 27.3702 19.7187 27.4289 18.4297ZM22.9795 5.55444L13 5.55444C12.5917 5.55444 12.2492 5.28794 12.127 4.91937L12.127 4.34016C12.2492 3.97401 12.5917 3.70751 13 3.70751L22.9795 3.70751C23.4893 3.70751 23.903 4.1212 23.903 4.62922C23.903 5.14082 23.4894 5.55444 22.9795 5.55444Z" fill="#FFFFFF" fill-opacity="1.000000" fill-rule="nonzero"/>
	</g>
</svg>
