<svg width="287.320007" height="287.320007" viewBox="0 0 287.32 287.32" fill="none" xmlns="http://www.w3.org/2000/svg" xmlns:xlink="http://www.w3.org/1999/xlink">
	<desc>
			Created with Pixso.
	</desc>
	<defs>
		<clipPath id="clip15_9">
			<rect id="phone_igzlhwt7yiv9" width="287.320007" height="287.320007" fill="white" fill-opacity="0"/>
		</clipPath>
	</defs>
	<g clip-path="url(#clip15_9)">
		<path id="path" d="M267.749 191.076C253.154 179.347 239.766 173.645 226.819 173.645C208.09 173.645 194.605 185.559 182.396 197.764C180.992 199.169 179.292 199.824 177.047 199.824C166.759 199.825 148.66 186.941 123.253 161.531C93.363 131.639 82.062 112.627 89.661 105.025C110.261 84.432 116.692 63.788 85.152 24.563C73.861 10.51 62.814 3.67999 51.38 3.67999C35.96 3.67999 24.238 16.006 13.896 26.882C12.108 28.762 10.419 30.538 8.76299 32.194C-2.92601 43.882 -2.92001 69.376 8.77998 100.394C21.617 134.427 46.963 171.449 80.15 204.641C105.815 230.304 133.74 251.044 160.908 264.969C184.627 277.127 207.634 283.641 225.691 283.641C236.991 283.641 246.177 281.176 252.239 276.163C264.553 265.982 287.473 247.124 287.32 224.724C287.236 212.71 280.653 201.451 267.749 191.076Z" fill="#FFFFFF" fill-opacity="1.000000" fill-rule="nonzero"/>
	</g>
</svg>
