<!-- icon666.com - MILLIONS vector ICONS FREE --><svg version="1.1" id="Layer_1" xmlns="http://www.w3.org/2000/svg" xmlns:xlink="http://www.w3.org/1999/xlink" x="0px" y="0px" viewBox="0 0 512 512" style="enable-background:new 0 0 512 512;" xml:space="preserve"><g><g><path d="M336,287c-26.561,0-49,15.112-49,33s22.439,33,49,33c26.561,0,49-15.112,49-33S362.561,287,336,287z"></path></g></g><g><g><polygon points="223,154.812 223,187.188 385,133.188 385,100.812 "></polygon></g></g><g><g><path d="M433,0H79C35.439,0,0,35.439,0,79v354c0,43.561,35.439,79,79,79h354c43.561,0,79-35.439,79-79V79 C512,35.439,476.561,0,433,0z M415,143.687c0,0.017,0,0.034,0,0.05V320c0,17.402-9.02,34.147-24.745,45.941 C375.588,376.942,356.319,383,336,383c-20.319,0-39.588-6.058-54.255-17.059C266.02,354.147,257,337.402,257,320 c0-17.402,9.02-34.147,24.745-45.941C296.412,263.058,315.681,257,336,257c17.978,0,35.127,4.75,49,13.462v-105.65l-162,54V384 c0,17.402-9.02,34.147-24.745,45.941C183.588,440.942,164.319,447,144,447c-20.319,0-39.588-6.058-54.255-17.059 C74.02,418.147,65,401.402,65,384c0-17.402,9.02-34.147,24.745-45.941C104.412,327.058,123.681,321,144,321 c17.978,0,35.127,4.75,49,13.462V208.313c0-0.017,0-0.034,0-0.05V144c0-6.457,4.132-12.188,10.257-14.23l192-64 c0.031-0.01,0.063-0.016,0.094-0.026c0.319-0.104,0.646-0.188,0.974-0.271c0.171-0.043,0.341-0.094,0.512-0.131 c0.247-0.053,0.5-0.089,0.751-0.129c0.26-0.043,0.521-0.09,0.781-0.119c0.166-0.018,0.335-0.023,0.503-0.035 c0.345-0.026,0.69-0.05,1.034-0.052c0.032,0,0.062-0.005,0.094-0.005c0.118,0,0.231,0.015,0.348,0.018 c0.351,0.008,0.7,0.021,1.047,0.053c0.193,0.018,0.382,0.048,0.572,0.073c0.287,0.038,0.573,0.076,0.856,0.131 c0.242,0.046,0.479,0.105,0.716,0.163c0.225,0.055,0.45,0.108,0.672,0.173c0.269,0.079,0.53,0.17,0.792,0.263 c0.188,0.067,0.377,0.132,0.563,0.206c0.267,0.107,0.527,0.226,0.786,0.348c0.179,0.083,0.358,0.166,0.534,0.257 c0.243,0.126,0.478,0.262,0.713,0.4c0.188,0.11,0.374,0.22,0.557,0.338c0.206,0.134,0.404,0.275,0.603,0.419 c0.201,0.145,0.401,0.29,0.594,0.444c0.168,0.134,0.329,0.275,0.491,0.416c0.208,0.181,0.414,0.363,0.612,0.556 c0.139,0.136,0.271,0.277,0.405,0.417c0.2,0.21,0.397,0.422,0.585,0.644c0.127,0.15,0.246,0.306,0.367,0.461 c0.173,0.222,0.345,0.444,0.506,0.677c0.13,0.187,0.249,0.38,0.37,0.573c0.132,0.21,0.265,0.419,0.387,0.637 c0.139,0.247,0.263,0.502,0.388,0.758c0.087,0.178,0.177,0.352,0.257,0.534c0.138,0.313,0.257,0.634,0.374,0.958 c0.042,0.115,0.094,0.223,0.133,0.34c0.01,0.031,0.016,0.063,0.026,0.094c0.104,0.32,0.189,0.648,0.272,0.978 c0.043,0.169,0.094,0.338,0.131,0.508c0.054,0.25,0.09,0.506,0.131,0.76c0.042,0.257,0.089,0.514,0.118,0.771 c0.018,0.17,0.023,0.343,0.036,0.515c0.026,0.341,0.049,0.682,0.052,1.021C414.995,79.936,415,79.968,415,80V143.687z"></path></g></g><g><g><path d="M144,351c-26.561,0-49,15.112-49,33s22.439,33,49,33c26.561,0,49-15.112,49-33S170.561,351,144,351z"></path></g></g></svg>