<!-- icon666.com - MILLIONS vector ICONS FREE --><svg id="Layer_1" enable-background="new 0 0 500 500" viewBox="0 0 500 500" xmlns="http://www.w3.org/2000/svg"><g id="Layer_x0020_1_99_"><g id="_484970960"><g><g><g><path id="_168065896" clip-rule="evenodd" d="m250.2 341.5c-50.2 0-91.1-40.9-91.1-91.1s40.9-91.1 91.1-91.1 91.1 40.9 91.1 91.1c-.3 50.2-41.2 91.1-91.1 91.1zm0-171.7c-44.3 0-80.2 35.9-80.2 80.2s36.2 80.2 80.2 80.2c44.3 0 80.2-36.2 80.2-80.2-.4-44-36.2-80.2-80.2-80.2z" fill="rgb(0,0,0)" fill-rule="evenodd"></path></g><g><g><g><path id="_168066328" clip-rule="evenodd" d="m261.7 290.3c-2.2 0-4.4-1.6-5.3-3.7l-28.4-83.4c-.9-2.8.6-5.9 3.4-6.9 2.8-.9 5.9.6 6.9 3.4l28.4 83.3c.9 2.8-.6 5.9-3.4 6.9-.3.1-1 .4-1.6.4z" fill="rgb(0,0,0)" fill-rule="evenodd"></path></g><g><path id="_168065248" clip-rule="evenodd" d="m204.9 290.3c-.6 0-1.2 0-1.9-.3-2.8-.9-4.4-4.1-3.4-6.9l28.4-83.3c.9-2.8 4.1-4.4 6.9-3.4 2.8.9 4.4 4.1 3.4 6.9l-28.4 83.3c-.6 2.1-2.8 3.7-5 3.7z" fill="rgb(0,0,0)" fill-rule="evenodd"></path></g><g><path id="_168067768" clip-rule="evenodd" d="m250.2 255.7h-33.4c-3.1 0-5.6-2.5-5.6-5.6s2.5-5.6 5.6-5.6h33.4c3.1 0 5.6 2.5 5.6 5.6s-2.8 5.6-5.6 5.6z" fill="rgb(0,0,0)" fill-rule="evenodd"></path></g></g><g><g><path id="_168068008" clip-rule="evenodd" d="m288.9 290.3c-3.1 0-5.6-2.5-5.6-5.6v-83.3c0-3.1 2.5-5.6 5.6-5.6s5.6 2.5 5.6 5.6v83.3c0 3.1-2.5 5.6-5.6 5.6z" fill="rgb(0,0,0)" fill-rule="evenodd"></path></g><g><path id="_168069496" clip-rule="evenodd" d="m300.4 207h-22.8c-3.1 0-5.6-2.5-5.6-5.6s2.5-5.6 5.6-5.6h22.8c3.1 0 5.6 2.5 5.6 5.6s-2.8 5.6-5.6 5.6z" fill="rgb(0,0,0)" fill-rule="evenodd"></path></g><g><path id="_168065224" clip-rule="evenodd" d="m300.4 290.3h-22.8c-3.1 0-5.6-2.5-5.6-5.6s2.5-5.6 5.6-5.6h22.8c3.1 0 5.6 2.5 5.6 5.6-.3 3.1-2.8 5.6-5.6 5.6z" fill="rgb(0,0,0)" fill-rule="evenodd"></path></g></g></g></g><g><path id="_168070240" clip-rule="evenodd" d="m381.8 387.3h-263.6c-3.1 0-5.6-2.5-5.6-5.6v-263.4c0-3.1 2.5-5.6 5.6-5.6h263.7c3.1 0 5.6 2.5 5.6 5.6v263.7c0 2.9-2.5 5.3-5.7 5.3zm-258.3-10.9h252.8v-252.7h-252.8z" fill="rgb(0,0,0)" fill-rule="evenodd"></path></g><g><path id="_168070744" clip-rule="evenodd" d="m250.2 442c-1.6 0-2.8-.6-3.7-1.6l-186.7-186.3c-2.2-2.2-2.2-5.6 0-7.8l186.3-186.6c2.2-2.2 5.6-2.2 7.8 0l186.3 186.3c2.2 2.2 2.2 5.6 0 7.8l-186.3 186.3c-.9 1.2-2.5 1.9-3.7 1.9zm-178.9-192 178.8 178.8 178.9-178.8-178.8-178.5s-178.9 178.5-178.9 178.5z" fill="rgb(0,0,0)" fill-rule="evenodd"></path></g></g></g></g></svg>