<!-- icon666.com - MILLIONS vector ICONS FREE --><svg version="1.1" id="Capa_1" xmlns="http://www.w3.org/2000/svg" xmlns:xlink="http://www.w3.org/1999/xlink" x="0px" y="0px" viewBox="0 0 512.001 512.001" style="enable-background:new 0 0 512.001 512.001;" xml:space="preserve"><g><g><path d="M424.58,271c6.192,17.459,22.865,30,42.42,30c24.813,0,45-20.187,45-45s-20.187-45-45-45 c-19.555,0-36.228,12.541-42.42,30H271v-90h76c5.682,0,10.875-3.21,13.417-8.292L386.271,91h38.31 c6.192,17.459,22.865,30,42.42,30c24.813,0,45-20.187,45-45s-20.187-45-45-45c-19.555,0-36.228,12.541-42.42,30H377 c-5.682,0-10.875,3.21-13.417,8.292L337.729,121H271V76c0-41.462-33.535-76-75-76c-36.912,0-66.769,27.174-73.524,61.012 C121.984,61.005,121.492,61,121,61c-49.626,0-90,40.374-90,90c0,13.697,3.138,26.961,9.186,39.15C16.07,203.087,0,228.329,0,256 s16.07,52.913,40.186,65.85C34.138,334.039,31,347.303,31,361c0,49.756,40.707,90.795,91.476,89.988 C129.23,484.823,159.084,512,196,512c41.463,0,75-34.535,75-76v-45h39.787l55.607,55.607C369.207,449.42,373.022,451,377,451 h47.58c6.192,17.459,22.865,30,42.42,30c24.813,0,45-20.187,45-45s-20.187-45-45-45c-19.555,0-36.228,12.541-42.42,30h-41.367 l-55.607-55.607C324.793,362.58,320.978,361,317,361h-46v-90H424.58z M467,241c8.271,0,15,6.729,15,15s-6.729,15-15,15 s-15-6.729-15-15S458.729,241,467,241z M467,61c8.271,0,15,6.729,15,15s-6.729,15-15,15s-15-6.729-15-15S458.729,61,467,61z M241.1,241h-31.609c-6.968-34.192-37.271-60-73.491-60c-8.284,0-15,6.716-15,15s6.716,15,15,15c24.813,0,45,20.187,45,45 s-20.187,45-45,45c-8.284,0-15,6.716-15,15s6.716,15,15,15c36.219,0,66.522-25.808,73.491-60H241.1v165 c0,24.935-20.707,46-45.1,46c-21.211,0-39.555-15.929-43.98-36.479c12.114-4.438,23.225-11.487,32.62-20.882 c5.858-5.858,5.858-15.355,0-21.213c-5.857-5.858-15.355-5.858-21.213,0C125.808,441.045,61,414.387,61,361 c0-13.423,4.625-26.299,13.376-37.234c3.227-4.033,4.152-9.442,2.449-14.318c-1.703-4.876-5.794-8.533-10.831-9.68 C45.138,295.019,30,276.612,30,256s15.138-39.019,35.995-43.769c5.036-1.147,9.127-4.804,10.831-9.68 c1.704-4.876,0.778-10.285-2.449-14.318C65.625,177.298,61,164.423,61,151c0-53.489,64.985-79.868,102.427-42.426 c5.857,5.858,15.354,5.858,21.213,0c5.858-5.858,5.858-15.355,0-21.213c-9.395-9.395-20.506-16.443-32.62-20.882 C156.446,45.93,174.79,30,196,30c24.393,0,45.1,21.065,45.1,46V241z M467,421c8.271,0,15,6.729,15,15s-6.729,15-15,15 s-15-6.729-15-15S458.729,421,467,421z"></path></g></g></svg>