<!-- icon666.com - MILLIONS vector ICONS FREE --><svg id="Capa_1" enable-background="new 0 0 512 512" viewBox="0 0 512 512" xmlns="http://www.w3.org/2000/svg"><g><path d="m256 452.688c-1.989 0-3.897-.79-5.303-2.197-21.854-21.854-32.032-41.83-32.032-62.867s10.178-41.014 32.032-62.867c2.929-2.929 7.678-2.929 10.606 0 21.854 21.854 32.032 41.83 32.032 62.867s-10.178 41.013-32.032 62.867c-1.406 1.407-3.314 2.197-5.303 2.197zm0-111.79c-15.206 16.611-22.335 31.59-22.335 46.727 0 15.136 7.129 30.115 22.335 46.726 15.206-16.611 22.335-31.59 22.335-46.726s-7.129-30.115-22.335-46.727zm74.835-125.367c24.35 0 43.357 12.966 54.969 37.496 10.987 23.211 11.841 49.073 11.841 56.446 0 12.463-7.071 21.132-13.23 27.292-6.16 6.16-14.829 13.23-27.292 13.23-7.374 0-33.235-.854-56.446-11.841-24.53-11.612-37.496-30.62-37.496-54.969 0-35.388 26.855-67.654 67.654-67.654zm26.289 119.464c5.501 0 10.491-2.643 16.686-8.837 6.194-6.194 8.837-11.184 8.837-16.686 0-2.446-.708-3.132-.974-3.391-3.546-3.437-17.142-3.138-30.663-2.723-.416 13.521-.714 27.116 2.723 30.663.258.266.941.97 3.374.974zm-46.388-100.478c-19.09 7.914-32.555 26.749-32.555 48.667 0 35.159 35.673 46.461 59.09 50.093-1.946-8.16-1.613-18.847-1.208-31.859.46-14.793.981-31.56-1.628-49.329-.982-6.69-3.373-15.309-9.181-18.375-4.27-2.252-9.844-1.064-14.518.803zm52.711 53.585c6.782 0 12.669.351 17.621 1.552-1.393-9.141-3.993-20.01-8.821-30.21-6.808-14.381-16.34-23.448-28.436-27.087 3.079 5.68 4.661 12.083 5.464 17.553 1.992 13.566 2.282 26.704 2.119 38.43 4.285-.131 8.306-.238 12.053-.238zm-152.676-65.765c3.724 1.814 5.271 6.304 3.457 10.028-1.815 3.724-6.305 5.269-10.028 3.457-5.086-2.479-12.243-4.856-17.453-2.106-5.808 3.066-8.198 11.685-9.181 18.375-2.61 17.769-2.088 34.536-1.628 49.33.407 13.086.741 23.821-1.242 31.998 9.141-1.393 20.011-3.993 30.21-8.821 19.186-9.082 28.914-23.015 28.914-41.412 0-12.081-3.979-23.442-11.505-32.854-2.587-3.235-2.062-7.955 1.173-10.542 3.235-2.586 7.955-2.062 10.542 1.173 9.538 11.927 14.79 26.922 14.79 42.222 0 24.349-12.966 43.357-37.496 54.969-23.211 10.987-49.073 11.841-56.446 11.841-12.463 0-21.132-7.07-27.292-13.23s-13.23-14.829-13.23-27.292c0-7.374.854-33.235 11.841-56.446 11.612-24.53 30.62-37.496 54.969-37.496 10.376 0 20.337 2.29 29.605 6.806zm-81.417 87.135c0 5.501 2.643 10.491 8.837 16.686 6.194 6.194 11.184 8.837 16.686 8.837 2.447 0 3.132-.708 3.391-.974 3.437-3.546 3.139-17.143 2.723-30.663-13.52-.415-27.116-.714-30.662 2.723-.267.259-.975.945-.975 3.391zm38.831-77.107c-25.091 7.579-33.972 37.001-37.113 57.256 7.667-1.828 17.569-1.645 29.534-1.281-.163-11.727.127-24.864 2.12-38.43.801-5.466 2.384-11.868 5.459-17.545zm-94.102 9.819c-13.057 0-27.591-3.339-44.259-10.065-3.841-1.55-5.698-5.92-4.148-9.762 11.565-28.661 25.969-45.841 45.33-54.069 3.812-1.62 8.215.157 9.836 3.969 1.62 3.813-.157 8.216-3.969 9.836-13.93 5.92-24.927 18.34-34.268 38.833 21.236 7.497 37.811 8.2 51.74 2.28 13.93-5.92 24.927-18.341 34.268-38.832-10.184-3.595-19.238-5.602-27.514-6.11-4.134-.254-7.28-3.812-7.026-7.946s3.806-7.289 7.946-7.026c11.805.725 24.685 3.959 39.375 9.887 3.841 1.55 5.698 5.92 4.148 9.762-11.565 28.66-25.969 45.841-45.33 54.069-8.102 3.444-16.734 5.174-26.129 5.174zm363.834 0c-9.397 0-18.025-1.73-26.128-5.174-19.361-8.229-33.765-25.41-45.33-54.069-1.55-3.841.307-8.211 4.148-9.762 28.661-11.565 51.028-13.119 70.388-4.891 3.812 1.62 5.589 6.024 3.969 9.836s-6.023 5.592-9.836 3.969c-13.931-5.921-30.504-5.218-51.74 2.28 9.34 20.492 20.337 32.912 34.268 38.833 13.93 5.919 30.504 5.217 51.739-2.28-4.48-9.827-9.319-17.738-14.697-24.049-2.687-3.153-2.309-7.886.844-10.573 3.152-2.687 7.886-2.309 10.573.844 7.671 9.002 14.282 20.52 20.209 35.209.744 1.845.726 3.91-.053 5.74-.778 1.831-2.251 3.277-4.096 4.021-16.665 6.726-31.202 10.066-44.258 10.066zm-180.581-19.848c-19.236 0-38.635-7.661-53.223-21.018-15.252-13.966-23.652-32.264-23.652-51.521 0-42.032 35.572-72.539 84.583-72.539 19.337 0 35.239 7.632 45.984 22.072 9.493 12.756 14.511 30.208 14.511 50.467 0 41.354-29.321 72.539-68.203 72.539zm-13.234-16.449c4.293.947 8.726 1.45 13.234 1.45 14.964 0 28.555-5.892 38.269-16.591 9.631-10.608 14.935-25.15 14.935-40.948 0-3.292-.132-6.396-.383-9.324-12.117 24.009-36.65 43.425-68.736 44.796.529 6.846 1.409 13.755 2.681 20.617zm-2.981-110.645c-10.522 2.815-19.741 7.593-27.268 14.202-11.861 10.414-18.393 24.745-18.393 40.354 0 20.912 13.459 40.073 32.479 50.137-2.781-19.727-2.87-40.627-.179-60.083 2.519-18.211 7.175-33.652 13.361-44.61zm.518 55.223c-.581 6.37-.875 13.022-.838 19.826 16.839-.678 30.354-7.23 40.461-16.372-1.561-3.742-3.422-7.348-5.488-10.754zm12.413-47.642c14.643 5.675 29.18 21.713 37.953 38.721 6.03-8.866 9.703-18.58 10.97-27.274-10.864-19.945-30.404-22.012-37.931-22.012-2.806 0-5.716 3.063-7.201 4.89-1.315 1.618-2.582 3.519-3.791 5.675zm-5.86 13.828c-1.755 5.4-3.255 11.465-4.436 18.022l22.135-4.734c-5.992-6.561-12.368-11.324-17.699-13.288zm134.555 27.31c-18.284 0-28.968-7.454-34.712-13.708-6.988-7.608-10.836-17.792-10.836-28.676 0-18.968 13.896-33.826 31.637-33.826 10.192 0 16.204 4.144 19.452 7.619 4.039 4.323 6.264 10.211 6.264 16.582 0 11.848-10.042 20.104-19.056 20.104-4.142 0-7.5-3.358-7.5-7.5s3.358-7.5 7.5-7.5h-.002c.688-.015 4.058-1.454 4.058-5.104 0-4.197-1.859-9.201-10.715-9.201-9.329 0-16.637 8.27-16.637 18.826 0 7.013 2.509 13.767 6.883 18.529 5.396 5.875 13.358 8.854 23.665 8.854 16.479 0 33.22-10.242 54.279-33.21.904-.985 1.794-1.967 2.677-2.94 4.538-5.001 9.132-10.064 14.512-14.496l-6.2-6.2c-2.929-2.929-2.929-7.677 0-10.606s7.678-2.93 10.606 0l8.549 8.549c7.327-3.393 16.142-5.508 27.329-5.508h10c4.142 0 7.5 3.358 7.5 7.5s-3.358 7.5-7.5 7.5h-2.5v6.642c0 4.142-3.358 7.5-7.5 7.5s-7.5-3.358-7.5-7.5v-6.235c-16.046 1.851-24.245 9.845-34.083 20.619l7.388 7.388c2.929 2.929 2.929 7.677 0 10.606s-7.678 2.93-10.606 0l-6.993-6.992c-21.8 22.34-40.498 32.384-59.959 32.384zm-253.494 0c-19.461 0-38.159-10.044-59.958-32.384l-6.993 6.992c-.029.029-.058.057-.086.085-.909.88-1.985 1.486-3.125 1.815-.007.002-.013.004-.02.006 0 0-.001 0-.002 0-2.535.727-5.377.09-7.373-1.907-2.929-2.929-2.929-7.678 0-10.606l7.388-7.388c-5.341-5.849-10.199-10.879-16.091-14.551-.416-.199-.816-.438-1.196-.718-4.68-2.704-10.043-4.57-16.796-5.35v6.235c0 4.142-3.358 7.5-7.5 7.5s-7.5-3.358-7.5-7.5v-6.642h-2.501c-4.142 0-7.5-3.358-7.5-7.5s3.358-7.5 7.5-7.5h10c11.187 0 20.001 2.116 27.329 5.508l8.549-8.549c1.464-1.464 3.384-2.197 5.303-2.197 1.919 0 3.839.732 5.303 2.197 1.465 1.464 2.197 3.384 2.197 5.303s-.732 3.839-2.197 5.303l-6.2 6.2c5.38 4.431 9.975 9.495 14.512 14.496.875.964 1.758 1.938 2.654 2.915.018.02.036.039.054.059 21.045 22.944 37.778 33.177 54.249 33.177 10.306 0 18.268-2.979 23.665-8.854 4.375-4.762 6.883-11.516 6.883-18.529 0-10.557-7.308-18.826-16.637-18.826-8.856 0-10.715 5.003-10.715 9.201 0 3.65 3.37 5.089 4.058 5.104 4.142 0 7.499 3.358 7.499 7.5s-3.359 7.5-7.501 7.5c-9.013 0-19.056-8.256-19.056-20.104 0-6.37 2.225-12.259 6.264-16.582 3.248-3.476 9.259-7.619 19.452-7.619 17.741 0 31.637 14.858 31.637 33.826-.001 20.414-14.255 42.384-45.549 42.384z"></path></g></svg>