<svg width="30.000000" height="29.000000" viewBox="0 0 30 29" fill="none" xmlns="http://www.w3.org/2000/svg" xmlns:xlink="http://www.w3.org/1999/xlink">
	<desc>
			Created with Pixso.
	</desc>
	<defs>
		<clipPath id="clip4_3">
			<rect id="email" width="30.000000" height="29.000000" fill="white" fill-opacity="0"/>
		</clipPath>
	</defs>
	<g clip-path="url(#clip4_3)">
		<path id="path" d="M29.5381 14.3708C29.5381 19.2664 27.2119 21.5412 24.2534 21.5412C22.5596 21.5412 21.0674 20.6758 20.208 19.3653C18.8677 20.6758 17.0474 21.5164 14.9995 21.5164C10.9541 21.5164 7.69238 18.3269 7.69238 14.3708C7.69238 10.4148 10.9541 7.22524 14.9995 7.22524C19.0449 7.22524 22.3066 10.4148 22.3066 14.3708L22.3066 16.695C22.3066 17.8818 23.166 18.6978 24.2534 18.6978C25.5684 18.6978 26.6304 17.6346 26.6304 14.3708C26.6304 8.09062 21.4214 2.99722 14.9995 2.99722C8.57715 2.99722 3.34326 8.09062 3.34326 14.3708C3.34326 20.6511 8.55176 25.7445 14.9741 25.7445C18.6909 25.7445 21.2446 23.9395 21.2446 23.9395L23.166 26.0906C23.166 26.0906 19.9048 28.5384 14.9741 28.5384C6.95898 28.5384 0.460938 22.1593 0.460938 14.3461C0.460938 6.5082 6.98438 0.153809 14.9741 0.153809C23.0146 0.153809 29.5381 6.53293 29.5381 14.3708ZM14.9995 18.6978C17.4521 18.6978 19.4243 16.7692 19.4243 14.3708C19.4243 11.9725 17.4521 10.0439 14.9995 10.0439C12.5469 10.0439 10.5747 11.9725 10.5747 14.3708C10.5747 16.7692 12.5723 18.6978 14.9995 18.6978Z" fill="#FFFFFF" fill-opacity="1.000000" fill-rule="nonzero"/>
	</g>
</svg>
