<svg width="27" height="27" viewBox="0 0 27 27" fill="none" xmlns="http://www.w3.org/2000/svg">
<path fill-rule="evenodd" clip-rule="evenodd" d="M13.5 0C17.1661 0 17.6367 0.0247705 19.0734 0.0743117C20.5101 0.148624 21.5009 0.371559 22.3431 0.693578C23.2349 1.04037 23.978 1.51101 24.7459 2.25413C25.489 2.99725 25.9596 3.76514 26.3064 4.65688C26.6284 5.52385 26.8762 6.48991 26.9257 7.92661C27 9.3633 27 9.83395 27 13.5C27 17.1661 26.9752 17.6367 26.9257 19.0734C26.8514 20.5101 26.6284 21.5009 26.3064 22.3431C25.9596 23.2349 25.489 23.978 24.7459 24.7459C24.0028 25.489 23.2349 25.9596 22.3431 26.3064C21.4762 26.6284 20.5101 26.8761 19.0734 26.9257C17.6367 27 17.1661 27 13.5 27C9.83395 27 9.3633 26.9752 7.92661 26.9257C6.48991 26.8514 5.49908 26.6284 4.65688 26.3064C3.76513 25.9596 3.02202 25.489 2.25413 24.7459C1.51101 24.0028 1.04036 23.2349 0.693575 22.3431C0.371557 21.4761 0.12385 20.5101 0.0743089 19.0734C-3.02671e-06 17.6367 0 17.1661 0 13.5C0 9.83395 0.0247676 9.3633 0.0743089 7.92661C0.148621 6.48991 0.371557 5.49908 0.693575 4.65688C1.04036 3.76514 1.51101 3.02202 2.25413 2.25413C2.99725 1.51101 3.76513 1.04037 4.65688 0.693578C5.52385 0.371559 6.48991 0.123853 7.92661 0.0743117C9.3633 0.0247705 9.83395 0 13.5 0ZM18.9495 2.50183C17.5376 2.42752 17.0917 2.42752 13.5 2.42752C9.90826 2.42752 9.46239 2.45229 8.05046 2.50183C6.73761 2.55138 6.01926 2.77431 5.54862 2.97248C4.92936 3.22018 4.45872 3.51743 3.98808 3.98807C3.51743 4.45872 3.22018 4.90459 2.97248 5.54862C2.79908 6.01927 2.57615 6.73761 2.50184 8.05046C2.42752 9.46239 2.42752 9.90826 2.42752 13.5C2.42752 17.0917 2.4523 17.5376 2.50184 18.9495C2.55138 20.2624 2.77431 20.9807 2.97248 21.4514C3.22018 22.0706 3.51743 22.5413 3.98808 23.0119C4.45872 23.4826 4.90459 23.7798 5.54862 24.0275C6.01926 24.2009 6.73761 24.4239 8.05046 24.4982C9.46239 24.5725 9.90826 24.5725 13.5 24.5725C17.0917 24.5725 17.5376 24.5477 18.9495 24.4982C20.2624 24.4486 20.9807 24.2257 21.4514 24.0275C22.0706 23.7798 22.5413 23.4826 23.0119 23.0119C23.4826 22.5413 23.7798 22.0954 24.0275 21.4514C24.2009 20.9807 24.4239 20.2624 24.4982 18.9495C24.5725 17.5376 24.5725 17.0917 24.5725 13.5C24.5725 9.90826 24.5477 9.46239 24.4982 8.05046C24.4486 6.73761 24.2257 6.01927 24.0275 5.54862C23.7798 4.92936 23.4826 4.45872 23.0119 3.98807C22.5413 3.51743 22.0954 3.22018 21.4514 2.97248C20.9807 2.79908 20.2624 2.57615 18.9495 2.50183ZM13.5 18.0083C15.9771 18.0083 18.0083 16.0018 18.0083 13.5C18.0083 11.0229 16.0018 8.99174 13.5 8.99174C10.9982 8.99174 8.99174 10.9982 8.99174 13.5C8.99174 15.9771 11.0229 18.0083 13.5 18.0083ZM13.5 6.56422C17.3395 6.56422 20.4358 9.66055 20.4358 13.5C20.4358 17.3395 17.3395 20.4358 13.5 20.4358C9.66055 20.4358 6.56422 17.3395 6.56422 13.5C6.56422 9.66055 9.66055 6.56422 13.5 6.56422ZM22.3183 6.29174C22.3183 7.18349 21.6 7.90184 20.7083 7.90184C19.8165 7.90184 19.0982 7.18349 19.0982 6.29174C19.0982 5.4 19.8165 4.68165 20.7083 4.68165C21.6 4.68165 22.3183 5.4 22.3183 6.29174Z" fill="#474747"/>
</svg>
