<svg width="28.000000" height="25.000000" viewBox="0 0 28 25" fill="none" xmlns="http://www.w3.org/2000/svg" xmlns:xlink="http://www.w3.org/1999/xlink">
	<desc>
			Created with Pixso.
	</desc>
	<defs>
		<clipPath id="clip4_5">
			<rect id="telegram" width="28.000000" height="25.000000" fill="white" fill-opacity="0"/>
		</clipPath>
	</defs>
	<g clip-path="url(#clip4_5)">
		<path id="path" d="M1.90869 10.7566C9.44043 7.23157 14.4458 4.8988 16.9482 3.78426C24.1191 0.57023 25.6113 0.025919 26.5737 0C26.7905 0 27.2715 0.0518398 27.5845 0.311035C27.8491 0.544313 27.9214 0.855347 27.9453 1.0627C27.9692 1.27006 28.0176 1.76253 27.9932 2.15133C27.6084 6.55766 25.9238 17.2106 25.082 22.1353C24.7207 24.2089 23.999 24.9087 23.3252 24.9865C21.833 25.142 20.6782 23.9238 19.2344 22.887C16.9722 21.28 15.6729 20.2951 13.4834 18.714C10.9326 16.8996 12.5928 15.9146 14.0366 14.2817C14.4219 13.867 21.0151 7.38709 21.1353 6.79094C21.1592 6.71318 21.1592 6.45398 21.0151 6.29846C20.8706 6.14295 20.6299 6.19479 20.4858 6.24662C20.269 6.29846 16.6357 8.89042 9.60889 13.9966C8.57422 14.7483 7.63574 15.137 6.81787 15.1111C5.90332 15.0852 4.12256 14.5409 2.79932 14.1003C1.18701 13.53 -0.112793 13.2449 0.0078125 12.2859C0.0556641 11.7934 0.681641 11.3009 1.90869 10.7566Z" fill="#FFFFFF" fill-opacity="1.000000" fill-rule="evenodd"/>
	</g>
</svg>
