<svg width="16.000000" height="16.000000" viewBox="0 0 16 16" fill="none" xmlns="http://www.w3.org/2000/svg" xmlns:xlink="http://www.w3.org/1999/xlink">
	<desc>
			Created with Pixso.
	</desc>
	<defs>
		<clipPath id="clip101_486">
			<rect id="plus 1" width="16.000000" height="16.000000" fill="white" fill-opacity="0"/>
		</clipPath>
	</defs>
	<rect id="plus 1" width="16.000000" height="16.000000" fill="#FFFFFF" fill-opacity="0"/>
	<g clip-path="url(#clip101_486)">
		<path id="Vector" d="M15.2383 7.23804L8.76172 7.23804L8.76172 0.761963C8.76172 0.341309 8.42139 0 8 0C7.57861 0 7.23828 0.341309 7.23828 0.761963L7.23828 7.23804L0.761719 7.23804C0.340332 7.23804 0 7.57935 0 8C0 8.42065 0.340332 8.76196 0.761719 8.76196L7.23828 8.76196L7.23828 15.238C7.23828 15.6587 7.57861 16 8 16C8.42139 16 8.76172 15.6587 8.76172 15.238L8.76172 8.76196L15.2383 8.76196C15.6597 8.76196 16 8.42065 16 8C16 7.57935 15.6597 7.23804 15.2383 7.23804Z" fill="#FFFFFF" fill-opacity="1.000000" fill-rule="nonzero"/>
	</g>
</svg>
