<svg width="61" height="61" viewBox="0 0 61 61" fill="none" xmlns="http://www.w3.org/2000/svg">
<circle cx="30.3857" cy="30.4438" r="30" fill="white" fill-opacity="0.65"/>
<path d="M28.8857 43.4834C28.8857 44.3118 29.5573 44.9834 30.3857 44.9834C31.2142 44.9834 31.8857 44.3118 31.8857 43.4834L28.8857 43.4834ZM31.4464 16.3436C30.8606 15.7579 29.9109 15.7579 29.3251 16.3436L19.7791 25.8896C19.1934 26.4754 19.1934 27.4251 19.7791 28.0109C20.3649 28.5967 21.3147 28.5967 21.9005 28.0109L30.3857 19.5256L38.871 28.0109C39.4568 28.5967 40.4066 28.5967 40.9923 28.0109C41.5781 27.4251 41.5781 26.4754 40.9923 25.8896L31.4464 16.3436ZM31.8857 43.4834L31.8857 17.4043L28.8857 17.4043L28.8857 43.4834L31.8857 43.4834Z" fill="#150931"/>
</svg>
