<svg width="39" height="38" viewBox="0 0 39 38" fill="none" xmlns="http://www.w3.org/2000/svg">
<path d="M36.0322 21.6904C37.4129 21.6904 38.5322 20.5711 38.5322 19.1904C38.5322 17.8097 37.4129 16.6904 36.0322 16.6904V21.6904ZM0.992126 17.4227C0.0158195 18.399 0.0158195 19.9819 0.992126 20.9582L16.902 36.8681C17.8783 37.8444 19.4613 37.8444 20.4376 36.8681C21.4139 35.8918 21.4139 34.3089 20.4376 33.3326L6.29543 19.1904L20.4376 5.04829C21.4139 4.07198 21.4139 2.48907 20.4376 1.51276C19.4613 0.536449 17.8783 0.536449 16.902 1.51276L0.992126 17.4227ZM36.0322 16.6904L2.7599 16.6904V21.6904L36.0322 21.6904V16.6904Z" fill="white"/>
</svg>
