<svg width="93" height="91" viewBox="0 0 93 91" fill="none" xmlns="http://www.w3.org/2000/svg">
<path d="M12.71 39.5889L1.88781 44.6706C-0.0265163 45.5701 -0.0645377 49.2874 1.80243 52.9751C3.39387 56.1157 5.85353 58.2199 7.73039 58.2199C8.05756 58.2199 8.36681 58.1556 8.65094 58.023L19.463 52.946C17.5839 51.1671 16.0427 48.9531 14.9527 46.7997C13.7466 44.4191 12.9789 41.9224 12.7098 39.5889L12.71 39.5889Z" fill="white"/>
<path d="M35.9931 36.9185C34.3543 33.684 33.3877 30.2817 33.2119 27.2061L19.6884 33.5561C17.1356 34.7554 17.0852 39.7122 19.575 44.6287C21.696 48.8159 24.9764 51.6227 27.4798 51.6227C27.916 51.6227 28.3286 51.5378 28.7067 51.3595L42.2431 45.0025C39.8582 43.0137 37.6805 40.2525 35.9931 36.9185Z" fill="white"/>
<path d="M56.9849 54.6778V40.8343L65.0489 37.0472C62.0023 34.7281 59.1854 31.2842 57.035 27.0376C54.8437 22.7137 53.7739 18.4928 53.7467 14.8086L40.7584 20.9086C37.5677 22.407 37.5038 28.6038 40.6164 34.7495C43.2669 39.984 47.3674 43.4913 50.4972 43.4913C50.9721 43.4913 51.4199 43.3946 51.8418 43.226V54.6801L36.8445 76.3393C36.0567 77.4771 36.3753 79.0142 37.557 79.7727C38.7387 80.5327 40.3367 80.2245 41.123 79.0867L51.8417 63.6045V87.6141C51.8417 88.9819 52.9926 90.09 54.4133 90.09C55.8339 90.09 56.9848 88.9819 56.9848 87.6141V63.6045L67.703 79.0839C68.1988 79.7989 69.0139 80.1865 69.8447 80.1865C70.3355 80.1865 70.8299 80.0518 71.2683 79.7706C72.45 79.0121 72.7693 77.475 71.9808 76.3372L56.9849 54.6778Z" fill="white"/>
<path d="M78.3758 0.957031C77.7214 0.957031 77.1036 1.08484 76.5347 1.3515L61.8259 8.2585C57.9965 10.0567 57.9205 17.4929 61.6558 24.8668C64.8372 31.1465 69.7571 35.357 73.5127 35.357C74.167 35.357 74.7848 35.2292 75.3537 34.9625L90.0618 28.0555C93.8912 26.2573 93.9673 18.8211 90.2319 11.4472C87.0513 5.16684 82.1312 0.957031 78.3758 0.957031ZM87.6761 23.3449C86.2626 22.7494 83.3258 20.4068 80.9868 15.7892C78.6478 11.1724 78.538 7.50201 78.9204 6.06296C80.3339 6.65845 83.2707 9.00101 85.6097 13.6194C87.9487 18.2356 88.0586 21.9058 87.6761 23.3449Z" fill="white"/>
</svg>
