<svg width="97" height="98" viewBox="0 0 97 98" fill="none" xmlns="http://www.w3.org/2000/svg">
<path fill-rule="evenodd" clip-rule="evenodd" d="M24.242 87.8281C25.0953 87.8281 25.7871 88.5199 25.7871 89.3732C25.7871 90.2266 25.0953 90.9183 24.242 90.9183H5.71106C4.85772 90.9183 4.16596 90.2266 4.16596 89.3732C4.16596 88.5199 4.85772 87.8281 5.71106 87.8281H24.242Z" fill="white"/>
<path fill-rule="evenodd" clip-rule="evenodd" d="M21.033 94.0088C21.8864 94.0088 22.5781 94.7006 22.5781 95.5539C22.5781 96.4072 21.8864 97.099 21.033 97.099H8.9224C8.06906 97.099 7.3773 96.4072 7.3773 95.5539C7.3773 94.7006 8.06906 94.0088 8.9224 94.0088H21.033Z" fill="white"/>
<path fill-rule="evenodd" clip-rule="evenodd" d="M91.6424 87.8281C92.4957 87.8281 93.1875 88.5199 93.1875 89.3732C93.1875 90.2266 92.4957 90.9183 91.6424 90.9183H77.9263C77.0729 90.9183 76.3812 90.2266 76.3812 89.3732C76.3812 88.5199 77.0729 87.8281 77.9263 87.8281H91.6424Z" fill="white"/>
<path fill-rule="evenodd" clip-rule="evenodd" d="M55.536 94.0088C56.3893 94.0088 57.0811 94.7006 57.0811 95.5539C57.0811 96.4072 56.3893 97.099 55.536 97.099H37.005C36.1517 97.099 35.4599 96.4072 35.4599 95.5539C35.4599 94.7006 36.1517 94.0088 37.005 94.0088H55.536Z" fill="white"/>
<path fill-rule="evenodd" clip-rule="evenodd" d="M67.5701 94.0088C68.4235 94.0088 69.1152 94.7006 69.1152 95.5539C69.1152 96.4072 68.4235 97.099 67.5701 97.099H65.0873C64.234 97.099 63.5422 96.4072 63.5422 95.5539C63.5422 94.7006 64.234 94.0088 65.0873 94.0088H67.5701Z" fill="white"/>
<path fill-rule="evenodd" clip-rule="evenodd" d="M82.0135 94.0088C82.8668 94.0088 83.5586 94.7006 83.5586 95.5539C83.5586 96.4072 82.8668 97.099 82.0135 97.099H77.1235C76.2702 97.099 75.5784 96.4072 75.5784 95.5539C75.5784 94.7006 76.2702 94.0088 77.1235 94.0088H82.0135Z" fill="white"/>
<path fill-rule="evenodd" clip-rule="evenodd" d="M70.7801 81.6475C71.6334 81.6475 72.3252 82.3392 72.3252 83.1926C72.3252 84.0459 71.6334 84.7377 70.7801 84.7377H27.3763C26.523 84.7377 25.8312 84.0459 25.8312 83.1926C25.8312 82.3392 26.523 81.6475 27.3763 81.6475H70.7801Z" fill="white"/>
<path fill-rule="evenodd" clip-rule="evenodd" d="M94.8514 81.6475C95.7047 81.6475 96.3965 82.3392 96.3965 83.1926C96.3965 84.0459 95.7047 84.7377 94.8514 84.7377H86.7519C85.8986 84.7377 85.2068 84.0459 85.2068 83.1926C85.2068 82.3392 85.8986 81.6475 86.7519 81.6475H94.8514Z" fill="white"/>
<path fill-rule="evenodd" clip-rule="evenodd" d="M38.6844 87.8281C39.5377 87.8281 40.2295 88.5199 40.2295 89.3732C40.2295 90.2266 39.5377 90.9183 38.6844 90.9183H33.7944C32.9411 90.9183 32.2493 90.2266 32.2493 89.3732C32.2493 88.5199 32.9411 87.8281 33.7944 87.8281H38.6844Z" fill="white"/>
<path fill-rule="evenodd" clip-rule="evenodd" d="M68.3738 87.8281C69.2272 87.8281 69.9189 88.5199 69.9189 89.3732C69.9189 90.2266 69.2272 90.9183 68.3738 90.9183H54.6577C53.8044 90.9183 53.1126 90.2266 53.1126 89.3732C53.1126 88.5199 53.8044 87.8281 54.6577 87.8281H68.3738Z" fill="white"/>
<path fill-rule="evenodd" clip-rule="evenodd" d="M17.8231 81.6475C18.6764 81.6475 19.3682 82.3392 19.3682 83.1926C19.3682 84.0459 18.6764 84.7377 17.8231 84.7377H2.50163C1.64829 84.7377 0.956528 84.0459 0.956528 83.1926C0.956528 82.3392 1.64829 81.6475 2.50163 81.6475H17.8231Z" fill="white"/>
<path fill-rule="evenodd" clip-rule="evenodd" d="M27.6373 27.8951C29.3332 27.4868 31.027 28.4798 31.4201 30.1126L31.4898 30.4023C31.8818 32.0306 30.8316 33.6813 29.1429 34.0955L14.4311 37.5895L21.3754 51.6746C22.3333 53.6113 24.388 54.8079 26.6227 54.7308L30.1964 54.6037C32.2474 54.5317 34.1649 55.526 35.2269 57.2051L45.9326 74.1299L42.3811 75.5443C40.5956 76.2553 38.5568 75.5961 37.5257 73.9743L31.949 65.2033C30.8006 63.3641 28.7177 62.2728 26.4787 62.3293L21.6208 62.4478C18.548 62.5256 15.7343 60.8876 14.3948 58.2361L5.60695 40.8425C3.84332 37.3513 5.91805 33.1238 9.85963 32.1749L27.6373 27.8951Z" fill="white"/>
<path d="M14.5928 21.3625C14.5928 23.1035 13.8742 24.7727 12.5953 26.004C11.3173 27.2345 9.5828 27.9264 7.77465 27.9264C5.96643 27.9264 4.23281 27.2353 2.95396 26.004C1.67516 24.7727 0.956529 23.1034 0.956529 21.3625C0.956529 19.6215 1.6751 17.9516 2.95396 16.7203C4.23276 15.4897 5.9665 14.7979 7.77465 14.7979C9.58288 14.7979 11.3172 15.4897 12.5953 16.721C13.8741 17.9516 14.5928 19.6216 14.5928 21.3625Z" fill="white"/>
<path fill-rule="evenodd" clip-rule="evenodd" d="M52.6072 70.5748C62.417 31.895 23.6264 0.499023 23.6264 0.499023C23.6264 0.499023 29.773 2.17679 43.5826 9.39971C57.3922 16.6226 78.1609 35.0758 82.9827 52.2968L83.5586 55.5166L52.6072 70.5748Z" fill="white"/>
<path d="M28.0553 96.5578C27.4868 96.0105 27.4868 95.1005 28.0553 94.5532C28.5941 94.0344 29.4466 94.0344 29.9854 94.5532C30.5538 95.1005 30.5538 96.0105 29.9854 96.5578C29.4466 97.0765 28.5941 97.0765 28.0553 96.5578Z" fill="white"/>
<path d="M45.7076 90.3752C45.1392 89.8279 45.1392 88.9179 45.7076 88.3706C46.2464 87.8518 47.0989 87.8518 47.6377 88.3706C48.2061 88.9179 48.2061 89.8279 47.6377 90.3752C47.0989 90.8939 46.2464 90.8939 45.7076 90.3752Z" fill="white"/>
<path d="M77.8024 84.1955C77.2339 83.6482 77.2339 82.7382 77.8024 82.1909C78.3411 81.6721 79.1936 81.6721 79.7324 82.1909C80.3009 82.7382 80.3009 83.6482 79.7324 84.1955C79.1936 84.7142 78.3411 84.7142 77.8024 84.1955Z" fill="white"/>
<path d="M89.0358 96.5578C88.4673 96.0105 88.4673 95.1005 89.0358 94.5532C89.5745 94.0344 90.427 94.0344 90.9658 94.5532C91.5343 95.1005 91.5343 96.0105 90.9658 96.5578C90.427 97.0765 89.5745 97.0765 89.0358 96.5578Z" fill="white"/>
</svg>
