<svg width="113" height="105" viewBox="0 0 113 105" fill="none" xmlns="http://www.w3.org/2000/svg">
<path fill-rule="evenodd" clip-rule="evenodd" d="M88.0589 94.7281L88.4098 94.9028C90.8098 96.1021 93.6133 96.2193 96.1039 95.2242L98.2896 94.3499C99.87 93.7179 101.646 93.7913 103.17 94.5527L106.956 96.4458C107.204 96.5695 107.465 96.6263 107.723 96.6263C108.353 96.6263 108.96 96.279 109.262 95.6779C109.687 94.8295 109.343 93.7969 108.494 93.3721L104.706 91.479C102.302 90.2783 99.5005 90.1654 97.0127 91.1598L94.8277 92.0327C93.2488 92.6647 91.4678 92.5906 89.947 91.8299L89.5969 91.6545C88.7463 91.2302 87.7174 91.5739 87.2911 92.4224C86.8669 93.2708 87.2105 94.3033 88.0589 94.7281Z" fill="white"/>
<path fill-rule="evenodd" clip-rule="evenodd" d="M91.4759 86.1392L91.8268 86.314C94.2268 87.5133 97.0303 87.6304 99.5209 86.6354L101.707 85.7611C103.287 85.1291 105.063 85.2024 106.587 85.9638L110.373 87.8569C110.621 87.9806 110.882 88.0374 111.14 88.0374C111.77 88.0374 112.377 87.6901 112.679 87.089C113.104 86.2406 112.76 85.2081 111.911 84.7833L108.123 82.8902C105.719 81.6894 102.917 81.5766 100.43 82.5709L98.2447 83.4438C96.6658 84.0758 94.8848 84.0017 93.364 83.241L93.0139 83.0656C92.1633 82.6414 91.1344 82.9851 90.7081 83.8335C90.2839 84.6819 90.6275 85.7144 91.4759 86.1392Z" fill="white"/>
<path fill-rule="evenodd" clip-rule="evenodd" d="M75.8544 92.4667C73.2379 91.1596 70.1145 91.1488 67.4953 92.4444C67.478 92.4516 67.4608 92.4603 67.4435 92.4667C65.7769 93.3036 63.781 93.3015 62.1093 92.4667C59.4778 91.151 56.3321 91.151 53.702 92.4667C52.8529 92.8931 52.5092 93.9256 52.9341 94.7725C53.3598 95.6209 54.3923 95.966 55.2392 95.5418C56.9108 94.7049 58.9039 94.7049 60.5733 95.5418C61.8891 96.1983 63.3343 96.5276 64.7788 96.5276C66.2046 96.5276 67.6304 96.2069 68.9346 95.5641C68.9497 95.5555 68.967 95.5469 68.9843 95.5404C70.6559 94.7049 72.6468 94.7049 74.3171 95.5404C75.1656 95.9646 76.1966 95.6209 76.6222 94.7725C77.0464 93.9233 76.7028 92.8908 75.8544 92.4667Z" fill="white"/>
<path fill-rule="evenodd" clip-rule="evenodd" d="M41.4969 94.7269C42.3453 94.3027 42.6869 93.2723 42.2627 92.4231C41.8399 91.5747 40.806 91.231 39.9576 91.6552C38.286 92.49 36.2951 92.49 34.6234 91.6538C32.0107 90.3481 28.8873 90.3395 26.2636 91.6315C26.2464 91.6401 26.2298 91.6466 26.214 91.6552C24.5445 92.49 22.55 92.4921 20.8833 91.6574L20.5296 91.4784C18.1259 90.2776 15.3226 90.164 12.8348 91.1591L7.4487 93.3132C6.56792 93.6655 6.13796 94.6649 6.49028 95.5465C6.75846 96.218 7.40412 96.6271 8.08646 96.6271C8.29928 96.6271 8.5157 96.5876 8.72349 96.5049L14.1131 94.3493C15.6898 93.7202 17.4693 93.7928 18.9886 94.5499L19.3423 94.7289C21.9588 96.0361 25.08 96.0447 27.7036 94.7527C27.7187 94.744 27.736 94.7354 27.7532 94.7268C29.4227 93.8942 31.4144 93.892 33.0854 94.7268C35.7191 96.0447 38.8611 96.0433 41.4969 94.7269Z" fill="white"/>
<path fill-rule="evenodd" clip-rule="evenodd" d="M32.7879 34.0501H63.7107V50.6569C63.1283 50.3463 62.5473 50.0372 61.9649 49.7258C60.6118 49.0047 59.2579 48.2828 57.9041 47.5594C56.3633 46.7369 54.8203 45.9158 53.278 45.0926C52.1305 44.4793 50.9822 43.8681 49.8333 43.2548C49.2286 42.9334 48.5499 42.5487 47.8402 42.6983C47.5296 42.763 47.2528 42.942 46.9767 43.0894C46.5468 43.3181 46.1189 43.5467 45.6897 43.7754C44.315 44.5088 42.9409 45.2421 41.5648 45.974C40.0068 46.8073 38.4466 47.6385 36.8885 48.4703C35.7518 49.0764 34.6122 49.6847 33.4732 50.2908C33.2467 50.413 33.0166 50.5353 32.788 50.6568L32.7879 34.0501ZM55.1204 66.6902C56.0709 66.6902 56.8388 67.4595 56.8388 68.4079C56.8388 69.674 57.5341 70.7705 58.5565 71.3665V63.2541C58.5565 62.3057 59.3244 61.5364 60.2742 61.5364C61.2247 61.5364 61.9926 62.3057 61.9926 63.2541V71.3665C63.0143 70.7705 63.7103 69.674 63.7103 68.4079C63.7103 67.4595 64.4782 66.6902 65.428 66.6902C66.3785 66.6902 67.1464 67.4595 67.1464 68.4079C67.1464 72.1978 64.064 75.2801 60.2741 75.2801C56.4843 75.2801 53.4027 72.1978 53.4027 68.4079C53.4027 67.4595 54.1706 66.6902 55.1204 66.6902ZM83.0116 86.6335L85.1989 85.7592C86.7778 85.1251 88.5558 85.2006 90.0795 85.9613L93.8657 87.8551C94.7163 88.2793 95.7437 87.9356 96.1707 87.0872C96.5957 86.2381 96.2498 85.2055 95.4014 84.7815L91.6152 82.8884C89.2115 81.6876 86.4082 81.5762 83.9226 82.5691L81.7369 83.4413C80.1565 84.0754 78.3769 83.9999 76.8549 83.2385L76.5041 83.0638C75.3278 82.4742 74.0444 82.1636 72.7508 82.1032L75.7225 58.3129C75.8117 57.6069 75.4543 56.9195 74.8274 56.5844L67.1469 52.4868V32.33C67.1469 31.3816 66.379 30.6123 65.4285 30.6123H55.1209V18.587C55.1209 17.7314 54.4853 17.0527 53.6664 16.9218C54.3948 14.4189 56.6827 12.574 59.4162 12.574C64.6246 12.574 68.8646 8.33556 68.8646 3.12563C68.8646 2.17728 68.0967 1.40723 67.1469 1.40723C66.1964 1.40723 65.4285 2.17728 65.4285 3.12563C65.4285 6.44099 62.7316 9.1379 59.4162 9.1379C54.7946 9.1379 50.9414 12.4777 50.1324 16.8686H43.0956C42.1458 16.8686 41.3779 17.6386 41.3779 18.587V30.6123H31.0704C30.1198 30.6123 29.352 31.3816 29.352 32.33V52.4868L21.6715 56.5844C21.0446 56.9195 20.6872 57.6069 20.7764 58.3129L23.7481 82.1032C22.4546 82.1636 21.1712 82.4742 19.9928 83.0652C18.3233 83.9 16.3323 83.9021 14.6586 83.0652L14.307 82.8883C11.907 81.6876 9.10149 81.5762 6.61369 82.5691L1.22614 84.7232C0.344637 85.0755 -0.0846017 86.0749 0.267714 86.9565C0.53733 87.628 1.18301 88.0371 1.8639 88.0371C2.07671 88.0371 2.29314 87.9976 2.50093 87.9134L7.88848 85.7608C9.46883 85.1267 11.2491 85.1993 12.7704 85.9614L13.1227 86.139C15.7528 87.4548 18.897 87.4526 21.5308 86.1368C22.7401 85.5322 24.1178 85.3797 25.4221 85.6508C25.9426 85.7608 26.4301 85.9204 26.8651 86.1368C28.9724 87.1938 31.4761 87.3821 33.7366 86.7315C34.8632 86.405 35.8563 85.7608 37.0297 85.5803C39.3319 85.228 41.0999 86.6366 43.2901 86.9716C45.1782 87.2606 47.1517 87.0083 48.8926 86.2123C50.6621 85.4035 52.5638 85.2417 54.3534 86.1368C54.8366 86.3792 55.4068 86.3792 55.8892 86.1368C56.9857 85.589 58.241 85.3963 59.4525 85.5789C60.6086 85.7522 61.5807 86.4187 62.7095 86.7264C64.0943 87.1039 65.5583 87.1866 66.9754 86.9666C68.4371 86.7401 69.6552 85.9499 71.0758 85.6523C72.38 85.3798 73.7576 85.5322 74.9684 86.1369L75.3192 86.3123C77.717 87.5116 80.5225 87.6279 83.0116 86.6335Z" fill="white"/>
<path fill-rule="evenodd" clip-rule="evenodd" d="M108.494 101.229L104.708 99.3364C102.308 98.1356 99.5046 98.0206 97.014 99.0171L94.8305 99.89C93.2494 100.522 91.4698 100.448 89.9478 99.6872C89.1008 99.2609 88.0683 99.6067 87.6428 100.455C87.2186 101.304 87.5615 102.336 88.4121 102.76C90.8106 103.959 93.6156 104.078 96.1054 103.08L98.2905 102.207C99.8694 101.573 101.649 101.649 103.171 102.41L106.957 104.303C107.205 104.427 107.466 104.485 107.725 104.485C108.356 104.485 108.96 104.136 109.262 103.535C109.687 102.687 109.344 101.654 108.495 101.229" fill="white"/>
<path fill-rule="evenodd" clip-rule="evenodd" d="M75.8535 99.5124C73.2185 98.1966 70.0763 98.1981 67.4427 99.5145C65.7761 100.349 63.7802 100.349 62.1085 99.5124C61.2615 99.0896 60.2291 99.4333 59.8048 100.282C59.3806 101.131 59.7243 102.163 60.5727 102.587C61.8885 103.245 63.3314 103.574 64.7767 103.574C66.2212 103.574 67.6643 103.244 68.9835 102.586C70.6516 101.751 72.646 101.753 74.3164 102.586C75.1648 103.01 76.1988 102.665 76.6214 101.816C77.0456 100.968 76.7019 99.9366 75.8535 99.5124Z" fill="white"/>
<path fill-rule="evenodd" clip-rule="evenodd" d="M48.3637 99.5119C45.7321 98.1962 42.5879 98.1962 39.9549 99.5141C38.2882 100.347 36.2937 100.349 34.622 99.5119C33.775 99.0892 32.7425 99.4329 32.317 100.282C31.892 101.13 32.2357 102.161 33.0849 102.587C34.4006 103.243 35.8451 103.574 37.2881 103.574C38.7333 103.574 40.1763 103.243 41.4957 102.586C43.1637 101.75 45.1561 101.75 46.8298 102.587C47.6783 103.011 48.7071 102.668 49.1336 101.818C49.5578 100.969 49.2128 99.936 48.3637 99.5119Z" fill="white"/>
<path fill-rule="evenodd" clip-rule="evenodd" d="M20.8794 99.5128L20.5293 99.3373C18.1292 98.1366 15.3237 98.0216 12.8345 99.0181L7.44911 101.172C6.56761 101.525 6.13837 102.525 6.48997 103.405C6.75815 104.078 7.40381 104.486 8.08616 104.486C8.29897 104.486 8.51539 104.447 8.72318 104.362L14.1107 102.208C15.6897 101.574 17.4699 101.65 18.9921 102.411L19.3423 102.587C20.1928 103.011 21.2217 102.667 21.6473 101.819C22.0722 100.969 21.7285 99.9369 20.8794 99.5128Z" fill="white"/>
<path fill-rule="evenodd" clip-rule="evenodd" d="M38.5985 37.4863C37.6487 37.4863 36.8809 38.2564 36.8809 39.2047C36.8809 40.1531 37.6488 40.9224 38.5985 40.9224C39.5483 40.9224 40.3162 40.1531 40.3162 39.2047C40.3162 38.2564 39.5483 37.4863 38.5985 37.4863Z" fill="white"/>
<path fill-rule="evenodd" clip-rule="evenodd" d="M59.2138 40.9214C60.1636 40.9214 60.9315 40.1521 60.9315 39.2038C60.9315 38.2554 60.1636 37.4854 59.2138 37.4854C58.264 37.4854 57.4961 38.2554 57.4961 39.2038C57.4961 40.1521 58.264 40.9214 59.2138 40.9214Z" fill="white"/>
<path fill-rule="evenodd" clip-rule="evenodd" d="M50.6229 39.2038C50.6229 38.2554 49.855 37.4854 48.9052 37.4854C47.9554 37.4854 47.1875 38.2554 47.1875 39.2038C47.1875 40.1521 47.9554 40.9214 48.9052 40.9214C49.855 40.9214 50.6229 40.1521 50.6229 39.2038Z" fill="white"/>
<path fill-rule="evenodd" clip-rule="evenodd" d="M47.5866 10.4532C48.5283 10.5822 49.3936 9.92424 49.5223 8.98467C49.9081 6.1694 52.5128 4.19249 55.3281 4.57826C56.2691 4.70721 57.1343 4.04924 57.263 3.10967C57.3918 2.1701 56.7355 1.30292 55.7946 1.17398C51.1017 0.530923 46.761 3.82608 46.118 8.5182C45.9893 9.45777 46.6456 10.3242 47.5866 10.4532Z" fill="white"/>
<path d="M103.846 68.6841V61.9092H84.6016V68.732L94.838 67.3738L103.846 68.6841ZM86.0617 66.9159V63.7227H102.385V66.8945L94.7446 65.7361L86.0617 66.9159Z" fill="white"/>
<path d="M86.9114 83.6657C88.7395 83.6657 88.7395 85.7084 90.5651 85.7084C92.3932 85.7084 92.3932 83.6657 94.2216 83.6657C96.0486 83.6657 96.0486 85.7084 97.8753 85.7084C99.7049 85.7084 99.7049 83.6657 101.532 83.6657C101.674 83.6657 101.802 83.6817 101.926 83.7057L107.553 70.5795L94.838 68.7314L80.8945 70.5795L86.523 83.7057C86.6443 83.6817 86.7709 83.6657 86.9119 83.6657H86.9114Z" fill="white"/>
<path d="M87.6104 58.332H100.837V60.5451H87.6104V58.332Z" fill="white"/>
</svg>
