<svg width="37" height="37" viewBox="0 0 37 37" fill="none" xmlns="http://www.w3.org/2000/svg">
<rect x="0.0751953" y="0.168457" width="36" height="36" fill="#FF0000" fill-opacity="0.01"/>
<path d="M20.4176 18.1685L29.5904 8.99566C30.2368 8.34926 30.2368 7.29966 29.5904 6.65326C28.944 6.00686 27.8944 6.00686 27.248 6.65326L18.0752 15.8261L8.9024 6.65326C8.256 6.00686 7.2064 6.00686 6.56 6.65326C5.9136 7.29966 5.9136 8.34926 6.56 8.99566L15.7328 18.1685L6.56 27.3413C5.9136 27.9877 5.9136 29.0373 6.56 29.6837C7.2064 30.3301 8.256 30.3301 8.9024 29.6837L18.0752 20.5109L27.248 29.6837C27.8944 30.3301 28.944 30.3301 29.5904 29.6837C30.2368 29.0373 30.2368 27.9877 29.5904 27.3413L20.4176 18.1685Z" fill="#BDBDBD"/>
<mask id="mask0_153_373" style="mask-type:luminance" maskUnits="userSpaceOnUse" x="6" y="6" width="25" height="25">
<path d="M20.4176 18.1685L29.5904 8.99566C30.2368 8.34926 30.2368 7.29966 29.5904 6.65326C28.944 6.00686 27.8944 6.00686 27.248 6.65326L18.0752 15.8261L8.9024 6.65326C8.256 6.00686 7.2064 6.00686 6.56 6.65326C5.9136 7.29966 5.9136 8.34926 6.56 8.99566L15.7328 18.1685L6.56 27.3413C5.9136 27.9877 5.9136 29.0373 6.56 29.6837C7.2064 30.3301 8.256 30.3301 8.9024 29.6837L18.0752 20.5109L27.248 29.6837C27.8944 30.3301 28.944 30.3301 29.5904 29.6837C30.2368 29.0373 30.2368 27.9877 29.5904 27.3413L20.4176 18.1685Z" fill="white"/>
</mask>
<g mask="url(#mask0_153_373)">
<rect x="0.0751953" y="0.168457" width="36" height="36" fill="#BDBDBD"/>
</g>
</svg>
