<svg width="34" height="34" viewBox="0 0 34 34" fill="none" xmlns="http://www.w3.org/2000/svg">
<path d="M17.3174 32.7095C25.8778 32.7095 32.8174 25.7699 32.8174 17.2095C32.8174 8.64906 25.8778 1.70947 17.3174 1.70947C8.75697 1.70947 1.81738 8.64906 1.81738 17.2095C1.81738 25.7699 8.75697 32.7095 17.3174 32.7095Z" fill="url(#paint0_linear_115_941)"/>
<path d="M9.60547 21.5862C9.60547 22.1555 9.76974 22.7012 10.075 23.1707L14.7113 18.5344L9.60547 13.8042V21.5862Z" fill="white"/>
<path d="M16.6481 8.35821L10.2451 12.795L17.2642 19.3033C17.4871 19.5146 17.8392 19.5087 18.0623 19.3033L25.1223 12.8181L18.6784 8.35788C18.0681 7.93539 17.2582 7.93539 16.6479 8.35788L16.6481 8.35821Z" fill="white"/>
<path d="M18.8602 20.1664C18.5256 20.4774 18.0914 20.63 17.663 20.63C17.2347 20.63 16.8004 20.4774 16.4658 20.1664L15.5737 19.3389L10.9082 23.9987C11.3777 24.3097 11.9234 24.4741 12.4928 24.4741H22.8335C23.4029 24.4741 23.9486 24.3097 24.4181 24.0046L19.7583 19.3448L18.8602 20.1664Z" fill="white"/>
<path d="M25.721 21.5866V13.8633L20.627 18.5466L25.2458 23.1711C25.5568 22.7016 25.7211 22.1559 25.7211 21.5866H25.721Z" fill="white"/>
<defs>
<linearGradient id="paint0_linear_115_941" x1="17.3174" y1="1.70947" x2="17.3174" y2="32.4796" gradientUnits="userSpaceOnUse">
<stop stop-color="#2AABEE"/>
<stop offset="1" stop-color="#229ED9"/>
</linearGradient>
</defs>
</svg>
