<svg width="315" height="63" viewBox="0 0 315 63" fill="none" xmlns="http://www.w3.org/2000/svg">
<g clip-path="url(#clip0_306_178)">
<path fill-rule="evenodd" clip-rule="evenodd" d="M314.87 0.407227C316.329 27.8364 299.507 57.0132 263.914 59.5189C263.869 59.522 263.824 59.524 263.779 59.5247C256.957 59.6361 247.668 58.0273 239.505 54.4265C232.787 51.4634 226.442 46.9692 223.131 40.6068C210.12 55.4741 195.501 62.3661 182.308 62.0635C169.169 61.7621 157.944 54.3272 151.72 41.5471C136.737 54.6959 119.319 60.9397 104.739 60.5077C97.0138 60.2788 89.9729 58.1662 84.5684 54.0681C80.1979 50.7541 76.9958 46.2122 75.3829 40.5593C71.1933 43.7256 65.6655 46.4435 59.4886 48.7533C51.4041 51.7764 41.944 54.1956 32.3102 55.9882C13.1042 59.5621 -7.18157 60.7149 -19.0576 59.0085L-18.3465 54.0593C-7.23306 55.6562 12.4482 54.5983 31.3955 51.0726C40.8382 49.3155 50.0012 46.9628 57.7373 44.07C65.5352 41.154 71.6256 37.7825 75.1697 34.1217C75.8374 33.432 76.841 33.1856 77.7522 33.4875C78.6634 33.7895 79.3213 34.5865 79.445 35.5385C80.2802 41.9653 83.2386 46.7849 87.5894 50.084C91.9825 53.4151 97.9464 55.3042 104.888 55.5099C118.787 55.9217 136.154 49.5466 150.884 35.54C151.486 34.9669 152.335 34.731 153.146 34.9107C153.958 35.0903 154.628 35.6619 154.933 36.4357C160.094 49.5436 170.415 56.7893 182.422 57.0648C194.529 57.3425 208.931 50.534 221.954 34.2197C222.541 33.4841 223.491 33.1406 224.413 33.331C225.335 33.5215 226.072 34.2135 226.319 35.1216C228.084 41.592 233.971 46.521 241.522 49.8517C248.984 53.1427 257.519 54.6144 263.631 54.5264C295.844 52.2235 311.225 26.017 309.877 0.672804L314.87 0.407227Z" fill="url(#paint0_linear_306_178)"/>
</g>
<defs>
<linearGradient id="paint0_linear_306_178" x1="313.636" y1="28.6277" x2="89.3624" y2="64.3788" gradientUnits="userSpaceOnUse">
<stop offset="0.165908" stop-color="#06EA6F"/>
<stop offset="1" stop-color="#0359FF"/>
</linearGradient>
<clipPath id="clip0_306_178">
<rect width="315" height="62" fill="white" transform="translate(0 0.28418)"/>
</clipPath>
</defs>
</svg>
