<svg width="612" height="208" viewBox="0 0 612 208" fill="none" xmlns="http://www.w3.org/2000/svg">
<g clip-path="url(#clip0_306_182)">
<path fill-rule="evenodd" clip-rule="evenodd" d="M609.673 185.003L611.445 185.117L611.126 190.107L609.004 189.971C608.772 189.956 608.544 189.909 608.325 189.831C541.784 166.154 500.318 123.777 463.234 85.8771C458.706 81.2497 454.244 76.689 449.809 72.2373C409.003 31.2762 370.633 -0.433481 304.946 7.34654C272.372 11.2046 252.41 24.6791 240.753 40.5341C229.044 56.4605 225.549 75.0192 226.37 89.2196C226.883 98.0843 229.076 107.949 233.476 116.162C237.04 122.816 241.986 128.282 248.591 131.379C247.576 127.348 247.32 122.708 247.748 117.938C248.387 110.827 250.569 103.161 254.352 96.3001C258.137 89.4368 263.577 83.292 270.776 79.3853C278.01 75.4596 286.864 73.8818 297.266 75.9303C328.445 82.0708 344.207 106.361 343.605 130.66C343.002 154.988 326.025 179.035 292.711 184.853C292.646 184.865 292.581 184.873 292.516 184.88C285.725 185.523 276.333 184.644 267.895 181.693C260.947 179.263 254.247 175.278 250.416 169.195C238.696 185.029 224.703 193.041 211.526 193.769C198.404 194.494 186.593 187.957 179.32 175.704C165.489 189.981 148.65 197.564 134.083 198.271C126.362 198.646 119.17 197.089 113.443 193.429C108.793 190.458 105.211 186.161 103.132 180.622C98.968 184.191 93.0729 187.417 86.3686 190.286C77.6418 194.021 67.1847 197.297 56.5053 199.965C35.2198 205.281 12.6182 208.281 0.638672 207.508L0.960958 202.518C12.1734 203.242 34.1852 200.386 55.2937 195.114C65.8112 192.487 75.9962 189.286 84.4014 185.689C92.9017 182.052 99.2334 178.151 102.409 174.285C103.017 173.544 103.996 173.216 104.928 173.442C105.86 173.667 106.581 174.405 106.784 175.342C108.158 181.686 111.515 186.264 116.135 189.216C120.799 192.197 126.905 193.614 133.84 193.277C147.728 192.603 164.496 184.894 177.994 169.789C178.548 169.169 179.373 168.865 180.196 168.978C181.019 169.09 181.733 169.604 182.1 170.349C188.352 183.019 199.258 189.439 211.25 188.776C223.338 188.108 237.114 180.201 248.716 162.93C249.241 162.149 250.159 161.729 251.093 161.842C252.026 161.955 252.818 162.583 253.14 163.467C255.446 169.786 261.737 174.242 269.546 176.973C277.249 179.668 285.866 180.47 291.948 179.911C322.877 174.468 338.064 152.432 338.606 130.536C339.15 108.588 325.008 86.4898 296.299 80.836C286.971 78.9988 279.311 80.4425 273.161 83.78C266.975 87.1365 262.159 92.4967 258.73 98.7147C255.3 104.936 253.309 111.927 252.728 118.385C252.144 124.892 253.012 130.596 255.008 134.382C255.47 135.259 255.371 136.326 254.754 137.103C254.138 137.879 253.12 138.218 252.161 137.966C241.36 135.128 233.906 127.556 229.068 118.523C224.243 109.515 221.921 98.9003 221.379 89.5082C220.502 74.3531 224.212 54.5921 236.725 37.5724C249.29 20.4814 270.565 6.38364 304.357 2.38125C372.501 -5.68978 412.368 27.5695 453.351 68.7085C457.814 73.1879 462.29 77.761 466.82 82.3881C503.878 120.244 544.474 161.714 609.673 185.003Z" fill="url(#paint0_linear_306_182)"/>
</g>
<defs>
<linearGradient id="paint0_linear_306_182" x1="405.645" y1="-4.12253" x2="217.683" y2="223.8" gradientUnits="userSpaceOnUse">
<stop stop-color="#150931"/>
<stop offset="0.342888" stop-color="#0386FF"/>
<stop offset="1" stop-color="#06EA6F"/>
</linearGradient>
<clipPath id="clip0_306_182">
<rect width="612" height="207" fill="white" transform="translate(0 0.802734)"/>
</clipPath>
</defs>
</svg>
