<svg width="545" height="210" viewBox="0 0 545 210" fill="none" xmlns="http://www.w3.org/2000/svg">
<path d="M-65.5168 181.6L-63.3926 181.5C85.5334 131.397 110.699 -13.9776 244.235 4.18816C310.455 13.1964 325.742 60.7524 323.537 90.074C322.166 108.31 313.798 130.87 293.819 135.75C303.321 118.462 290.419 70.7456 250.83 77.8326C190.747 88.5883 189.426 169.559 253.531 181.903C266.386 183.346 289.701 179.178 295.326 164.556C318.499 200.377 352.369 199.621 366.125 172.915C393.332 204.442 435.027 206.44 441.555 178.639C455.565 196.31 521.361 210.664 544.576 209.567" stroke="#57296C" stroke-width="5" stroke-linejoin="round"/>
</svg>
