<svg width="126" height="64" viewBox="0 0 126 64" fill="none" xmlns="http://www.w3.org/2000/svg">
<g id="Group">
<g id="Group_2">
<path id="Vector" d="M7.9567 10.5531C7.9567 11.0616 7.85885 11.4685 7.66316 11.8753C7.46746 12.2821 7.27176 12.4856 6.97822 12.7907C6.68467 12.9941 6.39113 13.1975 6.09758 13.4009C5.80403 13.5026 5.41264 13.6044 5.02125 13.6044V14.5197H3.35782V13.6044C2.86858 13.5026 2.37933 13.4009 1.98794 13.1975C1.59655 12.9941 1.303 12.7907 1.1073 12.4856C0.911606 12.1804 0.715909 11.8753 0.61806 11.4685C0.520212 11.0616 0.422363 10.6548 0.422363 10.1463V6.38304C0.422363 5.8745 0.520212 5.46767 0.715909 5.06083C0.813758 4.75571 1.1073 4.45058 1.303 4.24716C1.59655 3.94204 1.89009 3.84033 2.28149 3.63691C2.67288 3.43349 2.96643 3.43349 3.35782 3.43349V2.82324H5.11909V3.43349C5.51049 3.43349 5.80403 3.5352 6.19543 3.63691C6.48897 3.73862 6.78252 3.94204 7.07607 4.24716C7.36961 4.45058 7.56531 4.85741 7.76101 5.16254C7.9567 5.56937 8.05455 5.97621 8.05455 6.48475V10.5531H7.9567ZM3.35782 4.85741C2.96643 4.95912 2.67288 5.06083 2.37933 5.26425C2.18364 5.56937 2.08579 5.8745 2.08579 6.28133V10.7565C2.08579 10.9599 2.08579 11.1633 2.18364 11.3668C2.28149 11.5702 2.37933 11.6719 2.47718 11.7736C2.57503 11.8753 2.77073 11.977 2.86858 12.0787C3.06427 12.1804 3.16212 12.1804 3.35782 12.1804V4.85741ZM6.39113 6.28133C6.39113 5.8745 6.29328 5.56937 5.99973 5.26425C5.80403 5.06083 5.51049 4.95912 5.11909 4.85741V12.0787C5.21694 12.0787 5.41264 11.977 5.51049 11.977C5.70619 11.8753 5.80403 11.7736 5.90188 11.6719C5.99973 11.5702 6.09758 11.4685 6.19543 11.2651C6.29328 11.0616 6.29328 10.9599 6.29328 10.7565V6.28133H6.39113Z" fill="#6B6776"/>
<path id="Vector_2" d="M16.6651 11.4685C16.6651 12.4856 16.4694 13.2992 15.9801 13.8078C15.4909 14.3163 14.8059 14.6214 13.9253 14.6214C12.9468 14.6214 12.2619 14.418 11.8705 13.9095C11.4791 13.4009 11.1855 12.689 11.1855 11.7736V5.8745C11.1855 5.46767 11.2834 4.95912 11.3812 4.654C11.4791 4.24716 11.6748 3.94204 11.8705 3.63691C12.0662 3.33179 12.3597 3.12837 12.7511 3.02666C13.1425 2.92495 13.5339 2.82324 14.0232 2.82324C14.5124 2.82324 15.0016 2.92495 15.2952 3.02666C15.5887 3.02666 15.8823 3.23008 16.078 3.5352C16.2737 3.84033 16.4694 4.14545 16.5672 4.55229C16.6651 4.95912 16.6651 5.36596 16.6651 5.8745V11.4685ZM14.9038 5.67108C14.9038 5.36596 14.8059 5.06083 14.7081 4.75571C14.6102 4.45058 14.3167 4.34887 13.9253 4.34887C13.7296 4.34887 13.5339 4.34887 13.4361 4.45058C13.2404 4.654 13.1425 4.75571 13.1425 4.95912C13.0447 5.06083 13.0447 5.26425 13.0447 5.46767C13.0447 5.67108 13.0447 5.77279 13.0447 5.97621V11.8753C13.0447 12.1804 13.1425 12.4856 13.2404 12.689C13.3382 12.8924 13.6318 13.0958 14.0232 13.0958C14.4145 13.0958 14.6102 12.9941 14.8059 12.689C15.0016 12.4856 15.0016 12.1804 15.0016 11.7736V5.67108H14.9038Z" fill="#6B6776"/>
<path id="Vector_3" d="M23.7102 14.5197V9.4343H21.6554V14.5197H19.9919V2.82324H21.7532V7.70525H23.808V2.82324H25.5693V14.5197H23.7102Z" fill="#6B6776"/>
<path id="Vector_4" d="M29.6789 14.5196V16.7572H28.2112V12.994L28.8961 12.8922C29.1897 12.5871 29.3854 12.1803 29.4832 11.7735C29.5811 11.3666 29.6789 10.7564 29.6789 10.0444L29.8746 2.9248H34.9627V12.994H35.6477V16.8589H34.1799V14.6213H29.6789V14.5196ZM31.2445 9.9427C31.2445 10.6547 31.1466 11.1632 31.1466 11.6717C31.0488 12.1803 30.9509 12.5871 30.7552 12.8922H33.2015V4.55214H31.4402L31.2445 9.9427Z" fill="#6B6776"/>
<path id="Vector_5" d="M46.2154 2.72168C46.7047 2.72168 47.0961 2.82339 47.3896 2.9251C47.6832 3.02681 47.9767 3.23022 48.2703 3.43364C48.466 3.63706 48.6617 3.94218 48.7595 4.24731C48.8574 4.55243 48.9552 4.95927 48.9552 5.3661L47.2918 5.77294C47.2918 5.3661 47.1939 4.95927 47.0961 4.75585C46.9004 4.45073 46.7047 4.34902 46.3133 4.34902C46.1176 4.34902 45.9219 4.34902 45.8241 4.45073C45.7262 4.55243 45.6284 4.65414 45.5305 4.75585C45.4327 4.85756 45.4327 5.06098 45.4327 5.16269C45.4327 5.3661 45.4327 5.46781 45.4327 5.67123V11.5703C45.4327 11.672 45.4327 11.7737 45.4327 11.9772C45.4327 12.0789 45.5305 12.2823 45.5305 12.384C45.6284 12.4857 45.7262 12.5874 45.8241 12.6891C45.9219 12.7908 46.1176 12.7908 46.3133 12.7908C46.9982 12.7908 47.2918 12.2823 47.2918 11.3669C47.5853 11.4686 47.8789 11.4686 48.1724 11.4686C48.466 11.4686 48.7595 11.5703 49.0531 11.5703C49.0531 12.4857 48.7595 13.1977 48.3681 13.7062C47.8789 14.2147 47.2918 14.5199 46.4111 14.5199C45.4327 14.5199 44.7477 14.3165 44.3563 13.8079C43.8671 13.2994 43.6714 12.5874 43.6714 11.672V5.87465C43.6714 5.46781 43.6714 5.06098 43.7692 4.65414C43.8671 4.24731 44.0628 3.94218 44.2585 3.63706C44.4542 3.33193 44.7477 3.12851 45.1391 2.9251C45.237 2.82339 45.6284 2.72168 46.2154 2.72168Z" fill="#6B6776"/>
<path id="Vector_6" d="M57.1746 11.4685C57.1746 12.4856 56.9789 13.2992 56.4896 13.8078C56.0004 14.3163 55.3155 14.6214 54.4348 14.6214C53.4563 14.6214 52.7714 14.418 52.38 13.9095C51.9886 13.4009 51.6951 12.689 51.6951 11.7736V5.8745C51.6951 5.46767 51.7929 4.95912 51.8908 4.654C51.9886 4.24716 52.1843 3.94204 52.38 3.63691C52.5757 3.33179 52.8692 3.12837 53.2606 3.02666C53.652 2.92495 54.0434 2.82324 54.5327 2.82324C55.0219 2.82324 55.5112 2.92495 55.8047 3.02666C56.1961 3.12837 56.3918 3.33179 56.6853 3.63691C56.881 3.94204 57.0767 4.24716 57.1746 4.654C57.1746 4.85741 57.1746 5.36596 57.1746 5.77279V11.4685ZM55.4133 5.67108C55.4133 5.36596 55.3155 5.06083 55.2176 4.75571C55.1198 4.45058 54.8262 4.34887 54.4348 4.34887C54.2391 4.34887 54.0434 4.34887 53.9456 4.45058C53.8477 4.55229 53.7499 4.654 53.652 4.75571C53.5542 4.85741 53.5542 5.06083 53.4563 5.26425C53.4563 5.46767 53.4563 5.56937 53.4563 5.77279V11.6719C53.4563 11.977 53.5542 12.2821 53.652 12.4856C53.8477 12.689 54.0434 12.8924 54.4348 12.8924C54.8262 12.8924 55.0219 12.7907 55.2176 12.4856C55.4133 12.2821 55.4133 11.977 55.4133 11.5702V5.67108Z" fill="#6B6776"/>
<path id="Vector_7" d="M61.2841 14.5196V16.7572H59.8164V12.994L60.5013 12.8922C60.7949 12.5871 60.9906 12.1803 61.0884 11.7735C61.1863 11.3666 61.2841 10.7564 61.2841 10.0444L61.4798 2.9248H66.568V12.994H67.2529V16.8589H65.7852V14.6213H61.2841V14.5196ZM62.8497 9.9427C62.8497 10.6547 62.7519 11.1632 62.7519 11.6717C62.654 12.1803 62.5562 12.5871 62.3605 12.8922H64.8067V4.55214H63.0454L62.8497 9.9427Z" fill="#6B6776"/>
<path id="Vector_8" d="M70.0906 14.5197V2.82324H75.0809V4.55229H71.8519V7.70525H74.6895V9.4343H71.8519V12.7907H75.0809V14.5197H70.0906Z" fill="#6B6776"/>
<path id="Vector_9" d="M82.0281 7.1966L79.6798 14.5196H78.0164V2.82313H79.6798V10.2479L82.0281 2.82313H83.6916V14.5196H81.9303L82.0281 7.1966ZM79.8755 0.178711C79.8755 0.28042 79.8755 0.382128 79.9733 0.585545C80.0712 0.687254 80.0712 0.788962 80.169 0.99238C80.2669 1.09409 80.3647 1.1958 80.4626 1.29751C80.5604 1.39921 80.7561 1.39921 80.854 1.39921C81.0497 1.39921 81.1475 1.39921 81.2454 1.29751C81.3432 1.1958 81.4411 1.09409 81.5389 0.99238C81.6368 0.890671 81.7346 0.788962 81.7346 0.585545C81.7346 0.483837 81.8324 0.382128 81.8324 0.178711H83.1045C83.1045 0.382128 83.0066 0.687254 82.9088 0.99238C83.0066 1.1958 82.8109 1.50092 82.6152 1.70434C82.4195 1.90776 82.2238 2.11117 81.9303 2.31459C81.6368 2.4163 81.3432 2.51801 80.9518 2.51801C80.5604 2.51801 80.169 2.4163 79.8755 2.31459C79.5819 2.21288 79.3862 2.00947 79.1905 1.70434C78.9948 1.50092 78.897 1.1958 78.7991 0.99238C78.7013 0.687254 78.6034 0.382128 78.6034 0.178711H79.8755Z" fill="#6B6776"/>
<path id="Vector_10" d="M89.7582 2.72168C90.2474 2.72168 90.6388 2.82339 90.9324 2.9251C91.2259 3.02681 91.5195 3.23022 91.813 3.43364C92.0087 3.63706 92.2044 3.94218 92.3022 4.24731C92.4001 4.55243 92.4979 4.95927 92.4979 5.3661L90.8345 5.77294C90.8345 5.3661 90.7367 4.95927 90.6388 4.75585C90.4431 4.45073 90.2474 4.34902 89.856 4.34902C89.6603 4.34902 89.4646 4.34902 89.3668 4.45073C89.2689 4.55243 89.1711 4.65414 89.0732 4.75585C88.9754 4.85756 88.9754 5.06098 88.9754 5.16269C88.9754 5.3661 88.9754 5.46781 88.9754 5.67123V11.5703C88.9754 11.672 88.9754 11.7737 88.9754 11.9772C88.9754 12.0789 89.0732 12.2823 89.0732 12.384C89.1711 12.4857 89.2689 12.5874 89.3668 12.6891C89.4646 12.7908 89.6603 12.7908 89.856 12.7908C90.541 12.7908 90.8345 12.2823 90.8345 11.3669C91.1281 11.4686 91.4216 11.4686 91.7152 11.4686C92.0087 11.4686 92.3022 11.5703 92.5958 11.5703C92.5958 12.4857 92.3022 13.1977 91.9108 13.7062C91.4216 14.2147 90.8345 14.5199 89.9539 14.5199C88.9754 14.5199 88.2905 14.3165 87.8991 13.8079C87.4098 13.2994 87.2141 12.5874 87.2141 11.672V5.87465C87.2141 5.46781 87.2141 5.06098 87.312 4.65414C87.4098 4.24731 87.6055 3.94218 87.8012 3.63706C87.9969 3.33193 88.2904 3.12851 88.6818 2.9251C88.7797 2.82339 89.2689 2.72168 89.7582 2.72168Z" fill="#6B6776"/>
<path id="Vector_11" d="M98.1729 4.55229V14.5197H96.4116V4.55229H94.5525V2.82324H99.9342V4.55229H98.1729Z" fill="#6B6776"/>
<path id="Vector_12" d="M106.784 8.41721C107.273 8.62063 107.664 8.92576 107.762 9.33259C107.958 9.84113 108.056 10.3497 108.056 10.9599C108.056 12.1804 107.762 13.0958 107.273 13.6044C106.784 14.2146 106.001 14.418 104.925 14.418H102.576V2.82324H105.022C106.001 2.82324 106.784 3.12837 107.175 3.63691C107.664 4.14545 107.86 4.95912 107.86 5.97621C107.86 6.48475 107.762 6.99329 107.566 7.40013C107.566 7.80696 107.175 8.11209 106.784 8.41721ZM106.294 6.07792C106.294 5.56937 106.197 5.16254 106.001 4.95912C105.805 4.75571 105.414 4.654 105.022 4.654H104.435V7.70525H105.022C105.512 7.70525 105.805 7.60355 106.001 7.29842C106.197 6.89159 106.294 6.48475 106.294 6.07792ZM106.392 10.7565C106.392 10.248 106.294 9.84113 106.099 9.53601C105.903 9.23088 105.609 9.12917 105.12 9.12917H104.435V12.7907H105.12C105.414 12.7907 105.609 12.689 105.805 12.5873C106.001 12.4856 106.099 12.3838 106.197 12.1804C106.294 11.977 106.392 11.7736 106.392 11.5702C106.392 11.3668 106.392 11.0616 106.392 10.7565Z" fill="#6B6776"/>
<path id="Vector_13" d="M115.394 7.19671L113.046 14.5197H111.383V2.82324H113.046V10.248H113.144L115.492 2.82324H117.156V14.5197H115.394V7.19671Z" fill="#6B6776"/>
<path id="Vector_14" d="M120.091 14.5196L120.678 10.8581C120.776 10.4512 120.874 10.1461 121.07 9.84099C121.265 9.53586 121.461 9.23074 121.754 9.12903C121.265 8.92561 120.874 8.51878 120.678 8.11194C120.482 7.70511 120.385 7.09486 120.385 6.48461C120.385 5.36581 120.678 4.45043 121.167 3.84018C121.657 3.22993 122.439 2.9248 123.418 2.9248H125.962V14.6213H124.201V9.53586H123.711C123.418 9.53586 123.124 9.63757 122.831 9.9427C122.537 10.1461 122.439 10.6547 122.244 11.2649L121.754 14.5196H120.091ZM123.516 4.55214C123.027 4.55214 122.635 4.75556 122.439 5.06069C122.244 5.36581 122.146 5.77265 122.146 6.3829C122.146 6.99315 122.244 7.29827 122.537 7.6034C122.831 7.80682 123.124 7.90853 123.516 7.90853H124.201V4.55214H123.516Z" fill="#6B6776"/>
<path id="Vector_15" d="M5.7061 24.1821L2.77064 33.2341H0.71582V18.7915H2.86849V27.9453H2.96634L5.90179 18.7915H8.05446V33.2341H5.80395L5.7061 24.1821Z" fill="#6B6776"/>
<path id="Vector_16" d="M18.5244 33.2341V26.9282H16.0782V33.2341H13.9255V18.7915H16.0782V24.7923H18.6223V18.7915H20.7749V33.2341H18.5244Z" fill="#6B6776"/>
<path id="Vector_17" d="M31.4404 33.2341V26.9282H28.8963V33.2341H26.7437V18.7915H28.8963V24.7923H31.4404V18.7915H33.5931V33.2341H31.4404Z" fill="#6B6776"/>
<path id="Vector_18" d="M46.3133 29.5728C46.3133 30.7933 46.0198 31.8103 45.5305 32.4206C44.9434 33.0309 44.1607 33.336 42.8886 33.336C41.7144 33.336 40.8338 33.0309 40.3446 32.4206C39.8553 31.8103 39.5618 30.895 39.5618 29.7762V22.5549C39.5618 21.9446 39.6596 21.4361 39.7575 21.0292C39.8553 20.5207 40.051 20.1139 40.3446 19.8087C40.6381 19.5036 40.9316 19.1985 41.4209 18.9951C41.8123 18.7916 42.3994 18.6899 42.9865 18.6899C43.6714 18.6899 44.1607 18.7916 44.6499 18.9951C45.0413 19.1985 45.4327 19.4019 45.7262 19.707C46.0198 20.0122 46.2155 20.419 46.3133 20.9275C46.4112 21.4361 46.509 21.9446 46.509 22.5549V29.5728H46.3133ZM44.1607 22.3514C44.1607 21.9446 44.0628 21.6395 43.8671 21.2327C43.6714 20.9275 43.3779 20.7241 42.8886 20.7241C42.5951 20.7241 42.3994 20.8258 42.3015 20.9275C42.1058 21.0292 42.008 21.2327 41.9101 21.3344C41.8123 21.5378 41.7144 21.7412 41.7144 21.9446C41.7144 22.148 41.6166 22.3514 41.6166 22.5549V29.8779C41.6166 30.2847 41.7144 30.5898 41.9101 30.895C42.1058 31.2001 42.3994 31.3018 42.8886 31.3018C43.3779 31.3018 43.6714 31.0984 43.8671 30.7933C44.0628 30.4881 44.1607 30.0813 44.1607 29.6745V22.3514Z" fill="#6B6776"/>
<path id="Vector_19" d="M57.3704 25.7077C57.9574 25.9111 58.4467 26.3179 58.6424 26.9282C58.8381 27.5384 59.0338 28.1487 59.0338 28.9624C59.0338 30.488 58.7402 31.6068 58.0553 32.3187C57.4682 33.0307 56.4897 33.3358 55.2177 33.3358H52.2822V18.7915H55.3155C56.5876 18.7915 57.4682 19.0966 57.9574 19.8086C58.5445 20.5205 58.8381 21.4359 58.8381 22.7581C58.8381 23.4701 58.7402 23.9786 58.5445 24.4872C58.3488 24.9957 57.9574 25.4026 57.3704 25.606V25.7077ZM56.7833 22.7581C56.7833 22.0462 56.6854 21.6393 56.3919 21.3342C56.0983 21.0291 55.7069 20.9274 55.1198 20.9274H54.4349V24.5889H55.1198C55.7069 24.5889 56.0983 24.3855 56.3919 24.0804C56.6854 23.8769 56.7833 23.3684 56.7833 22.7581ZM56.8811 28.6572C56.8811 27.9453 56.7833 27.4367 56.4897 27.1316C56.294 26.8265 55.8048 26.6231 55.2177 26.6231H54.4349V31.0982H55.3155C55.7069 31.0982 55.9026 30.9965 56.1962 30.8948C56.3919 30.7931 56.5876 30.5897 56.6854 30.3863C56.7833 30.1829 56.8811 29.8777 56.8811 29.5726C56.8811 29.3692 56.8811 29.0641 56.8811 28.6572Z" fill="#6B6776"/>
<path id="Vector_20" d="M69.9927 33.2341L69.4056 30.1829H66.8615C66.7637 30.6914 66.6658 31.2 66.568 31.7085C66.4701 32.217 66.3723 32.7256 66.2744 33.2341H64.0239C64.5132 30.7931 65.0024 28.3521 65.3938 26.0128C65.8831 23.5718 66.3723 21.2325 66.7637 18.7915H69.2099L72.0475 33.2341H69.9927ZM68.0357 22.1479C67.9379 23.165 67.7422 24.1821 67.6443 25.0974C67.4486 26.1145 67.3508 27.1316 67.1551 28.1487H69.112L68.2314 22.1479H68.0357Z" fill="#6B6776"/>
<path id="Vector_21" d="M84.1807 18.7915V31.2H85.0613V36.082H83.2022V33.3358H77.3313V18.7915H79.484V31.2H81.9302V18.7915H84.1807Z" fill="#6B6776"/>
<path id="Vector_22" d="M95.2376 24.1821L92.3021 33.2341H90.2473V18.7915H92.4V27.9453L95.3354 18.7915H97.4881V33.2341H95.3354L95.2376 24.1821Z" fill="#6B6776"/>
<path id="Vector_23" d="M102.87 33.2341L103.652 28.6572C103.75 28.1487 103.848 27.7419 104.142 27.335C104.337 26.9282 104.631 26.6231 105.022 26.4196C104.337 26.1145 103.946 25.7077 103.652 25.1991C103.457 24.5889 103.261 23.9786 103.261 23.165C103.261 21.7411 103.555 20.6223 104.24 19.9103C104.924 19.1983 105.805 18.7915 106.979 18.7915H110.208V33.2341H108.056V27.0299H107.469C107.077 27.0299 106.784 27.1316 106.392 27.4367C106.099 27.7419 105.805 28.2504 105.707 29.0641L105.022 33.1324H102.87V33.2341ZM107.175 20.9274C106.49 20.9274 106.099 21.1308 105.805 21.5376C105.512 21.9445 105.414 22.453 105.414 23.165C105.414 23.8769 105.609 24.3855 105.903 24.5889C106.196 24.894 106.686 24.9957 107.175 24.9957H108.056V20.9274H107.175Z" fill="#6B6776"/>
<path id="Vector_24" d="M120.287 30.0813L119.308 27.4369L118.428 24.8942H118.33V33.2343H116.177V18.7916H118.33L119.895 22.86L120.972 26.013H121.07L122.244 22.7583L123.712 18.6899H125.766V33.1326H123.614V24.7925H123.516L122.635 27.3352L121.657 29.9796H120.287V30.0813Z" fill="#6B6776"/>
</g>
<g id="Group_3">
<g id="Group_4">
<path id="Vector_25" d="M125.864 37.6069C95.6289 68.3229 35.1585 63.0341 13.2404 37.6069H0.71582C17.2522 55.8128 41.0294 62.729 60.9905 63.6443C63.0454 63.746 65.1002 63.746 67.0571 63.746C79.9732 63.5426 94.3569 60.5931 106.882 53.6769C114.024 49.812 120.58 44.5231 125.864 37.6069Z" fill="#EA2227"/>
<path id="Vector_26" d="M125.864 37.6069C125.864 37.7086 125.864 37.7086 125.864 37.6069C125.375 38.0138 124.886 38.3189 124.495 38.624C91.5196 61.5084 45.7264 57.0333 26.0589 37.6069H13.2407C35.1588 63.0341 95.6292 68.4246 125.864 37.6069Z" fill="#25A8E0"/>
<path id="Vector_27" d="M118.624 40.8616C103.653 46.8624 89.5626 49.5068 77.2336 49.6085C60.0123 49.7103 46.4113 44.93 39.1705 37.6069H28.3094H26.0588C45.6286 56.8299 90.9324 61.4067 123.81 39.0309C124.005 38.9291 124.299 38.7257 124.494 38.5223C124.984 38.2172 125.375 37.9121 125.864 37.6069C123.418 38.8274 120.972 39.8445 118.624 40.8616Z" fill="white"/>
<path id="Vector_28" d="M39.1704 37.6062C46.3134 44.7259 59.6208 49.5062 76.5486 49.5062C76.7443 49.5062 77.0378 49.5062 77.2335 49.5062C89.5625 49.4044 103.653 46.76 118.623 40.7592C120.972 39.7421 123.418 38.725 125.864 37.6062C120.58 44.4207 114.025 49.7096 106.784 53.6762C94.2592 60.5924 79.8755 63.5419 66.9594 63.7454C66.4702 63.7454 65.981 63.7454 65.4917 63.7454C64.024 63.7454 62.4584 63.7454 60.8928 63.6436C40.9317 62.7283 17.2524 55.8121 0.618112 37.6062H13.0449H25.863H28.1136H39.1704ZM39.1704 37.5045H28.3093H26.0587H13.2406H0.715961C0.618112 37.5045 0.618112 37.5045 0.520264 37.6062C0.520264 37.708 0.520264 37.708 0.520264 37.8097C8.34815 46.2515 18.0352 52.8625 29.4834 57.3377C39.0726 61.1009 50.0316 63.3385 60.8928 63.8471C62.4584 63.9488 63.9261 63.9488 65.4917 63.9488C65.981 63.9488 66.4702 63.9488 66.9594 63.9488C73.8088 63.8471 80.5604 63.0334 87.0184 61.4061C94.1613 59.677 100.815 57.1343 106.784 53.8796C114.416 49.6079 120.874 44.2173 125.864 37.708C125.864 37.708 125.864 37.708 125.864 37.6062C125.864 37.6062 125.864 37.6063 125.864 37.5045C125.864 37.5045 125.864 37.5045 125.864 37.4028C125.864 37.4028 125.864 37.4028 125.766 37.4028H125.669C123.32 38.5216 120.874 39.6404 118.428 40.5558C104.533 46.1498 90.2474 49.201 77.1357 49.3027C76.94 49.3027 76.6464 49.3027 76.4507 49.3027C60.3057 49.3027 46.8026 44.9293 39.2683 37.4028C39.2683 37.5045 39.2683 37.5045 39.1704 37.5045Z" fill="#CDCCCB"/>
</g>
</g>
</g>
</svg>
