<svg width="151" height="62" viewBox="0 0 151 62" fill="none" xmlns="http://www.w3.org/2000/svg">
<path d="M59.3478 48.209C59.24 48.228 59.1132 48.2407 58.9674 48.2471C58.828 48.2534 58.6948 48.2566 58.5681 48.2566C58.2701 48.2566 57.988 48.2059 57.7218 48.1044C57.4619 48.003 57.2337 47.8445 57.0372 47.629C56.847 47.4135 56.6949 47.1409 56.5808 46.8113C56.473 46.4753 56.4191 46.0791 56.4191 45.6227C56.4191 45.1917 56.473 44.8082 56.5808 44.4722C56.6949 44.1299 56.8534 43.8415 57.0562 43.6069C57.2654 43.3724 57.5126 43.1949 57.7979 43.0745C58.0831 42.9477 58.4001 42.8843 58.7487 42.8843C58.8311 42.8843 58.9325 42.8875 59.053 42.8938C59.1798 42.9001 59.278 42.9096 59.3478 42.9223V42.1046H60.1274V42.9508C60.2415 42.9191 60.3747 42.9001 60.5268 42.8938C60.6853 42.8875 60.8152 42.8843 60.9166 42.8843C61.2209 42.8843 61.503 42.9413 61.7629 43.0554C62.0228 43.1632 62.2478 43.328 62.438 43.5499C62.6345 43.7654 62.7866 44.0411 62.8944 44.3771C63.0022 44.7067 63.0561 45.0902 63.0561 45.5276C63.0561 45.9777 62.9927 46.3739 62.8659 46.7162C62.7454 47.0585 62.5806 47.3438 62.3714 47.572C62.1623 47.8002 61.9182 47.9713 61.6393 48.0854C61.3604 48.1995 61.0624 48.2566 60.7455 48.2566C60.6758 48.2566 60.5712 48.2534 60.4317 48.2471C60.2986 48.2344 60.1972 48.2154 60.1274 48.19V49.1409H59.3478V48.209ZM60.8025 43.5499C60.7138 43.5499 60.5997 43.553 60.4602 43.5594C60.3208 43.5657 60.2067 43.5847 60.1179 43.6164V47.5624C60.1813 47.5751 60.2637 47.5846 60.3652 47.591C60.4729 47.591 60.5775 47.591 60.6789 47.591C60.8945 47.591 61.0941 47.5498 61.278 47.4674C61.4681 47.385 61.633 47.2582 61.7724 47.087C61.9182 46.9159 62.0323 46.7003 62.1147 46.4404C62.1971 46.1806 62.2383 45.8763 62.2383 45.5276C62.2383 45.236 62.2035 44.9698 62.1337 44.7289C62.0703 44.4817 61.9753 44.2694 61.8485 44.0919C61.728 43.9144 61.5791 43.7812 61.4016 43.6925C61.2241 43.5974 61.0244 43.5499 60.8025 43.5499ZM58.7107 47.591C58.7424 47.591 58.7836 47.591 58.8343 47.591C58.8913 47.591 58.9516 47.591 59.015 47.591C59.0783 47.5846 59.1386 47.5783 59.1956 47.572C59.259 47.5593 59.3129 47.5466 59.3573 47.5339V43.5879C59.2812 43.5752 59.1861 43.5657 59.072 43.5594C58.9642 43.553 58.866 43.5499 58.7772 43.5499C58.5617 43.5499 58.3589 43.5942 58.1687 43.683C57.9849 43.7654 57.8232 43.8954 57.6838 44.0728C57.5443 44.244 57.4334 44.4595 57.351 44.7194C57.2749 44.9793 57.2369 45.2804 57.2369 45.6227C57.2369 45.927 57.2717 46.2027 57.3415 46.45C57.4112 46.6908 57.5094 46.8969 57.6362 47.068C57.7693 47.2392 57.9247 47.3691 58.1021 47.4579C58.286 47.5466 58.4888 47.591 58.7107 47.591ZM64.1046 44.5483C64.3455 44.4025 64.6244 44.2947 64.9413 44.225C65.2646 44.1552 65.6006 44.1204 65.9492 44.1204C66.2789 44.1204 66.5419 44.1648 66.7384 44.2535C66.9413 44.3422 67.0934 44.4595 67.1948 44.6053C67.3026 44.7448 67.3723 44.9001 67.404 45.0712C67.4421 45.2424 67.4611 45.4135 67.4611 45.5847C67.4611 45.965 67.4516 46.3359 67.4325 46.6972C67.4135 47.0585 67.404 47.4008 67.404 47.7241C67.404 47.9586 67.4135 48.1805 67.4325 48.3897C67.4516 48.5989 67.4864 48.7922 67.5371 48.9697H66.9761L66.7765 48.3041H66.7289C66.6719 48.3929 66.599 48.4816 66.5102 48.5703C66.4278 48.6528 66.3264 48.7288 66.206 48.7985C66.0855 48.8619 65.9461 48.9158 65.7876 48.9602C65.6291 49.0046 65.4484 49.0268 65.2456 49.0268C65.0428 49.0268 64.8526 48.9951 64.6751 48.9317C64.5039 48.8683 64.355 48.7795 64.2282 48.6654C64.1014 48.545 64 48.4024 63.9239 48.2375C63.8542 48.0727 63.8193 47.8857 63.8193 47.6765C63.8193 47.3976 63.8764 47.1663 63.9905 46.9824C64.1046 46.7923 64.2631 46.6433 64.4659 46.5355C64.6751 46.4214 64.9223 46.3422 65.2076 46.2978C65.4992 46.2471 65.8193 46.2218 66.1679 46.2218C66.2567 46.2218 66.3422 46.2218 66.4246 46.2218C66.5134 46.2218 66.6021 46.2281 66.6909 46.2408C66.7099 46.0506 66.7194 45.8794 66.7194 45.7273C66.7194 45.3787 66.6497 45.1346 66.5102 44.9952C66.3708 44.8557 66.1172 44.786 65.7495 44.786C65.6418 44.786 65.5245 44.7955 65.3977 44.8145C65.2773 44.8272 65.1505 44.8494 65.0174 44.8811C64.8906 44.9064 64.767 44.9413 64.6466 44.9857C64.5325 45.0237 64.431 45.0681 64.3423 45.1188L64.1046 44.5483ZM65.4548 48.3612C65.6323 48.3612 65.7907 48.339 65.9302 48.2946C66.0697 48.2439 66.1901 48.1837 66.2915 48.1139C66.393 48.0379 66.4754 47.9555 66.5387 47.8667C66.6085 47.778 66.6592 47.6924 66.6909 47.61V46.8208C66.6021 46.8144 66.5102 46.8113 66.4151 46.8113C66.3264 46.8049 66.2376 46.8018 66.1489 46.8018C65.9524 46.8018 65.7591 46.8144 65.5689 46.8398C65.3851 46.8588 65.2202 46.9 65.0744 46.9634C64.935 47.0205 64.8209 47.1029 64.7321 47.2106C64.6497 47.3121 64.6085 47.442 64.6085 47.6005C64.6085 47.8223 64.6878 48.0062 64.8462 48.152C65.0047 48.2914 65.2076 48.3612 65.4548 48.3612ZM68.8977 44.1965H69.4207L69.5633 44.767H69.6014C69.7472 44.5451 69.9342 44.3771 70.1624 44.263C70.3969 44.1426 70.6631 44.0824 70.9611 44.0824C71.595 44.0824 72.0672 44.2694 72.3778 44.6433C72.6884 45.0173 72.8438 45.6291 72.8438 46.4785C72.8438 46.8778 72.7899 47.2392 72.6821 47.5624C72.5807 47.8794 72.4349 48.1488 72.2447 48.3707C72.0545 48.5925 71.8232 48.7637 71.5506 48.8841C71.2844 49.0046 70.9864 49.0648 70.6568 49.0648C70.4223 49.0648 70.2353 49.0489 70.0958 49.0172C69.9627 48.9919 69.8169 48.9443 69.6584 48.8746V50.8524H68.8977V44.1965ZM70.8184 44.7479C70.4952 44.7479 70.2384 44.8335 70.0483 45.0047C69.8644 45.1695 69.7345 45.423 69.6584 45.7653V48.1234C69.7725 48.2122 69.9025 48.2819 70.0483 48.3326C70.1941 48.377 70.3874 48.3992 70.6283 48.3992C71.0657 48.3992 71.4111 48.2375 71.6647 47.9143C71.9246 47.5846 72.0545 47.1029 72.0545 46.469C72.0545 46.2091 72.0324 45.9745 71.988 45.7653C71.9436 45.5498 71.8707 45.3692 71.7693 45.2234C71.6742 45.0712 71.5474 44.954 71.389 44.8716C71.2368 44.7891 71.0467 44.7479 70.8184 44.7479ZM74.042 44.206C74.2638 44.1933 74.4952 44.1774 74.7361 44.1584C74.9833 44.1394 75.2876 44.1299 75.6489 44.1299C76.2765 44.1299 76.7265 44.2281 76.9991 44.4247C77.2717 44.6148 77.408 44.9064 77.408 45.2994C77.408 45.5213 77.3414 45.74 77.2083 45.9555C77.0815 46.1647 76.8691 46.32 76.5712 46.4214V46.4595C76.9452 46.5292 77.2083 46.6591 77.3604 46.8493C77.5126 47.0395 77.5886 47.293 77.5886 47.61C77.5886 48.1044 77.4111 48.4626 77.0561 48.6844C76.7012 48.9063 76.1687 49.0172 75.4587 49.0172C75.1925 49.0172 74.9453 49.0077 74.7171 48.9887C74.4889 48.976 74.2638 48.9602 74.042 48.9412V44.206ZM74.8026 48.3136C74.9231 48.3263 75.0404 48.3358 75.1545 48.3421C75.2749 48.3485 75.4144 48.3517 75.5728 48.3517C75.9975 48.3517 76.3113 48.2914 76.5142 48.171C76.7234 48.0505 76.8279 47.8445 76.8279 47.5529C76.8279 47.3247 76.7392 47.1409 76.5617 47.0014C76.3906 46.8557 76.0831 46.7828 75.6394 46.7828H74.8026V48.3136ZM75.7345 46.2027C75.8486 46.2027 75.9595 46.1837 76.0673 46.1457C76.175 46.1077 76.2701 46.0569 76.3525 45.9936C76.4413 45.9238 76.511 45.8446 76.5617 45.7558C76.6188 45.6671 76.6473 45.572 76.6473 45.4706C76.6473 45.217 76.5712 45.0427 76.4191 44.9476C76.2669 44.8462 76.0007 44.7955 75.6204 44.7955C75.4175 44.7955 75.2559 44.7987 75.1354 44.805C75.0213 44.8113 74.9104 44.8177 74.8026 44.824V46.2027H75.7345ZM78.7108 44.5483C78.9517 44.4025 79.2306 44.2947 79.5476 44.225C79.8709 44.1552 80.2068 44.1204 80.5555 44.1204C80.8851 44.1204 81.1482 44.1648 81.3447 44.2535C81.5475 44.3422 81.6997 44.4595 81.8011 44.6053C81.9089 44.7448 81.9786 44.9001 82.0103 45.0712C82.0483 45.2424 82.0673 45.4135 82.0673 45.5847C82.0673 45.965 82.0578 46.3359 82.0388 46.6972C82.0198 47.0585 82.0103 47.4008 82.0103 47.7241C82.0103 47.9586 82.0198 48.1805 82.0388 48.3897C82.0578 48.5989 82.0927 48.7922 82.1434 48.9697H81.5824L81.3827 48.3041H81.3352C81.2781 48.3929 81.2052 48.4816 81.1165 48.5703C81.0341 48.6528 80.9327 48.7288 80.8122 48.7985C80.6918 48.8619 80.5523 48.9158 80.3938 48.9602C80.2354 49.0046 80.0547 49.0268 79.8519 49.0268C79.649 49.0268 79.4588 48.9951 79.2814 48.9317C79.1102 48.8683 78.9612 48.7795 78.8345 48.6654C78.7077 48.545 78.6063 48.4024 78.5302 48.2375C78.4605 48.0727 78.4256 47.8857 78.4256 47.6765C78.4256 47.3976 78.4826 47.1663 78.5967 46.9824C78.7108 46.7923 78.8693 46.6433 79.0722 46.5355C79.2814 46.4214 79.5286 46.3422 79.8138 46.2978C80.1054 46.2471 80.4255 46.2218 80.7742 46.2218C80.8629 46.2218 80.9485 46.2218 81.0309 46.2218C81.1197 46.2218 81.2084 46.2281 81.2971 46.2408C81.3162 46.0506 81.3257 45.8794 81.3257 45.7273C81.3257 45.3787 81.2559 45.1346 81.1165 44.9952C80.977 44.8557 80.7235 44.786 80.3558 44.786C80.248 44.786 80.1308 44.7955 80.004 44.8145C79.8836 44.8272 79.7568 44.8494 79.6237 44.8811C79.4969 44.9064 79.3733 44.9413 79.2528 44.9857C79.1387 45.0237 79.0373 45.0681 78.9486 45.1188L78.7108 44.5483ZM80.061 48.3612C80.2385 48.3612 80.397 48.339 80.5365 48.2946C80.6759 48.2439 80.7964 48.1837 80.8978 48.1139C80.9992 48.0379 81.0816 47.9555 81.145 47.8667C81.2147 47.778 81.2655 47.6924 81.2971 47.61V46.8208C81.2084 46.8144 81.1165 46.8113 81.0214 46.8113C80.9327 46.8049 80.8439 46.8018 80.7552 46.8018C80.5587 46.8018 80.3653 46.8144 80.1751 46.8398C79.9913 46.8588 79.8265 46.9 79.6807 46.9634C79.5412 47.0205 79.4271 47.1029 79.3384 47.2106C79.256 47.3121 79.2148 47.442 79.2148 47.6005C79.2148 47.8223 79.294 48.0062 79.4525 48.152C79.611 48.2914 79.8138 48.3612 80.061 48.3612ZM86.5277 44.862H85.0444V48.9507H84.2837V44.862H82.8004V44.1965H86.5277V44.862ZM90.6053 48.5703C90.4151 48.7225 90.1742 48.8429 89.8826 48.9317C89.5974 49.0204 89.2931 49.0648 88.9698 49.0648C88.6085 49.0648 88.2947 49.0077 88.0285 48.8936C87.7622 48.7732 87.5435 48.6052 87.3724 48.3897C87.2012 48.1678 87.0745 47.9048 86.992 47.6005C86.9096 47.2962 86.8684 46.9539 86.8684 46.5736C86.8684 45.7622 87.0491 45.1441 87.4104 44.7194C87.7717 44.2947 88.2884 44.0824 88.9603 44.0824C89.1758 44.0824 89.3913 44.1077 89.6069 44.1584C89.8224 44.2028 90.0157 44.2915 90.1869 44.4247C90.358 44.5578 90.4975 44.7479 90.6053 44.9952C90.713 45.236 90.7669 45.5562 90.7669 45.9555C90.7669 46.1647 90.7479 46.3961 90.7099 46.6496H87.6576C87.6576 46.9286 87.6862 47.1758 87.7432 47.3913C87.8003 47.6068 87.889 47.7907 88.0095 47.9428C88.1299 48.0886 88.2852 48.2027 88.4754 48.2851C88.6719 48.3612 88.9096 48.3992 89.1885 48.3992C89.404 48.3992 89.6196 48.3612 89.8351 48.2851C90.0506 48.209 90.2122 48.1203 90.32 48.0189L90.6053 48.5703ZM88.9698 44.7479C88.5958 44.7479 88.2947 44.8462 88.0665 45.0427C87.8446 45.2392 87.7115 45.5752 87.6671 46.0506H90.0252C90.0252 45.5688 89.9333 45.2329 89.7495 45.0427C89.5657 44.8462 89.3058 44.7479 88.9698 44.7479ZM91.9632 44.1965H92.4862L92.6288 44.767H92.6668C92.8126 44.5451 92.9996 44.3771 93.2278 44.263C93.4624 44.1426 93.7286 44.0824 94.0265 44.0824C94.6604 44.0824 95.1327 44.2694 95.4433 44.6433C95.7539 45.0173 95.9092 45.6291 95.9092 46.4785C95.9092 46.8778 95.8553 47.2392 95.7476 47.5624C95.6461 47.8794 95.5003 48.1488 95.3102 48.3707C95.12 48.5925 94.8886 48.7637 94.616 48.8841C94.3498 49.0046 94.0519 49.0648 93.7223 49.0648C93.4877 49.0648 93.3007 49.0489 93.1613 49.0172C93.0281 48.9919 92.8823 48.9443 92.7239 48.8746V50.8524H91.9632V44.1965ZM93.8839 44.7479C93.5606 44.7479 93.3039 44.8335 93.1137 45.0047C92.9299 45.1695 92.7999 45.423 92.7239 45.7653V48.1234C92.838 48.2122 92.9679 48.2819 93.1137 48.3326C93.2595 48.377 93.4528 48.3992 93.6937 48.3992C94.1311 48.3992 94.4766 48.2375 94.7302 47.9143C94.99 47.5846 95.12 47.1029 95.12 46.469C95.12 46.2091 95.0978 45.9745 95.0534 45.7653C95.0091 45.5498 94.9362 45.3692 94.8347 45.2234C94.7397 45.0712 94.6129 44.954 94.4544 44.8716C94.3023 44.7891 94.1121 44.7479 93.8839 44.7479ZM101.04 47.2772L101.306 48.19H101.354L101.563 47.2677L102.485 44.1965H103.256L101.848 48.4658C101.741 48.7764 101.633 49.0775 101.525 49.3691C101.424 49.6606 101.31 49.9205 101.183 50.1487C101.056 50.377 100.913 50.5576 100.755 50.6907C100.596 50.8302 100.413 50.8999 100.203 50.8999C99.9752 50.8999 99.7882 50.8682 99.6424 50.8048L99.7755 50.1487C99.8579 50.1804 99.9372 50.1963 100.013 50.1963C100.191 50.1963 100.362 50.1012 100.527 49.911C100.691 49.7272 100.828 49.4071 100.936 48.9507L99.0243 44.1965H99.8991L101.04 47.2772ZM107.258 48.6369C107.068 48.7764 106.843 48.881 106.583 48.9507C106.323 49.0268 106.051 49.0648 105.765 49.0648C105.398 49.0648 105.087 49.0077 104.834 48.8936C104.58 48.7732 104.371 48.6052 104.206 48.3897C104.048 48.1678 103.93 47.9048 103.854 47.6005C103.785 47.2899 103.75 46.9476 103.75 46.5736C103.75 45.7685 103.927 45.1536 104.282 44.7289C104.637 44.2979 105.147 44.0824 105.813 44.0824C106.117 44.0824 106.374 44.1077 106.583 44.1584C106.799 44.2028 106.992 44.2694 107.163 44.3581L106.945 45.0142C106.799 44.9318 106.637 44.8684 106.46 44.824C106.282 44.7733 106.092 44.7479 105.889 44.7479C104.989 44.7479 104.539 45.3565 104.539 46.5736C104.539 46.8144 104.561 47.0458 104.605 47.2677C104.656 47.4832 104.735 47.6765 104.843 47.8477C104.957 48.0125 105.103 48.1456 105.281 48.2471C105.464 48.3485 105.689 48.3992 105.956 48.3992C106.184 48.3992 106.387 48.3643 106.564 48.2946C106.748 48.2249 106.897 48.1456 107.011 48.0569L107.258 48.6369ZM111.168 44.862H109.067V48.9507H108.306V44.1965H111.929V48.9507H111.168V44.862ZM116.865 48.5703C116.675 48.7225 116.434 48.8429 116.142 48.9317C115.857 49.0204 115.553 49.0648 115.23 49.0648C114.868 49.0648 114.554 49.0077 114.288 48.8936C114.022 48.7732 113.803 48.6052 113.632 48.3897C113.461 48.1678 113.334 47.9048 113.252 47.6005C113.169 47.2962 113.128 46.9539 113.128 46.5736C113.128 45.7622 113.309 45.1441 113.67 44.7194C114.031 44.2947 114.548 44.0824 115.22 44.0824C115.436 44.0824 115.651 44.1077 115.867 44.1584C116.082 44.2028 116.275 44.2915 116.447 44.4247C116.618 44.5578 116.757 44.7479 116.865 44.9952C116.973 45.236 117.027 45.5562 117.027 45.9555C117.027 46.1647 117.008 46.3961 116.97 46.6496H113.917C113.917 46.9286 113.946 47.1758 114.003 47.3913C114.06 47.6068 114.149 47.7907 114.269 47.9428C114.39 48.0886 114.545 48.2027 114.735 48.2851C114.932 48.3612 115.169 48.3992 115.448 48.3992C115.664 48.3992 115.879 48.3612 116.095 48.2851C116.31 48.209 116.472 48.1203 116.58 48.0189L116.865 48.5703ZM115.23 44.7479C114.856 44.7479 114.554 44.8462 114.326 45.0427C114.104 45.2392 113.971 45.5752 113.927 46.0506H116.285C116.285 45.5688 116.193 45.2329 116.009 45.0427C115.825 44.8462 115.565 44.7479 115.23 44.7479ZM118.223 48.9507V44.1965H118.984V48.2851H120.61V44.1965H121.37V48.2851H122.996V44.1965H123.757V48.9507H118.223ZM128.134 46.8493H125.985V48.9507H125.224V44.1965H125.985V46.1837H128.134V44.1965H128.895V48.9507H128.134V46.8493ZM130.093 46.5736C130.093 45.7685 130.27 45.1536 130.625 44.7289C130.987 44.2979 131.503 44.0824 132.175 44.0824C132.53 44.0824 132.838 44.1426 133.098 44.263C133.364 44.3771 133.583 44.5451 133.754 44.767C133.925 44.9825 134.052 45.2456 134.134 45.5562C134.216 45.8604 134.258 46.1996 134.258 46.5736C134.258 47.3786 134.077 47.9967 133.716 48.4277C133.361 48.8524 132.847 49.0648 132.175 49.0648C131.82 49.0648 131.51 49.0077 131.243 48.8936C130.984 48.7732 130.768 48.6052 130.597 48.3897C130.426 48.1678 130.299 47.9048 130.217 47.6005C130.134 47.2899 130.093 46.9476 130.093 46.5736ZM130.882 46.5736C130.882 46.8144 130.904 47.0458 130.949 47.2677C130.999 47.4895 131.075 47.6829 131.177 47.8477C131.278 48.0125 131.411 48.1456 131.576 48.2471C131.741 48.3485 131.941 48.3992 132.175 48.3992C133.037 48.4055 133.468 47.797 133.468 46.5736C133.468 46.3263 133.443 46.0918 133.392 45.8699C133.348 45.6481 133.275 45.4547 133.174 45.2899C133.072 45.1251 132.939 44.9952 132.774 44.9001C132.61 44.7987 132.41 44.7479 132.175 44.7479C131.313 44.7416 130.882 45.3501 130.882 46.5736ZM138.233 44.862H136.218V48.9507H135.457V44.1965H138.233V44.862ZM138.552 46.5736C138.552 45.7685 138.73 45.1536 139.085 44.7289C139.446 44.2979 139.963 44.0824 140.634 44.0824C140.989 44.0824 141.297 44.1426 141.557 44.263C141.823 44.3771 142.042 44.5451 142.213 44.767C142.384 44.9825 142.511 45.2456 142.593 45.5562C142.676 45.8604 142.717 46.1996 142.717 46.5736C142.717 47.3786 142.536 47.9967 142.175 48.4277C141.82 48.8524 141.306 49.0648 140.634 49.0648C140.28 49.0648 139.969 49.0077 139.703 48.8936C139.443 48.7732 139.227 48.6052 139.056 48.3897C138.885 48.1678 138.758 47.9048 138.676 47.6005C138.593 47.2899 138.552 46.9476 138.552 46.5736ZM139.341 46.5736C139.341 46.8144 139.364 47.0458 139.408 47.2677C139.459 47.4895 139.535 47.6829 139.636 47.8477C139.738 48.0125 139.871 48.1456 140.035 48.2471C140.2 48.3485 140.4 48.3992 140.634 48.3992C141.497 48.4055 141.928 47.797 141.928 46.5736C141.928 46.3263 141.902 46.0918 141.852 45.8699C141.807 45.6481 141.734 45.4547 141.633 45.2899C141.531 45.1251 141.398 44.9952 141.234 44.9001C141.069 44.7987 140.869 44.7479 140.634 44.7479C139.772 44.7416 139.341 45.3501 139.341 46.5736ZM56.7614 54.1965H57.2844L57.427 54.767H57.4651C57.6109 54.5451 57.7979 54.3771 58.0261 54.263C58.2606 54.1426 58.5269 54.0824 58.8248 54.0824C59.4587 54.0824 59.9309 54.2694 60.2415 54.6433C60.5522 55.0173 60.7075 55.6291 60.7075 56.4785C60.7075 56.8778 60.6536 57.2392 60.5458 57.5624C60.4444 57.8794 60.2986 58.1488 60.1084 58.3707C59.9183 58.5925 59.6869 58.7637 59.4143 58.8841C59.1481 59.0046 58.8501 59.0648 58.5205 59.0648C58.286 59.0648 58.099 59.0489 57.9595 59.0172C57.8264 58.9919 57.6806 58.9443 57.5221 58.8746V60.8524H56.7614V54.1965ZM58.6822 54.7479C58.3589 54.7479 58.1021 54.8335 57.912 55.0047C57.7281 55.1695 57.5982 55.423 57.5221 55.7653V58.1234C57.6362 58.2122 57.7662 58.2819 57.912 58.3326C58.0578 58.377 58.2511 58.3992 58.492 58.3992C58.9294 58.3992 59.2749 58.2375 59.5284 57.9143C59.7883 57.5846 59.9183 57.1029 59.9183 56.469C59.9183 56.2091 59.8961 55.9745 59.8517 55.7653C59.8073 55.5498 59.7344 55.3692 59.633 55.2234C59.5379 55.0712 59.4111 54.954 59.2527 54.8716C59.1005 54.7891 58.9104 54.7479 58.6822 54.7479ZM61.8296 54.5483C62.0705 54.4025 62.3494 54.2947 62.6664 54.225C62.9896 54.1552 63.3256 54.1204 63.6742 54.1204C64.0039 54.1204 64.2669 54.1648 64.4635 54.2535C64.6663 54.3422 64.8184 54.4595 64.9199 54.6053C65.0276 54.7448 65.0973 54.9001 65.129 55.0712C65.1671 55.2424 65.1861 55.4135 65.1861 55.5847C65.1861 55.965 65.1766 56.3359 65.1576 56.6972C65.1386 57.0585 65.129 57.4008 65.129 57.7241C65.129 57.9586 65.1386 58.1805 65.1576 58.3897C65.1766 58.5989 65.2115 58.7922 65.2622 58.9697H64.7012L64.5015 58.3041H64.4539C64.3969 58.3929 64.324 58.4816 64.2352 58.5703C64.1528 58.6528 64.0514 58.7288 63.931 58.7985C63.8105 58.8619 63.6711 58.9158 63.5126 58.9602C63.3541 59.0046 63.1735 59.0268 62.9706 59.0268C62.7678 59.0268 62.5776 58.9951 62.4001 58.9317C62.229 58.8683 62.08 58.7795 61.9532 58.6654C61.8264 58.545 61.725 58.4024 61.6489 58.2375C61.5792 58.0727 61.5444 57.8857 61.5444 57.6765C61.5444 57.3976 61.6014 57.1663 61.7155 56.9824C61.8296 56.7923 61.9881 56.6433 62.1909 56.5355C62.4001 56.4214 62.6473 56.3422 62.9326 56.2978C63.2242 56.2471 63.5443 56.2218 63.8929 56.2218C63.9817 56.2218 64.0673 56.2218 64.1497 56.2218C64.2384 56.2218 64.3272 56.2281 64.4159 56.2408C64.4349 56.0506 64.4444 55.8794 64.4444 55.7273C64.4444 55.3787 64.3747 55.1346 64.2352 54.9952C64.0958 54.8557 63.8422 54.786 63.4746 54.786C63.3668 54.786 63.2495 54.7955 63.1228 54.8145C63.0023 54.8272 62.8755 54.8494 62.7424 54.8811C62.6156 54.9064 62.492 54.9413 62.3716 54.9857C62.2575 55.0237 62.1561 55.0681 62.0673 55.1188L61.8296 54.5483ZM63.1798 58.3612C63.3573 58.3612 63.5158 58.339 63.6552 58.2946C63.7947 58.2439 63.9151 58.1837 64.0166 58.1139C64.118 58.0379 64.2004 57.9555 64.2638 57.8667C64.3335 57.778 64.3842 57.6924 64.4159 57.61V56.8208C64.3272 56.8144 64.2352 56.8113 64.1402 56.8113C64.0514 56.8049 63.9627 56.8018 63.8739 56.8018C63.6774 56.8018 63.4841 56.8144 63.2939 56.8398C63.1101 56.8588 62.9453 56.9 62.7995 56.9634C62.66 57.0205 62.5459 57.1029 62.4572 57.2106C62.3748 57.3121 62.3336 57.442 62.3336 57.6005C62.3336 57.8223 62.4128 58.0062 62.5713 58.152C62.7297 58.2914 62.9326 58.3612 63.1798 58.3612ZM67.0792 56.8303V56.2122H67.7448C67.8589 56.2122 67.9698 56.1932 68.0776 56.1552C68.1917 56.1172 68.2931 56.0664 68.3818 56.0031C68.4706 55.9333 68.5403 55.8541 68.591 55.7653C68.6481 55.6703 68.6766 55.572 68.6766 55.4706C68.6766 55.2234 68.591 55.049 68.4199 54.9476C68.2487 54.8462 67.992 54.7955 67.6497 54.7955C67.4025 54.7955 67.1743 54.8335 66.9651 54.9096C66.7622 54.9857 66.6037 55.0586 66.4896 55.1283L66.271 54.5388C66.4611 54.431 66.683 54.3359 66.9365 54.2535C67.1964 54.1711 67.5039 54.1299 67.8589 54.1299C68.9111 54.1299 69.4373 54.5197 69.4373 55.2994C69.4373 55.5213 69.3644 55.74 69.2186 55.9555C69.0791 56.1647 68.8763 56.3137 68.61 56.4024V56.4404C68.984 56.5102 69.2439 56.6433 69.3897 56.8398C69.5419 57.0363 69.6179 57.2962 69.6179 57.6195C69.6179 57.8223 69.5767 58.0093 69.4943 58.1805C69.4119 58.3517 69.2883 58.5006 69.1235 58.6274C68.9587 58.7542 68.7495 58.8556 68.4959 58.9317C68.2487 59.0014 67.9603 59.0363 67.6307 59.0363C67.3074 59.0363 67.038 59.0077 66.8224 58.9507C66.6133 58.8936 66.4231 58.8239 66.2519 58.7415L66.4706 58.1139C66.6164 58.1963 66.7907 58.2597 66.9936 58.3041C67.2028 58.3485 67.4278 58.3707 67.6687 58.3707C68.0554 58.3707 68.3501 58.3041 68.553 58.171C68.7558 58.0379 68.8573 57.835 68.8573 57.5624C68.8573 57.3342 68.7622 57.1568 68.572 57.03C68.3818 56.8969 68.0681 56.8303 67.6307 56.8303H67.0792ZM70.8199 54.206C71.0417 54.1933 71.2731 54.1774 71.514 54.1584C71.7612 54.1394 72.0655 54.1299 72.4268 54.1299C73.0543 54.1299 73.5044 54.2281 73.777 54.4247C74.0496 54.6148 74.1859 54.9064 74.1859 55.2994C74.1859 55.5213 74.1193 55.74 73.9862 55.9555C73.8594 56.1647 73.647 56.32 73.3491 56.4214V56.4595C73.7231 56.5292 73.9862 56.6591 74.1383 56.8493C74.2904 57.0395 74.3665 57.293 74.3665 57.61C74.3665 58.1044 74.189 58.4626 73.834 58.6844C73.4791 58.9063 72.9466 59.0172 72.2366 59.0172C71.9704 59.0172 71.7232 59.0077 71.495 58.9887C71.2668 58.976 71.0417 58.9602 70.8199 58.9412V54.206ZM71.5805 58.3136C71.701 58.3263 71.8182 58.3358 71.9323 58.3421C72.0528 58.3485 72.1922 58.3517 72.3507 58.3517C72.7754 58.3517 73.0892 58.2914 73.2921 58.171C73.5012 58.0505 73.6058 57.8445 73.6058 57.5529C73.6058 57.3247 73.5171 57.1409 73.3396 57.0014C73.1684 56.8557 72.861 56.7828 72.4173 56.7828H71.5805V58.3136ZM72.5124 56.2027C72.6265 56.2027 72.7374 56.1837 72.8452 56.1457C72.9529 56.1077 73.048 56.0569 73.1304 55.9936C73.2192 55.9238 73.2889 55.8446 73.3396 55.7558C73.3967 55.6671 73.4252 55.572 73.4252 55.4706C73.4252 55.217 73.3491 55.0427 73.197 54.9476C73.0448 54.8462 72.7786 54.7955 72.3983 54.7955C72.1954 54.7955 72.0338 54.7987 71.9133 54.805C71.7992 54.8113 71.6883 54.8177 71.5805 54.824V56.2027H72.5124ZM78.5314 56.1362L78.56 55.5467H78.5314L78.1416 56.1552L76.0022 58.9507H75.5648V54.1965H76.3255V57.0965L76.297 57.6575H76.335L76.7058 57.068L78.8452 54.1965H79.2921V58.9507H78.5314V56.1362ZM83.7792 54.862H82.2958V58.9507H81.5352V54.862H80.0518V54.1965H83.7792V54.862ZM87.5013 56.1362L87.5299 55.5467H87.5013L87.1115 56.1552L84.9721 58.9507H84.5347V54.1965H85.2954V57.0965L85.2669 57.6575H85.3049L85.6757 57.068L87.8151 54.1965H88.262V58.9507H87.5013V56.1362ZM92.093 56.9824L91.3608 57.0965L90.1057 58.9507H89.1834L90.3244 57.3247L90.7047 56.9729C90.3751 56.9222 90.093 56.7891 89.8585 56.5736C89.6303 56.358 89.5162 56.0664 89.5162 55.6988C89.5162 55.4135 89.5637 55.1695 89.6588 54.9666C89.7602 54.7638 89.9028 54.5958 90.0867 54.4627C90.2705 54.3296 90.4892 54.2345 90.7428 54.1774C90.9963 54.114 91.2816 54.0824 91.5985 54.0824C91.8331 54.0824 92.0518 54.0982 92.2546 54.1299C92.4575 54.1616 92.6571 54.1965 92.8536 54.2345V58.9507H92.093V56.9824ZM92.093 54.843C92.0106 54.8113 91.9186 54.7891 91.8172 54.7765C91.7158 54.7575 91.6271 54.7479 91.551 54.7479C91.1453 54.7479 90.8347 54.8208 90.6192 54.9666C90.41 55.1124 90.3054 55.3438 90.3054 55.6608C90.3054 55.946 90.4163 56.1679 90.6382 56.3263C90.8664 56.4785 91.1643 56.5546 91.532 56.5546C91.5383 56.5546 91.5478 56.5546 91.5605 56.5546C91.5732 56.5546 91.5985 56.5546 91.6366 56.5546C91.6746 56.5546 91.7285 56.5546 91.7982 56.5546C91.8679 56.5482 91.9662 56.5419 92.093 56.5355V54.843Z" fill="#A99EC2"/>
<path d="M0.53418 4.84473H32.4511L27.2624 36.3744H0.53418V4.84473Z" fill="url(#paint0_linear_109_1092)"/>
<path d="M129.273 4.41309L147.866 36.5865H110.681L129.273 4.41309Z" fill="url(#paint1_linear_109_1092)"/>
<path d="M18.0488 36.3748L31.9589 4.86334H40.737L54.6921 36.3748H45.4187L34.5248 9.22992H38.0361L27.1421 36.3748H18.0488ZM25.6566 30.2525L27.9524 23.6802H43.348L45.6438 30.2525H25.6566Z" fill="white"/>
<path d="M56.3816 36.3748V11.9759H64.9347V36.3748H56.3816ZM60.6582 9.27493C59.0976 9.27493 57.8372 8.83978 56.8768 7.96946C55.9165 7.09915 55.4363 6.01876 55.4363 4.72829C55.4363 3.43782 55.9165 2.35743 56.8768 1.48711C57.8372 0.616798 59.0976 0.181641 60.6582 0.181641C62.2188 0.181641 63.4792 0.601793 64.4396 1.4421C65.3999 2.25239 65.8801 3.30277 65.8801 4.59324C65.8801 5.94373 65.3999 7.06914 64.4396 7.96946C63.5092 8.83978 62.2488 9.27493 60.6582 9.27493Z" fill="white"/>
<path d="M66.843 30.3426V24.5355L80.9781 4.86334H90.2065L76.4765 24.5355L72.245 23.275H96.8689V30.3426H66.843ZM83.499 36.3748V30.3426L83.7691 23.275V17.9181H92.1872V36.3748H83.499Z" fill="white"/>
<path d="M115.318 37.005C112.828 37.005 110.517 36.6148 108.386 35.8346C106.255 35.0243 104.41 33.8839 102.849 32.4133C101.318 30.9428 100.118 29.2172 99.2476 27.2364C98.3773 25.2257 97.9422 23.0199 97.9422 20.619C97.9422 18.2182 98.3773 16.0274 99.2476 14.0467C100.118 12.0359 101.333 10.2953 102.894 8.82477C104.455 7.35424 106.3 6.22883 108.431 5.44855C110.592 4.63825 112.948 4.23311 115.499 4.23311C118.47 4.23311 121.126 4.72829 123.466 5.71864C124.85 6.30381 126.176 7.08668 127.276 7.97569L125.991 10.1528L123.297 14.8282C122.216 13.6577 121.351 13.0863 120.09 12.5161C118.86 11.9159 117.479 11.6158 115.949 11.6158C114.598 11.6158 113.368 11.8259 112.257 12.246C111.147 12.6662 110.202 13.2814 109.421 14.0917C108.641 14.872 108.026 15.8173 107.576 16.9277C107.156 18.0081 106.945 19.2385 106.945 20.619C106.945 21.9395 107.156 23.155 107.576 24.2654C108.026 25.3758 108.641 26.3361 109.421 27.1464C110.202 27.9267 111.132 28.5419 112.212 28.9921C113.323 29.4122 114.538 29.6223 115.859 29.6223C117.179 29.6223 118.47 29.4122 119.73 28.9921C120.991 28.5419 122.266 27.7916 123.556 26.7413L128.553 32.9985C126.753 34.289 124.667 35.2794 122.296 35.9696C119.925 36.6599 117.599 37.005 115.318 37.005ZM120.675 31.8281V19.9438H128.553V32.9985L120.675 31.8281Z" fill="white"/>
<defs>
<linearGradient id="paint0_linear_109_1092" x1="16.4926" y1="4.84473" x2="16.4926" y2="36.3744" gradientUnits="userSpaceOnUse">
<stop stop-color="#FF008A"/>
<stop offset="1" stop-color="#FA00FF"/>
</linearGradient>
<linearGradient id="paint1_linear_109_1092" x1="129.273" y1="4.41309" x2="129.273" y2="47.3109" gradientUnits="userSpaceOnUse">
<stop offset="0.317708" stop-color="#06EA6F"/>
<stop offset="1" stop-color="#0386FF"/>
</linearGradient>
</defs>
</svg>
