<svg width="313" height="63" viewBox="0 0 313 63" fill="none" xmlns="http://www.w3.org/2000/svg">
<g id="Group 194">
<g id="Group 46">
<path id="&#208;&#164;&#208;&#176;&#209;&#128;&#208;&#178;&#208;&#176;&#209;&#130;&#208;&#181;&#209;&#128; &#209;&#131;&#209;&#129;&#208;&#191;&#208;&#181;&#209;&#136;&#208;&#189;&#208;&#190;&#208;&#179;&#208;&#190; &#209;&#128;&#208;&#176;&#208;&#183;&#208;&#178;&#208;&#184;&#209;&#130;&#208;&#184;&#209;&#143;" d="M59.3409 49.6412C59.2332 49.6602 59.1064 49.6728 58.9606 49.6792C58.8211 49.6855 58.688 49.6887 58.5612 49.6887C58.2633 49.6887 57.9812 49.638 57.715 49.5366C57.4551 49.4351 57.2269 49.2767 57.0304 49.0611C56.8402 48.8456 56.6881 48.573 56.574 48.2434C56.4662 47.9074 56.4123 47.5113 56.4123 47.0549C56.4123 46.6238 56.4662 46.2403 56.574 45.9043C56.6881 45.562 56.8465 45.2736 57.0494 45.0391C57.2586 44.8045 57.5058 44.627 57.791 44.5066C58.0763 44.3798 58.3932 44.3164 58.7419 44.3164C58.8243 44.3164 58.9257 44.3196 59.0462 44.3259C59.1729 44.3323 59.2712 44.3418 59.3409 44.3544V43.5367H60.1206V44.383C60.2347 44.3513 60.3678 44.3323 60.52 44.3259C60.6784 44.3196 60.8084 44.3164 60.9098 44.3164C61.2141 44.3164 61.4962 44.3735 61.7561 44.4876C62.016 44.5953 62.241 44.7601 62.4312 44.982C62.6277 45.1975 62.7798 45.4733 62.8876 45.8092C62.9953 46.1389 63.0492 46.5224 63.0492 46.9598C63.0492 47.4098 62.9858 47.806 62.859 48.1483C62.7386 48.4906 62.5738 48.7759 62.3646 49.0041C62.1554 49.2323 61.9114 49.4034 61.6325 49.5175C61.3535 49.6316 61.0556 49.6887 60.7387 49.6887C60.6689 49.6887 60.5643 49.6855 60.4249 49.6792C60.2918 49.6665 60.1903 49.6475 60.1206 49.6221V50.573H59.3409V49.6412ZM60.7957 44.982C60.707 44.982 60.5929 44.9852 60.4534 44.9915C60.3139 44.9979 60.1998 45.0169 60.1111 45.0486V48.9946C60.1745 49.0073 60.2569 49.0168 60.3583 49.0231C60.4661 49.0231 60.5707 49.0231 60.6721 49.0231C60.8876 49.0231 61.0873 48.9819 61.2711 48.8995C61.4613 48.8171 61.6261 48.6903 61.7656 48.5192C61.9114 48.348 62.0255 48.1325 62.1079 47.8726C62.1903 47.6127 62.2315 47.3084 62.2315 46.9598C62.2315 46.6682 62.1966 46.4019 62.1269 46.1611C62.0635 45.9138 61.9684 45.7015 61.8416 45.524C61.7212 45.3465 61.5722 45.2134 61.3947 45.1246C61.2173 45.0295 61.0176 44.982 60.7957 44.982ZM58.7038 49.0231C58.7355 49.0231 58.7767 49.0231 58.8275 49.0231C58.8845 49.0231 58.9447 49.0231 59.0081 49.0231C59.0715 49.0168 59.1317 49.0104 59.1888 49.0041C59.2522 48.9914 59.3061 48.9787 59.3504 48.9661V45.02C59.2744 45.0074 59.1793 44.9979 59.0652 44.9915C58.9574 44.9852 58.8592 44.982 58.7704 44.982C58.5549 44.982 58.352 45.0264 58.1619 45.1151C57.978 45.1975 57.8164 45.3275 57.6769 45.505C57.5375 45.6761 57.4265 45.8916 57.3441 46.1515C57.2681 46.4114 57.23 46.7125 57.23 47.0549C57.23 47.3591 57.2649 47.6349 57.3346 47.8821C57.4044 48.123 57.5026 48.329 57.6294 48.5001C57.7625 48.6713 57.9178 48.8012 58.0953 48.89C58.2791 48.9787 58.482 49.0231 58.7038 49.0231ZM64.0977 45.9804C64.3386 45.8346 64.6175 45.7268 64.9345 45.6571C65.2578 45.5874 65.5937 45.5525 65.9424 45.5525C66.272 45.5525 66.5351 45.5969 66.7316 45.6856C66.9344 45.7744 67.0866 45.8916 67.188 46.0374C67.2958 46.1769 67.3655 46.3322 67.3972 46.5034C67.4352 46.6745 67.4542 46.8457 67.4542 47.0168C67.4542 47.3972 67.4447 47.768 67.4257 48.1293C67.4067 48.4906 67.3972 48.8329 67.3972 49.1562C67.3972 49.3908 67.4067 49.6126 67.4257 49.8218C67.4447 50.031 67.4796 50.2243 67.5303 50.4018H66.9693L66.7696 49.7362H66.7221C66.665 49.825 66.5921 49.9137 66.5034 50.0025C66.421 50.0849 66.3196 50.1609 66.1991 50.2307C66.0787 50.2941 65.9392 50.3479 65.7807 50.3923C65.6223 50.4367 65.4416 50.4589 65.2388 50.4589C65.0359 50.4589 64.8457 50.4272 64.6683 50.3638C64.4971 50.3004 64.3481 50.2117 64.2214 50.0976C64.0946 49.9771 63.9932 49.8345 63.9171 49.6697C63.8474 49.5049 63.8125 49.3179 63.8125 49.1087C63.8125 48.8298 63.8695 48.5984 63.9836 48.4146C64.0977 48.2244 64.2562 48.0754 64.4591 47.9677C64.6683 47.8536 64.9155 47.7743 65.2007 47.73C65.4923 47.6792 65.8124 47.6539 66.1611 47.6539C66.2498 47.6539 66.3354 47.6539 66.4178 47.6539C66.5066 47.6539 66.5953 47.6602 66.684 47.6729C66.7031 47.4827 66.7126 47.3116 66.7126 47.1594C66.7126 46.8108 66.6428 46.5667 66.5034 46.4273C66.3639 46.2878 66.1104 46.2181 65.7427 46.2181C65.6349 46.2181 65.5177 46.2276 65.3909 46.2466C65.2705 46.2593 65.1437 46.2815 65.0106 46.3132C64.8838 46.3385 64.7602 46.3734 64.6397 46.4178C64.5256 46.4558 64.4242 46.5002 64.3355 46.5509L64.0977 45.9804ZM65.4479 49.7933C65.6254 49.7933 65.7839 49.7711 65.9234 49.7267C66.0628 49.676 66.1833 49.6158 66.2847 49.5461C66.3861 49.47 66.4685 49.3876 66.5319 49.2988C66.6016 49.2101 66.6524 49.1245 66.684 49.0421V48.2529C66.5953 48.2466 66.5034 48.2434 66.4083 48.2434C66.3196 48.2371 66.2308 48.2339 66.1421 48.2339C65.9456 48.2339 65.7522 48.2466 65.562 48.2719C65.3782 48.291 65.2134 48.3322 65.0676 48.3955C64.9282 48.4526 64.8141 48.535 64.7253 48.6428C64.6429 48.7442 64.6017 48.8741 64.6017 49.0326C64.6017 49.2545 64.6809 49.4383 64.8394 49.5841C64.9979 49.7236 65.2007 49.7933 65.4479 49.7933ZM68.8909 45.6286H69.4139L69.5565 46.1991H69.5945C69.7403 45.9772 69.9273 45.8092 70.1555 45.6951C70.3901 45.5747 70.6563 45.5145 70.9542 45.5145C71.5881 45.5145 72.0604 45.7015 72.371 46.0755C72.6816 46.4495 72.8369 47.0612 72.8369 47.9106C72.8369 48.31 72.783 48.6713 72.6753 48.9946C72.5738 49.3115 72.4281 49.5809 72.2379 49.8028C72.0477 50.0247 71.8163 50.1958 71.5438 50.3163C71.2775 50.4367 70.9796 50.4969 70.65 50.4969C70.4154 50.4969 70.2284 50.4811 70.089 50.4494C69.9559 50.424 69.8101 50.3765 69.6516 50.3067V52.2845H68.8909V45.6286ZM70.8116 46.1801C70.4883 46.1801 70.2316 46.2656 70.0414 46.4368C69.8576 46.6016 69.7276 46.8552 69.6516 47.1975V49.5556C69.7657 49.6443 69.8956 49.7141 70.0414 49.7648C70.1872 49.8091 70.3806 49.8313 70.6214 49.8313C71.0588 49.8313 71.4043 49.6697 71.6579 49.3464C71.9178 49.0168 72.0477 48.535 72.0477 47.9011C72.0477 47.6412 72.0255 47.4067 71.9812 47.1975C71.9368 46.982 71.8639 46.8013 71.7625 46.6555C71.6674 46.5034 71.5406 46.3861 71.3821 46.3037C71.23 46.2213 71.0398 46.1801 70.8116 46.1801ZM74.0351 45.6381C74.257 45.6254 74.4884 45.6096 74.7292 45.5905C74.9765 45.5715 75.2807 45.562 75.6421 45.562C76.2696 45.562 76.7197 45.6603 76.9923 45.8568C77.2648 46.047 77.4011 46.3385 77.4011 46.7316C77.4011 46.9534 77.3346 47.1721 77.2014 47.3876C77.0747 47.5968 76.8623 47.7521 76.5644 47.8536V47.8916C76.9384 47.9613 77.2014 48.0913 77.3536 48.2814C77.5057 48.4716 77.5818 48.7252 77.5818 49.0421C77.5818 49.5366 77.4043 49.8947 77.0493 50.1166C76.6943 50.3384 76.1619 50.4494 75.4519 50.4494C75.1857 50.4494 74.9384 50.4399 74.7102 50.4208C74.482 50.4082 74.257 50.3923 74.0351 50.3733V45.6381ZM74.7958 49.7457C74.9162 49.7584 75.0335 49.7679 75.1476 49.7743C75.2681 49.7806 75.4075 49.7838 75.566 49.7838C75.9907 49.7838 76.3045 49.7236 76.5073 49.6031C76.7165 49.4827 76.8211 49.2767 76.8211 48.9851C76.8211 48.7569 76.7324 48.573 76.5549 48.4336C76.3837 48.2878 76.0763 48.2149 75.6326 48.2149H74.7958V49.7457ZM75.7276 47.6349C75.8417 47.6349 75.9527 47.6158 76.0604 47.5778C76.1682 47.5398 76.2633 47.4891 76.3457 47.4257C76.4344 47.356 76.5042 47.2767 76.5549 47.188C76.6119 47.0992 76.6404 47.0041 76.6404 46.9027C76.6404 46.6492 76.5644 46.4748 76.4122 46.3797C76.2601 46.2783 75.9939 46.2276 75.6135 46.2276C75.4107 46.2276 75.249 46.2308 75.1286 46.2371C75.0145 46.2435 74.9036 46.2498 74.7958 46.2561V47.6349H75.7276ZM78.704 45.9804C78.9449 45.8346 79.2238 45.7268 79.5408 45.6571C79.864 45.5874 80.2 45.5525 80.5486 45.5525C80.8783 45.5525 81.1413 45.5969 81.3379 45.6856C81.5407 45.7744 81.6928 45.8916 81.7943 46.0374C81.902 46.1769 81.9717 46.3322 82.0034 46.5034C82.0415 46.6745 82.0605 46.8457 82.0605 47.0168C82.0605 47.3972 82.051 47.768 82.032 48.1293C82.013 48.4906 82.0034 48.8329 82.0034 49.1562C82.0034 49.3908 82.013 49.6126 82.032 49.8218C82.051 50.031 82.0859 50.2243 82.1366 50.4018H81.5756L81.3759 49.7362H81.3283C81.2713 49.825 81.1984 49.9137 81.1096 50.0025C81.0272 50.0849 80.9258 50.1609 80.8054 50.2307C80.6849 50.2941 80.5455 50.3479 80.387 50.3923C80.2285 50.4367 80.0479 50.4589 79.845 50.4589C79.6422 50.4589 79.452 50.4272 79.2745 50.3638C79.1034 50.3004 78.9544 50.2117 78.8276 50.0976C78.7008 49.9771 78.5994 49.8345 78.5233 49.6697C78.4536 49.5049 78.4188 49.3179 78.4188 49.1087C78.4188 48.8298 78.4758 48.5984 78.5899 48.4146C78.704 48.2244 78.8625 48.0754 79.0653 47.9677C79.2745 47.8536 79.5217 47.7743 79.807 47.73C80.0986 47.6792 80.4187 47.6539 80.7673 47.6539C80.8561 47.6539 80.9417 47.6539 81.0241 47.6539C81.1128 47.6539 81.2016 47.6602 81.2903 47.6729C81.3093 47.4827 81.3188 47.3116 81.3188 47.1594C81.3188 46.8108 81.2491 46.5667 81.1096 46.4273C80.9702 46.2878 80.7166 46.2181 80.349 46.2181C80.2412 46.2181 80.1239 46.2276 79.9972 46.2466C79.8767 46.2593 79.7499 46.2815 79.6168 46.3132C79.49 46.3385 79.3664 46.3734 79.246 46.4178C79.1319 46.4558 79.0305 46.5002 78.9417 46.5509L78.704 45.9804ZM80.0542 49.7933C80.2317 49.7933 80.3902 49.7711 80.5296 49.7267C80.6691 49.676 80.7895 49.6158 80.891 49.5461C80.9924 49.47 81.0748 49.3876 81.1382 49.2988C81.2079 49.2101 81.2586 49.1245 81.2903 49.0421V48.2529C81.2016 48.2466 81.1096 48.2434 81.0146 48.2434C80.9258 48.2371 80.8371 48.2339 80.7483 48.2339C80.5518 48.2339 80.3585 48.2466 80.1683 48.2719C79.9845 48.291 79.8197 48.3322 79.6739 48.3955C79.5344 48.4526 79.4203 48.535 79.3316 48.6428C79.2492 48.7442 79.208 48.8741 79.208 49.0326C79.208 49.2545 79.2872 49.4383 79.4457 49.5841C79.6041 49.7236 79.807 49.7933 80.0542 49.7933ZM86.5209 46.2942H85.0375V50.3828H84.2769V46.2942H82.7935V45.6286H86.5209V46.2942ZM90.5984 50.0025C90.4083 50.1546 90.1674 50.275 89.8758 50.3638C89.5905 50.4525 89.2863 50.4969 88.963 50.4969C88.6017 50.4969 88.2879 50.4399 88.0216 50.3258C87.7554 50.2053 87.5367 50.0373 87.3656 49.8218C87.1944 49.5999 87.0676 49.3369 86.9852 49.0326C86.9028 48.7283 86.8616 48.386 86.8616 48.0057C86.8616 47.1943 87.0423 46.5763 87.4036 46.1515C87.7649 45.7268 88.2815 45.5145 88.9535 45.5145C89.169 45.5145 89.3845 45.5398 89.6 45.5905C89.8156 45.6349 90.0089 45.7237 90.1801 45.8568C90.3512 45.9899 90.4907 46.1801 90.5984 46.4273C90.7062 46.6682 90.7601 46.9883 90.7601 47.3876C90.7601 47.5968 90.7411 47.8282 90.703 48.0818H87.6508C87.6508 48.3607 87.6793 48.6079 87.7364 48.8234C87.7934 49.0389 87.8822 49.2228 88.0026 49.3749C88.1231 49.5207 88.2784 49.6348 88.4685 49.7172C88.665 49.7933 88.9028 49.8313 89.1817 49.8313C89.3972 49.8313 89.6127 49.7933 89.8282 49.7172C90.0438 49.6412 90.2054 49.5524 90.3132 49.451L90.5984 50.0025ZM88.963 46.1801C88.589 46.1801 88.2879 46.2783 88.0597 46.4748C87.8378 46.6713 87.7047 47.0073 87.6603 47.4827H90.0184C90.0184 47.001 89.9265 46.665 89.7427 46.4748C89.5588 46.2783 89.2989 46.1801 88.963 46.1801ZM91.9564 45.6286H92.4793L92.6219 46.1991H92.66C92.8058 45.9772 92.9928 45.8092 93.221 45.6951C93.4555 45.5747 93.7218 45.5145 94.0197 45.5145C94.6536 45.5145 95.1258 45.7015 95.4365 46.0755C95.7471 46.4495 95.9024 47.0612 95.9024 47.9106C95.9024 48.31 95.8485 48.6713 95.7407 48.9946C95.6393 49.3115 95.4935 49.5809 95.3033 49.8028C95.1132 50.0247 94.8818 50.1958 94.6092 50.3163C94.343 50.4367 94.045 50.4969 93.7154 50.4969C93.4809 50.4969 93.2939 50.4811 93.1544 50.4494C93.0213 50.424 92.8755 50.3765 92.717 50.3067V52.2845H91.9564V45.6286ZM93.8771 46.1801C93.5538 46.1801 93.297 46.2656 93.1069 46.4368C92.923 46.6016 92.7931 46.8552 92.717 47.1975V49.5556C92.8311 49.6443 92.9611 49.7141 93.1069 49.7648C93.2527 49.8091 93.446 49.8313 93.6869 49.8313C94.1243 49.8313 94.4698 49.6697 94.7233 49.3464C94.9832 49.0168 95.1132 48.535 95.1132 47.9011C95.1132 47.6412 95.091 47.4067 95.0466 47.1975C95.0022 46.982 94.9293 46.8013 94.8279 46.6555C94.7328 46.5034 94.606 46.3861 94.4476 46.3037C94.2954 46.2213 94.1053 46.1801 93.8771 46.1801ZM101.033 48.7093L101.3 49.6221H101.347L101.556 48.6998L102.479 45.6286H103.249L101.842 49.8979C101.734 50.2085 101.626 50.5096 101.518 50.8012C101.417 51.0928 101.303 51.3527 101.176 51.5809C101.049 51.8091 100.907 51.9897 100.748 52.1229C100.59 52.2623 100.406 52.332 100.197 52.332C99.9683 52.332 99.7813 52.3004 99.6356 52.237L99.7687 51.5809C99.8511 51.6126 99.9303 51.6284 100.006 51.6284C100.184 51.6284 100.355 51.5333 100.52 51.3432C100.685 51.1593 100.821 50.8392 100.929 50.3828L99.0175 45.6286H99.8923L101.033 48.7093ZM107.251 50.069C107.061 50.2085 106.836 50.3131 106.576 50.3828C106.316 50.4589 106.044 50.4969 105.759 50.4969C105.391 50.4969 105.08 50.4399 104.827 50.3258C104.573 50.2053 104.364 50.0373 104.199 49.8218C104.041 49.5999 103.923 49.3369 103.847 49.0326C103.778 48.722 103.743 48.3797 103.743 48.0057C103.743 47.2006 103.92 46.5858 104.275 46.1611C104.63 45.73 105.141 45.5145 105.806 45.5145C106.11 45.5145 106.367 45.5398 106.576 45.5905C106.792 45.6349 106.985 45.7015 107.156 45.7902L106.938 46.4463C106.792 46.3639 106.63 46.3005 106.453 46.2561C106.275 46.2054 106.085 46.1801 105.882 46.1801C104.982 46.1801 104.532 46.7886 104.532 48.0057C104.532 48.2466 104.554 48.478 104.599 48.6998C104.649 48.9153 104.729 49.1087 104.836 49.2798C104.95 49.4446 105.096 49.5778 105.274 49.6792C105.458 49.7806 105.683 49.8313 105.949 49.8313C106.177 49.8313 106.38 49.7965 106.557 49.7267C106.741 49.657 106.89 49.5778 107.004 49.489L107.251 50.069ZM111.161 46.2942H109.06V50.3828H108.299V45.6286H111.922V50.3828H111.161V46.2942ZM116.858 50.0025C116.668 50.1546 116.427 50.275 116.135 50.3638C115.85 50.4525 115.546 50.4969 115.223 50.4969C114.861 50.4969 114.548 50.4399 114.281 50.3258C114.015 50.2053 113.796 50.0373 113.625 49.8218C113.454 49.5999 113.327 49.3369 113.245 49.0326C113.163 48.7283 113.121 48.386 113.121 48.0057C113.121 47.1943 113.302 46.5763 113.663 46.1515C114.025 45.7268 114.541 45.5145 115.213 45.5145C115.429 45.5145 115.644 45.5398 115.86 45.5905C116.075 45.6349 116.269 45.7237 116.44 45.8568C116.611 45.9899 116.75 46.1801 116.858 46.4273C116.966 46.6682 117.02 46.9883 117.02 47.3876C117.02 47.5968 117.001 47.8282 116.963 48.0818H113.911C113.911 48.3607 113.939 48.6079 113.996 48.8234C114.053 49.0389 114.142 49.2228 114.262 49.3749C114.383 49.5207 114.538 49.6348 114.728 49.7172C114.925 49.7933 115.162 49.8313 115.441 49.8313C115.657 49.8313 115.872 49.7933 116.088 49.7172C116.303 49.6412 116.465 49.5524 116.573 49.451L116.858 50.0025ZM115.223 46.1801C114.849 46.1801 114.548 46.2783 114.319 46.4748C114.098 46.6713 113.964 47.0073 113.92 47.4827H116.278C116.278 47.001 116.186 46.665 116.002 46.4748C115.819 46.2783 115.559 46.1801 115.223 46.1801ZM118.216 50.3828V45.6286H118.977V49.7172H120.603V45.6286H121.363V49.7172H122.989V45.6286H123.75V50.3828H118.216ZM128.127 48.2814H125.978V50.3828H125.217V45.6286H125.978V47.6158H128.127V45.6286H128.888V50.3828H128.127V48.2814ZM130.086 48.0057C130.086 47.2006 130.264 46.5858 130.619 46.1611C130.98 45.73 131.497 45.5145 132.168 45.5145C132.523 45.5145 132.831 45.5747 133.091 45.6951C133.357 45.8092 133.576 45.9772 133.747 46.1991C133.918 46.4146 134.045 46.6777 134.127 46.9883C134.21 47.2926 134.251 47.6317 134.251 48.0057C134.251 48.8107 134.07 49.4288 133.709 49.8598C133.354 50.2846 132.84 50.4969 132.168 50.4969C131.813 50.4969 131.503 50.4399 131.237 50.3258C130.977 50.2053 130.761 50.0373 130.59 49.8218C130.419 49.5999 130.292 49.3369 130.21 49.0326C130.127 48.722 130.086 48.3797 130.086 48.0057ZM130.875 48.0057C130.875 48.2466 130.897 48.478 130.942 48.6998C130.993 48.9217 131.069 49.115 131.17 49.2798C131.271 49.4446 131.405 49.5778 131.569 49.6792C131.734 49.7806 131.934 49.8313 132.168 49.8313C133.031 49.8377 133.462 49.2291 133.462 48.0057C133.462 47.7585 133.436 47.5239 133.386 47.3021C133.341 47.0802 133.268 46.8869 133.167 46.7221C133.065 46.5572 132.932 46.4273 132.767 46.3322C132.603 46.2308 132.403 46.1801 132.168 46.1801C131.306 46.1737 130.875 46.7823 130.875 48.0057ZM138.227 46.2942H136.211V50.3828H135.45V45.6286H138.227V46.2942ZM138.545 48.0057C138.545 47.2006 138.723 46.5858 139.078 46.1611C139.439 45.73 139.956 45.5145 140.628 45.5145C140.983 45.5145 141.29 45.5747 141.55 45.6951C141.816 45.8092 142.035 45.9772 142.206 46.1991C142.377 46.4146 142.504 46.6777 142.586 46.9883C142.669 47.2926 142.71 47.6317 142.71 48.0057C142.71 48.8107 142.529 49.4288 142.168 49.8598C141.813 50.2846 141.3 50.4969 140.628 50.4969C140.273 50.4969 139.962 50.4399 139.696 50.3258C139.436 50.2053 139.22 50.0373 139.049 49.8218C138.878 49.5999 138.751 49.3369 138.669 49.0326C138.587 48.722 138.545 48.3797 138.545 48.0057ZM139.335 48.0057C139.335 48.2466 139.357 48.478 139.401 48.6998C139.452 48.9217 139.528 49.115 139.629 49.2798C139.731 49.4446 139.864 49.5778 140.029 49.6792C140.193 49.7806 140.393 49.8313 140.628 49.8313C141.49 49.8377 141.921 49.2291 141.921 48.0057C141.921 47.7585 141.895 47.5239 141.845 47.3021C141.8 47.0802 141.727 46.8869 141.626 46.7221C141.525 46.5572 141.391 46.4273 141.227 46.3322C141.062 46.2308 140.862 46.1801 140.628 46.1801C139.766 46.1737 139.335 46.7823 139.335 48.0057ZM56.7546 55.6286H57.2776L57.4202 56.1991H57.4582C57.604 55.9772 57.791 55.8092 58.0192 55.6951C58.2538 55.5747 58.52 55.5145 58.8179 55.5145C59.4518 55.5145 59.9241 55.7015 60.2347 56.0755C60.5453 56.4495 60.7006 57.0612 60.7006 57.9106C60.7006 58.31 60.6467 58.6713 60.539 58.9946C60.4376 59.3115 60.2918 59.5809 60.1016 59.8028C59.9114 60.0247 59.68 60.1958 59.4075 60.3163C59.1412 60.4367 58.8433 60.4969 58.5137 60.4969C58.2791 60.4969 58.0921 60.4811 57.9527 60.4494C57.8196 60.424 57.6738 60.3765 57.5153 60.3067V62.2845H56.7546V55.6286ZM58.6753 56.1801C58.352 56.1801 58.0953 56.2656 57.9051 56.4368C57.7213 56.6016 57.5914 56.8552 57.5153 57.1975V59.5556C57.6294 59.6443 57.7593 59.7141 57.9051 59.7648C58.0509 59.8091 58.2443 59.8313 58.4852 59.8313C58.9225 59.8313 59.268 59.6697 59.5216 59.3464C59.7815 59.0168 59.9114 58.535 59.9114 57.9011C59.9114 57.6412 59.8892 57.4067 59.8449 57.1975C59.8005 56.982 59.7276 56.8013 59.6262 56.6555C59.5311 56.5034 59.4043 56.3861 59.2458 56.3037C59.0937 56.2213 58.9035 56.1801 58.6753 56.1801ZM61.8228 55.9804C62.0637 55.8346 62.3426 55.7268 62.6595 55.6571C62.9828 55.5874 63.3188 55.5525 63.6674 55.5525C63.997 55.5525 64.2601 55.5969 64.4566 55.6856C64.6595 55.7744 64.8116 55.8916 64.913 56.0374C65.0208 56.1769 65.0905 56.3322 65.1222 56.5034C65.1602 56.6745 65.1793 56.8457 65.1793 57.0168C65.1793 57.3972 65.1698 57.768 65.1507 58.1293C65.1317 58.4906 65.1222 58.8329 65.1222 59.1562C65.1222 59.3908 65.1317 59.6126 65.1507 59.8218C65.1698 60.031 65.2046 60.2243 65.2553 60.4018H64.6943L64.4947 59.7362H64.4471C64.3901 59.825 64.3172 59.9137 64.2284 60.0025C64.146 60.0849 64.0446 60.1609 63.9241 60.2307C63.8037 60.2941 63.6642 60.3479 63.5058 60.3923C63.3473 60.4367 63.1666 60.4589 62.9638 60.4589C62.7609 60.4589 62.5708 60.4272 62.3933 60.3638C62.2221 60.3004 62.0732 60.2117 61.9464 60.0976C61.8196 59.9771 61.7182 59.8345 61.6421 59.6697C61.5724 59.5049 61.5375 59.3179 61.5375 59.1087C61.5375 58.8298 61.5946 58.5984 61.7087 58.4146C61.8228 58.2244 61.9812 58.0754 62.1841 57.9677C62.3933 57.8536 62.6405 57.7743 62.9258 57.73C63.2173 57.6792 63.5375 57.6539 63.8861 57.6539C63.9749 57.6539 64.0604 57.6539 64.1428 57.6539C64.2316 57.6539 64.3203 57.6602 64.4091 57.6729C64.4281 57.4827 64.4376 57.3116 64.4376 57.1594C64.4376 56.8108 64.3679 56.5667 64.2284 56.4273C64.089 56.2878 63.8354 56.2181 63.4677 56.2181C63.36 56.2181 63.2427 56.2276 63.1159 56.2466C62.9955 56.2593 62.8687 56.2815 62.7356 56.3132C62.6088 56.3385 62.4852 56.3734 62.3648 56.4178C62.2507 56.4558 62.1492 56.5002 62.0605 56.5509L61.8228 55.9804ZM63.173 59.7933C63.3505 59.7933 63.5089 59.7711 63.6484 59.7267C63.7879 59.676 63.9083 59.6158 64.0097 59.5461C64.1111 59.47 64.1935 59.3876 64.2569 59.2988C64.3267 59.2101 64.3774 59.1245 64.4091 59.0421V58.2529C64.3203 58.2466 64.2284 58.2434 64.1333 58.2434C64.0446 58.2371 63.9558 58.2339 63.8671 58.2339C63.6706 58.2339 63.4772 58.2466 63.2871 58.2719C63.1032 58.291 62.9384 58.3322 62.7926 58.3955C62.6532 58.4526 62.5391 58.535 62.4503 58.6428C62.3679 58.7442 62.3267 58.8741 62.3267 59.0326C62.3267 59.2545 62.406 59.4383 62.5644 59.5841C62.7229 59.7236 62.9258 59.7933 63.173 59.7933ZM67.0723 58.2624V57.6444H67.7379C67.852 57.6444 67.963 57.6254 68.0707 57.5873C68.1848 57.5493 68.2862 57.4986 68.375 57.4352C68.4637 57.3655 68.5335 57.2862 68.5842 57.1975C68.6412 57.1024 68.6698 57.0041 68.6698 56.9027C68.6698 56.6555 68.5842 56.4812 68.413 56.3797C68.2419 56.2783 67.9851 56.2276 67.6428 56.2276C67.3956 56.2276 67.1674 56.2656 66.9582 56.3417C66.7554 56.4178 66.5969 56.4907 66.4828 56.5604L66.2641 55.9709C66.4543 55.8631 66.6761 55.768 66.9297 55.6856C67.1896 55.6032 67.497 55.562 67.852 55.562C68.9043 55.562 69.4304 55.9519 69.4304 56.7316C69.4304 56.9534 69.3575 57.1721 69.2117 57.3876C69.0723 57.5968 68.8694 57.7458 68.6032 57.8345V57.8726C68.9772 57.9423 69.2371 58.0754 69.3829 58.2719C69.535 58.4684 69.6111 58.7283 69.6111 59.0516C69.6111 59.2545 69.5699 59.4415 69.4875 59.6126C69.4051 59.7838 69.2815 59.9327 69.1167 60.0595C68.9518 60.1863 68.7427 60.2877 68.4891 60.3638C68.2419 60.4335 67.9535 60.4684 67.6238 60.4684C67.3005 60.4684 67.0311 60.4399 66.8156 60.3828C66.6064 60.3258 66.4163 60.256 66.2451 60.1736L66.4638 59.5461C66.6096 59.6285 66.7839 59.6919 66.9868 59.7362C67.1959 59.7806 67.421 59.8028 67.6619 59.8028C68.0485 59.8028 68.3433 59.7362 68.5461 59.6031C68.749 59.47 68.8504 59.2672 68.8504 58.9946C68.8504 58.7664 68.7553 58.5889 68.5652 58.4621C68.375 58.329 68.0612 58.2624 67.6238 58.2624H67.0723ZM70.813 55.6381C71.0349 55.6254 71.2663 55.6096 71.5071 55.5905C71.7544 55.5715 72.0586 55.562 72.42 55.562C73.0475 55.562 73.4976 55.6603 73.7702 55.8568C74.0427 56.047 74.179 56.3385 74.179 56.7316C74.179 56.9534 74.1125 57.1721 73.9793 57.3876C73.8526 57.5968 73.6402 57.7521 73.3423 57.8536V57.8916C73.7163 57.9613 73.9793 58.0913 74.1315 58.2814C74.2836 58.4716 74.3597 58.7252 74.3597 59.0421C74.3597 59.5366 74.1822 59.8947 73.8272 60.1166C73.4722 60.3384 72.9397 60.4494 72.2298 60.4494C71.9635 60.4494 71.7163 60.4399 71.4881 60.4208C71.2599 60.4082 71.0349 60.3923 70.813 60.3733V55.6381ZM71.5737 59.7457C71.6941 59.7584 71.8114 59.7679 71.9255 59.7743C72.046 59.7806 72.1854 59.7838 72.3439 59.7838C72.7686 59.7838 73.0824 59.7236 73.2852 59.6031C73.4944 59.4827 73.599 59.2767 73.599 58.9851C73.599 58.7569 73.5103 58.573 73.3328 58.4336C73.1616 58.2878 72.8542 58.2149 72.4104 58.2149H71.5737V59.7457ZM72.5055 57.6349C72.6196 57.6349 72.7306 57.6158 72.8383 57.5778C72.9461 57.5398 73.0412 57.4891 73.1236 57.4257C73.2123 57.356 73.2821 57.2767 73.3328 57.188C73.3898 57.0992 73.4183 57.0041 73.4183 56.9027C73.4183 56.6492 73.3423 56.4748 73.1901 56.3797C73.038 56.2783 72.7718 56.2276 72.3914 56.2276C72.1886 56.2276 72.0269 56.2308 71.9065 56.2371C71.7924 56.2435 71.6815 56.2498 71.5737 56.2561V57.6349H72.5055ZM78.5246 57.5683L78.5531 56.9788H78.5246L78.1348 57.5873L75.9954 60.3828H75.558V55.6286H76.3186V58.5287L76.2901 59.0897H76.3282L76.699 58.5001L78.8384 55.6286H79.2853V60.3828H78.5246V57.5683ZM83.7723 56.2942H82.289V60.3828H81.5283V56.2942H80.045V55.6286H83.7723V56.2942ZM87.4945 57.5683L87.523 56.9788H87.4945L87.1047 57.5873L84.9653 60.3828H84.5279V55.6286H85.2885V58.5287L85.26 59.0897H85.2981L85.6689 58.5001L87.8083 55.6286H88.2552V60.3828H87.4945V57.5683ZM92.0861 58.4146L91.354 58.5287L90.0989 60.3828H89.1765L90.3176 58.7569L90.6979 58.4051C90.3683 58.3543 90.0862 58.2212 89.8516 58.0057C89.6234 57.7902 89.5093 57.4986 89.5093 57.1309C89.5093 56.8457 89.5569 56.6016 89.652 56.3988C89.7534 56.1959 89.896 56.0279 90.0798 55.8948C90.2637 55.7617 90.4824 55.6666 90.7359 55.6096C90.9895 55.5462 91.2747 55.5145 91.5917 55.5145C91.8262 55.5145 92.0449 55.5303 92.2478 55.562C92.4506 55.5937 92.6503 55.6286 92.8468 55.6666V60.3828H92.0861V58.4146ZM92.0861 56.2752C92.0037 56.2435 91.9118 56.2213 91.8104 56.2086C91.709 56.1896 91.6202 56.1801 91.5441 56.1801C91.1385 56.1801 90.8278 56.253 90.6123 56.3988C90.4031 56.5446 90.2985 56.7759 90.2985 57.0929C90.2985 57.3781 90.4095 57.6 90.6313 57.7585C90.8595 57.9106 91.1575 57.9867 91.5251 57.9867C91.5315 57.9867 91.541 57.9867 91.5537 57.9867C91.5663 57.9867 91.5917 57.9867 91.6297 57.9867C91.6678 57.9867 91.7216 57.9867 91.7914 57.9867C91.8611 57.9803 91.9593 57.974 92.0861 57.9677V56.2752Z" fill="#C4BADC"/>
<path id="Rectangle 22" d="M0.527344 6.27734H32.4443L27.2555 37.8071H0.527344V6.27734Z" fill="url(#paint0_linear_432_252)"/>
<path id="Polygon 1" d="M129.267 5.8457L147.859 38.0191H110.675L129.267 5.8457Z" fill="url(#paint1_linear_432_252)"/>
<g id="Ai4G">
<path d="M18.042 37.8074L31.952 6.29595H40.7302L54.6853 37.8074H45.4119L34.518 10.6625H38.0292L27.1353 37.8074H18.042ZM25.6497 31.6852L27.9456 25.1128H43.3412L45.637 31.6852H25.6497Z" fill="white"/>
<path d="M56.3748 37.8074V13.4085H64.9279V37.8074H56.3748ZM60.6514 10.7076C59.0908 10.7076 57.8303 10.2724 56.87 9.40208C55.9096 8.53176 55.4295 7.45137 55.4295 6.16091C55.4295 4.87044 55.9096 3.79004 56.87 2.91973C57.8303 2.04942 59.0908 1.61426 60.6514 1.61426C62.2119 1.61426 63.4724 2.03441 64.4327 2.87471C65.3931 3.68501 65.8732 4.73539 65.8732 6.02586C65.8732 7.37635 65.3931 8.50175 64.4327 9.40208C63.5024 10.2724 62.2419 10.7076 60.6514 10.7076Z" fill="white"/>
<path d="M66.8362 31.7752V25.9681L80.9713 6.29595H90.1996L76.4697 25.9681L72.2381 24.7076H96.862V31.7752H66.8362ZM83.4922 37.8074V31.7752L83.7623 24.7076V19.3507H92.1803V37.8074H83.4922Z" fill="white"/>
<path d="M115.312 38.4376C112.821 38.4376 110.51 38.0475 108.379 37.2672C106.248 36.4569 104.403 35.3165 102.842 33.8459C101.312 32.3754 100.111 30.6498 99.2408 28.6691C98.3705 26.6583 97.9353 24.4525 97.9353 22.0517C97.9353 19.6508 98.3705 17.46 99.2408 15.4793C100.111 13.4686 101.327 11.7279 102.887 10.2574C104.448 8.78686 106.293 7.66145 108.424 6.88117C110.585 6.07087 112.941 5.66572 115.492 5.66572C118.463 5.66572 121.119 6.1609 123.46 7.15126C124.843 7.73643 126.169 8.5193 127.269 9.4083L125.984 11.5854L123.29 16.2608C122.209 15.0904 121.344 14.5189 120.083 13.9487C118.853 13.3485 117.472 13.0484 115.942 13.0484C114.591 13.0484 113.361 13.2585 112.251 13.6786C111.14 14.0988 110.195 14.714 109.414 15.5243C108.634 16.3046 108.019 17.2499 107.569 18.3603C107.149 19.4407 106.939 20.6712 106.939 22.0517C106.939 23.3721 107.149 24.5876 107.569 25.698C108.019 26.8084 108.634 27.7687 109.414 28.579C110.195 29.3593 111.125 29.9745 112.205 30.4247C113.316 30.8448 114.531 31.0549 115.852 31.0549C117.172 31.0549 118.463 30.8448 119.723 30.4247C120.984 29.9745 122.259 29.2243 123.55 28.1739L128.546 34.4311C126.746 35.7216 124.66 36.712 122.289 37.4022C119.918 38.0925 117.592 38.4376 115.312 38.4376ZM120.669 33.2607V21.3764H128.546V34.4311L120.669 33.2607Z" fill="white"/>
</g>
</g>
<g id="Group">
<g id="Group_2">
<path id="Vector" d="M194.192 10.2402C194.192 10.7294 194.094 11.1208 193.899 11.5122C193.703 11.9036 193.507 12.0993 193.214 12.3929C192.92 12.5886 192.626 12.7843 192.333 12.98C192.039 13.0778 191.648 13.1757 191.257 13.1757V14.0563H189.593V13.1757C189.104 13.0778 188.615 12.98 188.223 12.7843C187.832 12.5886 187.538 12.3929 187.343 12.0993C187.147 11.8058 186.951 11.5122 186.853 11.1208C186.756 10.7294 186.658 10.3381 186.658 9.84881V6.22841C186.658 5.73917 186.756 5.34777 186.951 4.95638C187.049 4.66283 187.343 4.36929 187.538 4.17359C187.832 3.88005 188.125 3.7822 188.517 3.5865C188.908 3.3908 189.202 3.3908 189.593 3.3908V2.80371H191.354V3.3908C191.746 3.3908 192.039 3.48865 192.431 3.5865C192.724 3.68435 193.018 3.88005 193.311 4.17359C193.605 4.36929 193.801 4.76068 193.996 5.05423C194.192 5.44562 194.29 5.83702 194.29 6.32626V10.2402H194.192ZM189.593 4.76068C189.202 4.85853 188.908 4.95638 188.615 5.15208C188.419 5.44562 188.321 5.73917 188.321 6.13056V10.4359C188.321 10.6316 188.321 10.8273 188.419 11.023C188.517 11.2187 188.615 11.3165 188.713 11.4144C188.81 11.5122 189.006 11.6101 189.104 11.7079C189.3 11.8058 189.397 11.8058 189.593 11.8058V4.76068ZM192.626 6.13056C192.626 5.73917 192.529 5.44562 192.235 5.15208C192.039 4.95638 191.746 4.85853 191.354 4.76068V11.7079C191.452 11.7079 191.648 11.6101 191.746 11.6101C191.942 11.5122 192.039 11.4144 192.137 11.3165C192.235 11.2187 192.333 11.1208 192.431 10.9251C192.529 10.7294 192.529 10.6316 192.529 10.4359V6.13056H192.626Z" fill="white"/>
<path id="Vector_2" d="M202.9 11.1208C202.9 12.0993 202.705 12.8821 202.215 13.3714C201.726 13.8606 201.041 14.1541 200.161 14.1541C199.182 14.1541 198.497 13.9584 198.106 13.4692C197.714 12.98 197.421 12.295 197.421 11.4144V5.73917C197.421 5.34777 197.519 4.85853 197.617 4.56499C197.714 4.17359 197.91 3.88005 198.106 3.5865C198.302 3.29295 198.595 3.09726 198.986 2.99941C199.378 2.90156 199.769 2.80371 200.259 2.80371C200.748 2.80371 201.237 2.90156 201.531 2.99941C201.824 2.99941 202.118 3.19511 202.313 3.48865C202.509 3.7822 202.705 4.07574 202.803 4.46714C202.9 4.85853 202.9 5.24993 202.9 5.73917V11.1208ZM201.139 5.54347C201.139 5.24993 201.041 4.95638 200.943 4.66283C200.846 4.36929 200.552 4.27144 200.161 4.27144C199.965 4.27144 199.769 4.27144 199.671 4.36929C199.476 4.56499 199.378 4.66283 199.378 4.85853C199.28 4.95638 199.28 5.15208 199.28 5.34777C199.28 5.54347 199.28 5.64132 199.28 5.83702V11.5122C199.28 11.8058 199.378 12.0993 199.476 12.295C199.574 12.4907 199.867 12.6864 200.259 12.6864C200.65 12.6864 200.846 12.5886 201.041 12.295C201.237 12.0993 201.237 11.8058 201.237 11.4144V5.54347H201.139Z" fill="white"/>
<path id="Vector_3" d="M209.946 14.0563V9.16387H207.891V14.0563H206.227V2.80371H207.989V7.50044H210.043V2.80371H211.805V14.0563H209.946Z" fill="white"/>
<path id="Vector_4" d="M215.914 14.0561V16.2088H214.447V12.5884L215.131 12.4905C215.425 12.197 215.621 11.8056 215.719 11.4142C215.816 11.0228 215.914 10.4357 215.914 9.75077L216.11 2.90137H221.198V12.5884H221.883V16.3066H220.415V14.154H215.914V14.0561ZM217.48 9.65292C217.48 10.3379 217.382 10.8271 217.382 11.3163C217.284 11.8056 217.186 12.197 216.991 12.4905H219.437V4.46694H217.676L217.48 9.65292Z" fill="white"/>
<path id="Vector_5" d="M232.451 2.70605C232.94 2.70605 233.331 2.8039 233.625 2.90175C233.919 2.9996 234.212 3.1953 234.506 3.39099C234.701 3.58669 234.897 3.88024 234.995 4.17378C235.093 4.46733 235.191 4.85872 235.191 5.25012L233.527 5.64151C233.527 5.25012 233.429 4.85872 233.331 4.66303C233.136 4.36948 232.94 4.27163 232.549 4.27163C232.353 4.27163 232.157 4.27163 232.059 4.36948C231.962 4.46733 231.864 4.56518 231.766 4.66303C231.668 4.76087 231.668 4.95657 231.668 5.05442C231.668 5.25012 231.668 5.34797 231.668 5.54366V11.2189C231.668 11.3167 231.668 11.4146 231.668 11.6103C231.668 11.7081 231.766 11.9038 231.766 12.0017C231.864 12.0995 231.962 12.1974 232.059 12.2952C232.157 12.3931 232.353 12.3931 232.549 12.3931C233.234 12.3931 233.527 11.9038 233.527 11.0232C233.821 11.121 234.114 11.121 234.408 11.121C234.701 11.121 234.995 11.2189 235.288 11.2189C235.288 12.0995 234.995 12.7845 234.603 13.2737C234.114 13.7629 233.527 14.0565 232.646 14.0565C231.668 14.0565 230.983 13.8608 230.592 13.3715C230.102 12.8823 229.907 12.1974 229.907 11.3167V5.73936C229.907 5.34797 229.907 4.95657 230.005 4.56518C230.102 4.17378 230.298 3.88024 230.494 3.58669C230.69 3.29315 230.983 3.09745 231.374 2.90175C231.472 2.8039 231.864 2.70605 232.451 2.70605Z" fill="white"/>
<path id="Vector_6" d="M243.41 11.1208C243.41 12.0993 243.214 12.8821 242.725 13.3714C242.236 13.8606 241.551 14.1541 240.67 14.1541C239.692 14.1541 239.007 13.9584 238.615 13.4692C238.224 12.98 237.93 12.295 237.93 11.4144V5.73917C237.93 5.34777 238.028 4.85853 238.126 4.56499C238.224 4.17359 238.42 3.88005 238.615 3.5865C238.811 3.29295 239.105 3.09726 239.496 2.99941C239.887 2.90156 240.279 2.80371 240.768 2.80371C241.257 2.80371 241.747 2.90156 242.04 2.99941C242.431 3.09726 242.627 3.29295 242.921 3.5865C243.116 3.88005 243.312 4.17359 243.41 4.56499C243.41 4.76068 243.41 5.24993 243.41 5.64132V11.1208ZM241.649 5.54347C241.649 5.24993 241.551 4.95638 241.453 4.66283C241.355 4.36929 241.062 4.27144 240.67 4.27144C240.474 4.27144 240.279 4.27144 240.181 4.36929C240.083 4.46714 239.985 4.56499 239.887 4.66283C239.79 4.76068 239.79 4.95638 239.692 5.15208C239.692 5.34777 239.692 5.44562 239.692 5.64132V11.3165C239.692 11.6101 239.79 11.9036 239.887 12.0993C240.083 12.295 240.279 12.4907 240.67 12.4907C241.062 12.4907 241.257 12.3929 241.453 12.0993C241.649 11.9036 241.649 11.6101 241.649 11.2187V5.54347Z" fill="white"/>
<path id="Vector_7" d="M247.519 14.0561V16.2088H246.052V12.5884L246.737 12.4905C247.03 12.197 247.226 11.8056 247.324 11.4142C247.422 11.0228 247.519 10.4357 247.519 9.75077L247.715 2.90137H252.803V12.5884H253.488V16.3066H252.021V14.154H247.519V14.0561ZM249.085 9.65292C249.085 10.3379 248.987 10.8271 248.987 11.3163C248.889 11.8056 248.792 12.197 248.596 12.4905H251.042V4.46694H249.281L249.085 9.65292Z" fill="white"/>
<path id="Vector_8" d="M256.326 14.0563V2.80371H261.316V4.46714H258.087V7.50044H260.925V9.16387H258.087V12.3929H261.316V14.0563H256.326Z" fill="white"/>
<path id="Vector_9" d="M268.263 7.01132L265.915 14.0564H264.252V2.80383H265.915V9.94677L268.263 2.80383H269.927V14.0564H268.166L268.263 7.01132ZM266.111 0.259766C266.111 0.357614 266.111 0.455463 266.209 0.65116C266.307 0.749008 266.307 0.846857 266.404 1.04255C266.502 1.1404 266.6 1.23825 266.698 1.3361C266.796 1.43395 266.991 1.43395 267.089 1.43395C267.285 1.43395 267.383 1.43395 267.481 1.3361C267.579 1.23825 267.676 1.1404 267.774 1.04255C267.872 0.944706 267.97 0.846857 267.97 0.65116C267.97 0.553311 268.068 0.455463 268.068 0.259766H269.34C269.34 0.455463 269.242 0.749008 269.144 1.04255C269.242 1.23825 269.046 1.5318 268.851 1.72749C268.655 1.92319 268.459 2.11889 268.166 2.31459C267.872 2.41243 267.579 2.51028 267.187 2.51028C266.796 2.51028 266.404 2.41243 266.111 2.31459C265.817 2.21674 265.622 2.02104 265.426 1.72749C265.23 1.5318 265.132 1.23825 265.034 1.04255C264.937 0.749008 264.839 0.455463 264.839 0.259766H266.111Z" fill="white"/>
<path id="Vector_10" d="M275.994 2.70605C276.483 2.70605 276.874 2.8039 277.168 2.90175C277.461 2.9996 277.755 3.1953 278.048 3.39099C278.244 3.58669 278.44 3.88024 278.538 4.17378C278.635 4.46733 278.733 4.85872 278.733 5.25012L277.07 5.64151C277.07 5.25012 276.972 4.85872 276.874 4.66303C276.678 4.36948 276.483 4.27163 276.091 4.27163C275.896 4.27163 275.7 4.27163 275.602 4.36948C275.504 4.46733 275.406 4.56518 275.309 4.66303C275.211 4.76087 275.211 4.95657 275.211 5.05442C275.211 5.25012 275.211 5.34797 275.211 5.54366V11.2189C275.211 11.3167 275.211 11.4146 275.211 11.6103C275.211 11.7081 275.309 11.9038 275.309 12.0017C275.406 12.0995 275.504 12.1974 275.602 12.2952C275.7 12.3931 275.896 12.3931 276.091 12.3931C276.776 12.3931 277.07 11.9038 277.07 11.0232C277.363 11.121 277.657 11.121 277.951 11.121C278.244 11.121 278.538 11.2189 278.831 11.2189C278.831 12.0995 278.538 12.7845 278.146 13.2737C277.657 13.7629 277.07 14.0565 276.189 14.0565C275.211 14.0565 274.526 13.8608 274.134 13.3715C273.645 12.8823 273.449 12.1974 273.449 11.3167V5.73936C273.449 5.34797 273.449 4.95657 273.547 4.56518C273.645 4.17378 273.841 3.88024 274.037 3.58669C274.232 3.29315 274.526 3.09745 274.917 2.90175C275.015 2.8039 275.504 2.70605 275.994 2.70605Z" fill="white"/>
<path id="Vector_11" d="M284.408 4.46714V14.0563H282.647V4.46714H280.788V2.80371H286.17V4.46714H284.408Z" fill="white"/>
<path id="Vector_12" d="M293.019 8.18538C293.508 8.38108 293.9 8.67462 293.997 9.06602C294.193 9.55526 294.291 10.0445 294.291 10.6316C294.291 11.8058 293.997 12.6864 293.508 13.1757C293.019 13.7627 292.236 13.9584 291.16 13.9584H288.812V2.80371H291.258C292.236 2.80371 293.019 3.09726 293.41 3.5865C293.9 4.07574 294.095 4.85853 294.095 5.83702C294.095 6.32626 293.997 6.8155 293.802 7.2069C293.802 7.59829 293.41 7.89184 293.019 8.18538ZM292.53 5.93487C292.53 5.44562 292.432 5.05423 292.236 4.85853C292.041 4.66283 291.649 4.56499 291.258 4.56499H290.671V7.50044H291.258C291.747 7.50044 292.041 7.40259 292.236 7.10905C292.432 6.71765 292.53 6.32626 292.53 5.93487ZM292.628 10.4359C292.628 9.94666 292.53 9.55526 292.334 9.26172C292.138 8.96817 291.845 8.87032 291.356 8.87032H290.671V12.3929H291.356C291.649 12.3929 291.845 12.295 292.041 12.1972C292.236 12.0993 292.334 12.0015 292.432 11.8058C292.53 11.6101 292.628 11.4144 292.628 11.2187C292.628 11.023 292.628 10.7294 292.628 10.4359Z" fill="white"/>
<path id="Vector_13" d="M301.63 7.0112L299.281 14.0563H297.618V2.80371H299.281V9.94666H299.379L301.728 2.80371H303.391V14.0563H301.63V7.0112Z" fill="white"/>
<path id="Vector_14" d="M306.326 14.0561L306.914 10.5336C307.011 10.1422 307.109 9.84862 307.305 9.55507C307.501 9.26152 307.696 8.96798 307.99 8.87013C307.501 8.67443 307.109 8.28304 306.914 7.89164C306.718 7.50025 306.62 6.91316 306.62 6.32607C306.62 5.24973 306.914 4.3691 307.403 3.782C307.892 3.19491 308.675 2.90137 309.653 2.90137H312.197V14.154H310.436V9.26152H309.947C309.653 9.26152 309.36 9.35937 309.066 9.65292C308.773 9.84862 308.675 10.3379 308.479 10.9249L307.99 14.0561H306.326ZM309.751 4.46694C309.262 4.46694 308.87 4.66264 308.675 4.95619C308.479 5.24973 308.381 5.64113 308.381 6.22822C308.381 6.81531 308.479 7.10886 308.773 7.4024C309.066 7.5981 309.36 7.69595 309.751 7.69595H310.436V4.46694H309.751Z" fill="white"/>
<path id="Vector_15" d="M191.941 23.352L189.006 32.0605H186.951V18.166H189.104V26.9724H189.202L192.137 18.166H194.29V32.0605H192.039L191.941 23.352Z" fill="white"/>
<path id="Vector_16" d="M204.76 32.0605V25.9939H202.314V32.0605H200.161V18.166H202.314V23.9391H204.858V18.166H207.01V32.0605H204.76Z" fill="white"/>
<path id="Vector_17" d="M217.676 32.0605V25.9939H215.132V32.0605H212.979V18.166H215.132V23.9391H217.676V18.166H219.828V32.0605H217.676Z" fill="white"/>
<path id="Vector_18" d="M232.549 28.5382C232.549 29.7123 232.255 30.6908 231.766 31.2779C231.179 31.865 230.396 32.1586 229.124 32.1586C227.95 32.1586 227.069 31.865 226.58 31.2779C226.091 30.6908 225.797 29.8102 225.797 28.7339V21.7866C225.797 21.1995 225.895 20.7103 225.993 20.3189C226.091 19.8296 226.286 19.4382 226.58 19.1447C226.873 18.8511 227.167 18.5576 227.656 18.3619C228.048 18.1662 228.635 18.0684 229.222 18.0684C229.907 18.0684 230.396 18.1662 230.885 18.3619C231.277 18.5576 231.668 18.7533 231.962 19.0468C232.255 19.3404 232.451 19.7318 232.549 20.221C232.647 20.7103 232.744 21.1995 232.744 21.7866V28.5382H232.549ZM230.396 21.5909C230.396 21.1995 230.298 20.906 230.102 20.5146C229.907 20.221 229.613 20.0253 229.124 20.0253C228.83 20.0253 228.635 20.1232 228.537 20.221C228.341 20.3189 228.243 20.5146 228.145 20.6124C228.048 20.8081 227.95 21.0038 227.95 21.1995C227.95 21.3952 227.852 21.5909 227.852 21.7866V28.8317C227.852 29.2231 227.95 29.5166 228.145 29.8102C228.341 30.1037 228.635 30.2016 229.124 30.2016C229.613 30.2016 229.907 30.0059 230.102 29.7123C230.298 29.4188 230.396 29.0274 230.396 28.636V21.5909Z" fill="white"/>
<path id="Vector_19" d="M243.606 24.8197C244.193 25.0154 244.682 25.4068 244.878 25.9939C245.073 26.581 245.269 27.1681 245.269 27.9509C245.269 29.4186 244.976 30.4949 244.291 31.1799C243.704 31.8648 242.725 32.1584 241.453 32.1584H238.518V18.166H241.551C242.823 18.166 243.704 18.4596 244.193 19.1445C244.78 19.8294 245.073 20.7101 245.073 21.9821C245.073 22.6671 244.976 23.1563 244.78 23.6455C244.584 24.1348 244.193 24.5262 243.606 24.7219V24.8197ZM243.019 21.9821C243.019 21.2972 242.921 20.9058 242.627 20.6122C242.334 20.3187 241.942 20.2208 241.355 20.2208H240.67V23.7434H241.355C241.942 23.7434 242.334 23.5477 242.627 23.2541C242.921 23.0584 243.019 22.5692 243.019 21.9821ZM243.116 27.6573C243.116 26.9724 243.019 26.4831 242.725 26.1896C242.529 25.8961 242.04 25.7004 241.453 25.7004H240.67V30.0057H241.551C241.942 30.0057 242.138 29.9078 242.432 29.81C242.627 29.7121 242.823 29.5165 242.921 29.3208C243.019 29.1251 243.116 28.8315 243.116 28.538C243.116 28.3423 243.116 28.0487 243.116 27.6573Z" fill="white"/>
<path id="Vector_20" d="M256.228 32.0605L255.641 29.1251H253.097C252.999 29.6143 252.901 30.1035 252.803 30.5928C252.705 31.082 252.608 31.5713 252.51 32.0605H250.259C250.749 29.7121 251.238 27.3638 251.629 25.1133C252.118 22.7649 252.608 20.5144 252.999 18.166H255.445L258.283 32.0605H256.228ZM254.271 21.395C254.173 22.3735 253.978 23.352 253.88 24.2326C253.684 25.2111 253.586 26.1896 253.39 27.1681H255.347L254.467 21.395H254.271Z" fill="white"/>
<path id="Vector_21" d="M270.416 18.166V30.1035H271.297V34.8003H269.438V32.1584H263.567V18.166H265.719V30.1035H268.166V18.166H270.416Z" fill="white"/>
<path id="Vector_22" d="M281.473 23.352L278.537 32.0605H276.483V18.166H278.635V26.9724L281.571 18.166H283.723V32.0605H281.571L281.473 23.352Z" fill="white"/>
<path id="Vector_23" d="M289.105 32.0605L289.888 27.6573C289.986 27.1681 290.083 26.7767 290.377 26.3853C290.573 25.9939 290.866 25.7004 291.258 25.5047C290.573 25.2111 290.181 24.8197 289.888 24.3305C289.692 23.7434 289.496 23.1563 289.496 22.3735C289.496 21.0036 289.79 19.9273 290.475 19.2424C291.16 18.5574 292.04 18.166 293.215 18.166H296.444V32.0605H294.291V26.0917H293.704C293.312 26.0917 293.019 26.1896 292.628 26.4831C292.334 26.7767 292.04 27.2659 291.943 28.0487L291.258 31.9627H289.105V32.0605ZM293.41 20.2208C292.725 20.2208 292.334 20.4165 292.04 20.8079C291.747 21.1993 291.649 21.6886 291.649 22.3735C291.649 23.0584 291.845 23.5477 292.138 23.7434C292.432 24.0369 292.921 24.1348 293.41 24.1348H294.291V20.2208H293.41Z" fill="white"/>
<path id="Vector_24" d="M306.522 29.0274L305.544 26.4833L304.663 24.0371H304.565V32.0607H302.413V18.1662H304.565L306.131 22.0801L307.207 25.1135H307.305L308.479 21.9823L309.947 18.0684H312.002V31.9629H309.849V23.9393H309.751L308.871 26.3855L307.892 28.9295H306.522V29.0274Z" fill="white"/>
</g>
<g id="Group_3">
<g id="Group_4">
<path id="Vector_25" d="M312.099 36.2676C281.864 65.8178 221.394 60.7297 199.476 36.2676H186.951C203.488 53.7825 227.265 60.4362 247.226 61.3168C249.281 61.4147 251.336 61.4147 253.292 61.4147C266.209 61.219 280.592 58.3814 293.117 51.7277C300.26 48.0094 306.816 42.9213 312.099 36.2676Z" fill="#EA2227"/>
<path id="Vector_26" d="M312.1 36.2676C312.1 36.3654 312.1 36.3654 312.1 36.2676C311.611 36.659 311.121 36.9525 310.73 37.2461C277.755 59.262 231.962 54.9567 212.294 36.2676H199.476C221.394 60.7297 281.865 65.9157 312.1 36.2676Z" fill="#25A8E0"/>
<path id="Vector_27" d="M304.859 39.3987C289.888 45.1718 275.798 47.7159 263.469 47.8137C246.248 47.9116 232.647 43.3127 225.406 36.2676H214.545H212.294C231.864 54.761 277.168 59.1641 310.045 37.6375C310.241 37.5396 310.534 37.3439 310.73 37.1482C311.219 36.8547 311.61 36.5611 312.1 36.2676C309.654 37.4418 307.207 38.4202 304.859 39.3987Z" fill="white"/>
<path id="Vector_28" d="M225.406 36.267C232.549 43.1164 245.856 47.7153 262.784 47.7153C262.98 47.7153 263.273 47.7153 263.469 47.7153C275.798 47.6174 289.888 45.0734 304.859 39.3003C307.207 38.3218 309.653 37.3433 312.1 36.267C306.816 42.8228 300.26 47.911 293.019 51.7271C280.495 58.3808 266.111 61.2184 253.195 61.4141C252.706 61.4141 252.216 61.4141 251.727 61.4141C250.259 61.4141 248.694 61.4141 247.128 61.3162C227.167 60.4356 203.488 53.7819 186.853 36.267H199.28H212.098H214.349H225.406ZM225.406 36.1691H214.545H212.294H199.476H186.951C186.853 36.1691 186.853 36.1691 186.756 36.267C186.756 36.3648 186.756 36.3648 186.756 36.4627C194.584 44.5841 204.271 50.9443 215.719 55.2496C225.308 58.87 236.267 61.0227 247.128 61.5119C248.694 61.6098 250.161 61.6098 251.727 61.6098C252.216 61.6098 252.706 61.6098 253.195 61.6098C260.044 61.5119 266.796 60.7291 273.254 59.1636C280.397 57.5001 287.05 55.0539 293.019 51.9228C300.651 47.8131 307.109 42.6271 312.1 36.3648C312.1 36.3648 312.1 36.3648 312.1 36.267C312.1 36.267 312.1 36.267 312.1 36.1691C312.1 36.1691 312.1 36.1691 312.1 36.0713C312.1 36.0713 312.1 36.0713 312.002 36.0713H311.904C309.556 37.1476 307.109 38.224 304.663 39.1046C290.769 44.4863 276.483 47.4217 263.371 47.5196C263.175 47.5196 262.882 47.5196 262.686 47.5196C246.541 47.5196 233.038 43.3121 225.504 36.0713C225.504 36.1691 225.504 36.1691 225.406 36.1691Z" fill="#CDCCCB"/>
</g>
</g>
</g>
</g>
<defs>
<linearGradient id="paint0_linear_432_252" x1="16.4858" y1="6.27734" x2="16.4858" y2="37.8071" gradientUnits="userSpaceOnUse">
<stop stop-color="#FF008A"/>
<stop offset="1" stop-color="#FA00FF"/>
</linearGradient>
<linearGradient id="paint1_linear_432_252" x1="129.267" y1="5.8457" x2="129.267" y2="48.7435" gradientUnits="userSpaceOnUse">
<stop offset="0.317708" stop-color="#06EA6F"/>
<stop offset="1" stop-color="#0386FF"/>
</linearGradient>
</defs>
</svg>
