<svg width="32" height="31" viewBox="0 0 32 31" fill="none" xmlns="http://www.w3.org/2000/svg">
<circle cx="16.2073" cy="15.5" r="15" fill="white"/>
<path fill-rule="evenodd" clip-rule="evenodd" d="M16.2073 0C7.64629 0 0.707275 6.93902 0.707275 15.5C0.707275 24.061 7.64629 31 16.2073 31C24.7683 31 31.7073 24.061 31.7073 15.5C31.7073 6.93902 24.7683 0 16.2073 0ZM20.5146 12.1448C20.5146 14.5197 18.5892 16.4503 16.209 16.4503C13.8289 16.4503 11.9035 14.5197 11.9035 12.1448C11.9035 9.76467 13.8289 7.83929 16.209 7.83929C18.5892 7.83929 20.5146 9.76467 20.5146 12.1448ZM16.209 17.9507C20.1597 17.9507 23.4559 20.6271 24.4689 24.2558C22.3093 26.2967 19.4074 27.5556 16.2074 27.5556C13.011 27.5556 10.1092 26.2967 7.94921 24.2593C8.96208 20.6271 12.2567 17.9508 16.209 17.9508" fill="#FF008A"/>
</svg>
