<svg width="176" height="59" viewBox="0 0 176 59" fill="none" xmlns="http://www.w3.org/2000/svg">
<rect x="13.0459" y="48.252" width="13.4238" height="9.61816" fill="#150931"/>
<path d="M0.53125 57.8705L22.5499 7.98992H36.4452L58.5352 57.8705H43.8561L26.6116 14.9019H32.1698L14.9254 57.8705H0.53125ZM12.5738 48.1794L16.208 37.7757H40.5782L44.2124 48.1794H12.5738Z" fill="white"/>
<path d="M61.2096 57.8705V19.2487H74.7486V57.8705H61.2096ZM67.9791 14.9732C65.5089 14.9732 63.5136 14.2844 61.9935 12.9067C60.4733 11.5291 59.7132 9.81888 59.7132 7.77615C59.7132 5.73342 60.4733 4.02323 61.9935 2.64558C63.5136 1.26793 65.5089 0.579102 67.9791 0.579102C70.4494 0.579102 72.4446 1.24418 73.9648 2.57432C75.485 3.85697 76.2451 5.51965 76.2451 7.56238C76.2451 9.70012 75.485 11.4816 73.9648 12.9067C72.4921 14.2844 70.4969 14.9732 67.9791 14.9732Z" fill="white"/>
<path d="M77.7693 48.3219V39.1296L100.144 7.98992H114.752L93.0185 39.1296L86.3202 37.1344H125.298V48.3219H77.7693ZM104.135 57.8705V48.3219L104.562 37.1344V28.6547H117.888V57.8705H104.135Z" fill="white"/>
<path d="M154.503 58.8681C150.56 58.8681 146.902 58.2505 143.529 57.0154C140.156 55.7327 137.235 53.9275 134.764 51.5998C132.342 49.272 130.441 46.5405 129.064 43.4051C127.686 40.2223 126.997 36.7306 126.997 32.9302C126.997 29.1298 127.686 25.6619 129.064 22.5265C130.441 19.3437 132.365 16.5884 134.836 14.2606C137.306 11.9329 140.227 10.1514 143.6 8.91628C147.021 7.63363 150.75 6.99231 154.788 6.99231C159.491 6.99231 163.695 7.77615 167.401 9.34382C169.59 10.2701 171.689 11.5093 173.431 12.9166L171.397 16.3628L167.132 23.7636C165.422 21.9109 164.051 21.0064 162.056 20.1038C160.108 19.1537 157.923 18.6786 155.5 18.6786C153.363 18.6786 151.415 19.0112 149.657 19.6762C147.9 20.3413 146.403 21.3152 145.168 22.5978C143.933 23.8329 142.959 25.3294 142.246 27.087C141.581 28.7972 141.249 30.745 141.249 32.9302C141.249 35.0204 141.581 36.9444 142.246 38.7021C142.959 40.4598 143.933 41.98 145.168 43.2626C146.403 44.4977 147.876 45.4716 149.586 46.1842C151.344 46.8492 153.268 47.1818 155.358 47.1818C157.448 47.1818 159.491 46.8492 161.486 46.1842C163.481 45.4716 165.5 44.284 167.543 42.6213L175.453 52.5261C172.602 54.5689 169.301 56.1365 165.548 57.2292C161.795 58.3218 158.113 58.8681 154.503 58.8681ZM162.983 50.6734V31.8613H175.453V52.5261L162.983 50.6734Z" fill="white"/>
</svg>
