<svg width="110" height="35" viewBox="0 0 110 35" fill="none" xmlns="http://www.w3.org/2000/svg">
<path d="M0.0279541 4.0918H23.2259L19.4546 27.0083H0.0279541V4.0918Z" fill="url(#paint0_linear_166_958)"/>
<path d="M93.5986 3.77734L107.112 27.1617H80.0853L93.5986 3.77734Z" fill="url(#paint1_linear_166_958)"/>
<path d="M12.7581 27.0081L22.8682 4.10491H29.2484L39.3912 27.0081H32.6511L24.7332 7.27864H27.2852L19.3673 27.0081H12.7581ZM18.2875 22.5583L19.9562 17.7814H31.146L32.8147 22.5583H18.2875Z" fill="white"/>
<path d="M40.6192 27.0081V9.27448H46.8358V27.0081H40.6192ZM43.7275 7.31135C42.5932 7.31135 41.6771 6.99507 40.9791 6.36251C40.2811 5.72994 39.9321 4.94469 39.9321 4.00675C39.9321 3.06881 40.2811 2.28356 40.9791 1.65099C41.6771 1.01843 42.5932 0.702148 43.7275 0.702148C44.8617 0.702148 45.7779 1.00752 46.4759 1.61828C47.1739 2.20722 47.5229 2.97066 47.5229 3.9086C47.5229 4.89016 47.1739 5.70813 46.4759 6.36251C45.7997 6.99507 44.8835 7.31135 43.7275 7.31135Z" fill="white"/>
<path d="M48.2227 22.6238V18.403L58.4965 4.10491H65.2038L55.2246 18.403L52.149 17.4869H70.0462V22.6238H48.2227ZM60.3287 27.0081V22.6238L60.525 17.4869V13.5934H66.6435V27.0081H60.3287Z" fill="white"/>
<path d="M83.4558 27.4662C81.6453 27.4662 79.9658 27.1826 78.4171 26.6155C76.8684 26.0265 75.5269 25.1977 74.3927 24.1288C73.2802 23.06 72.4077 21.8058 71.7751 20.3662C71.1426 18.9047 70.8263 17.3015 70.8263 15.5565C70.8263 13.8115 71.1426 12.2192 71.7751 10.7796C72.4077 9.31811 73.2911 8.05298 74.4254 6.98417C75.5596 5.91535 76.9011 5.09738 78.4498 4.53025C80.0203 3.94131 81.7326 3.64684 83.5866 3.64684C85.7461 3.64684 87.6765 4.00675 89.3779 4.72657C90.3832 5.15188 91.3472 5.72089 92.1469 6.36703L91.213 7.94939L89.2545 11.3476C88.4693 10.4969 87.8401 10.0816 86.924 9.66711C86.0297 9.23086 85.0263 9.01274 83.9138 9.01274C82.9323 9.01274 82.038 9.16542 81.2309 9.4708C80.4238 9.77618 79.7367 10.2233 79.1696 10.8123C78.6025 11.3794 78.1553 12.0665 77.8281 12.8736C77.5228 13.6588 77.3701 14.5531 77.3701 15.5565C77.3701 16.5163 77.5228 17.3997 77.8281 18.2067C78.1553 19.0138 78.6025 19.7118 79.1696 20.3007C79.7367 20.8679 80.4129 21.315 81.1982 21.6422C82.0052 21.9476 82.8886 22.1003 83.8484 22.1003C84.8082 22.1003 85.7461 21.9476 86.6622 21.6422C87.5784 21.315 88.5054 20.7697 89.4433 20.0063L93.0751 24.5542C91.7664 25.4921 90.2504 26.2119 88.5272 26.7136C86.804 27.2153 85.1135 27.4662 83.4558 27.4662ZM87.3493 23.7035V15.0657H93.0751V24.5542L87.3493 23.7035Z" fill="white"/>
<defs>
<linearGradient id="paint0_linear_166_958" x1="11.6269" y1="4.0918" x2="11.6269" y2="27.0083" gradientUnits="userSpaceOnUse">
<stop stop-color="#FF008A"/>
<stop offset="1" stop-color="#FA00FF"/>
</linearGradient>
<linearGradient id="paint1_linear_166_958" x1="93.5986" y1="3.77734" x2="93.5986" y2="34.9564" gradientUnits="userSpaceOnUse">
<stop offset="0.317708" stop-color="#06EA6F"/>
<stop offset="1" stop-color="#0386FF"/>
</linearGradient>
</defs>
</svg>
