<svg width="151" height="63" viewBox="0 0 151 63" fill="none" xmlns="http://www.w3.org/2000/svg">
<path d="M59.1001 48.7427C58.9921 48.7617 58.865 48.7744 58.7188 48.7808C58.5789 48.7871 58.4455 48.7903 58.3183 48.7903C58.0196 48.7903 57.7367 48.7395 57.4698 48.6378C57.2092 48.5361 56.9804 48.3772 56.7833 48.1611C56.5926 47.945 56.4401 47.6716 56.3257 47.3411C56.2176 47.0042 56.1636 46.607 56.1636 46.1493C56.1636 45.7171 56.2176 45.3326 56.3257 44.9957C56.4401 44.6524 56.599 44.3632 56.8024 44.1281C57.0121 43.8929 57.26 43.7149 57.5461 43.5941C57.8321 43.467 58.1499 43.4035 58.4995 43.4035C58.5821 43.4035 58.6838 43.4066 58.8046 43.413C58.9317 43.4193 59.0302 43.4289 59.1001 43.4416V42.6216H59.882V43.4702C59.9964 43.4384 60.1298 43.4193 60.2824 43.413C60.4413 43.4066 60.5716 43.4035 60.6733 43.4035C60.9784 43.4035 61.2612 43.4607 61.5218 43.5751C61.7825 43.6831 62.0081 43.8484 62.1988 44.0709C62.3958 44.287 62.5484 44.5635 62.6564 44.9003C62.7645 45.2309 62.8185 45.6154 62.8185 46.054C62.8185 46.5053 62.7549 46.9025 62.6278 47.2458C62.5071 47.589 62.3418 47.875 62.132 48.1039C61.9223 48.3327 61.6776 48.5043 61.3979 48.6187C61.1182 48.7331 60.8195 48.7903 60.5017 48.7903C60.4318 48.7903 60.3269 48.7871 60.187 48.7808C60.0536 48.7681 59.9519 48.749 59.882 48.7236V49.677H59.1001V48.7427ZM60.5589 44.0709C60.4699 44.0709 60.3555 44.074 60.2157 44.0804C60.0758 44.0867 59.9614 44.1058 59.8724 44.1376V48.0943C59.936 48.107 60.0186 48.1166 60.1203 48.1229C60.2284 48.1229 60.3332 48.1229 60.4349 48.1229C60.651 48.1229 60.8513 48.0816 61.0356 47.999C61.2263 47.9163 61.3915 47.7892 61.5314 47.6176C61.6776 47.446 61.792 47.2299 61.8746 46.9693C61.9572 46.7087 61.9986 46.4036 61.9986 46.054C61.9986 45.7616 61.9636 45.4946 61.8937 45.2531C61.8301 45.0052 61.7348 44.7923 61.6077 44.6143C61.4869 44.4363 61.3375 44.3029 61.1595 44.2139C60.9816 44.1185 60.7814 44.0709 60.5589 44.0709ZM58.4613 48.1229C58.4931 48.1229 58.5344 48.1229 58.5853 48.1229C58.6425 48.1229 58.7029 48.1229 58.7664 48.1229C58.83 48.1166 58.8904 48.1102 58.9476 48.1039C59.0112 48.0911 59.0652 48.0784 59.1097 48.0657V44.109C59.0334 44.0963 58.9381 44.0867 58.8236 44.0804C58.7156 44.074 58.6171 44.0709 58.5281 44.0709C58.312 44.0709 58.1086 44.1153 57.9179 44.2043C57.7336 44.287 57.5715 44.4173 57.4316 44.5952C57.2918 44.7669 57.1806 44.983 57.0979 45.2436C57.0217 45.5042 56.9835 45.8061 56.9835 46.1493C56.9835 46.4544 57.0185 46.7309 57.0884 46.9788C57.1583 47.2203 57.2568 47.4269 57.384 47.5985C57.5174 47.7702 57.6732 47.9005 57.8511 47.9894C58.0355 48.0784 58.2389 48.1229 58.4613 48.1229ZM63.8699 45.072C64.1114 44.9258 64.3911 44.8177 64.7089 44.7478C65.0331 44.6779 65.3699 44.6429 65.7195 44.6429C66.0501 44.6429 66.3138 44.6874 66.5109 44.7764C66.7143 44.8654 66.8668 44.983 66.9685 45.1292C67.0766 45.269 67.1465 45.4247 67.1783 45.5963C67.2164 45.768 67.2355 45.9396 67.2355 46.1112C67.2355 46.4926 67.226 46.8644 67.2069 47.2267C67.1878 47.589 67.1783 47.9322 67.1783 48.2564C67.1783 48.4916 67.1878 48.7141 67.2069 48.9238C67.226 49.1336 67.2609 49.3274 67.3118 49.5054H66.7492L66.549 48.838H66.5014C66.4441 48.927 66.371 49.016 66.2821 49.105C66.1994 49.1876 66.0977 49.2639 65.977 49.3338C65.8562 49.3973 65.7164 49.4514 65.5575 49.4959C65.3986 49.5404 65.2174 49.5626 65.014 49.5626C64.8106 49.5626 64.6199 49.5308 64.4419 49.4673C64.2703 49.4037 64.121 49.3147 63.9938 49.2003C63.8667 49.0795 63.765 48.9365 63.6887 48.7713C63.6188 48.606 63.5839 48.4185 63.5839 48.2087C63.5839 47.9291 63.6411 47.6971 63.7555 47.5127C63.8699 47.322 64.0288 47.1727 64.2322 47.0646C64.4419 46.9502 64.6898 46.8708 64.9759 46.8263C65.2682 46.7754 65.5892 46.75 65.9388 46.75C66.0278 46.75 66.1136 46.75 66.1963 46.75C66.2852 46.75 66.3742 46.7563 66.4632 46.7691C66.4823 46.5784 66.4918 46.4068 66.4918 46.2542C66.4918 45.9046 66.4219 45.6599 66.2821 45.5201C66.1422 45.3802 65.888 45.3103 65.5193 45.3103C65.4113 45.3103 65.2937 45.3198 65.1666 45.3389C65.0458 45.3516 64.9187 45.3739 64.7852 45.4057C64.6581 45.4311 64.5341 45.466 64.4133 45.5105C64.2989 45.5487 64.1972 45.5932 64.1082 45.644L63.8699 45.072ZM65.2238 48.8952C65.4017 48.8952 65.5606 48.873 65.7005 48.8285C65.8403 48.7776 65.9611 48.7172 66.0628 48.6473C66.1645 48.571 66.2471 48.4884 66.3107 48.3994C66.3806 48.3104 66.4314 48.2246 66.4632 48.142V47.3506C66.3742 47.3443 66.2821 47.3411 66.1867 47.3411C66.0977 47.3348 66.0087 47.3316 65.9198 47.3316C65.7227 47.3316 65.5289 47.3443 65.3382 47.3697C65.1538 47.3888 64.9886 47.4301 64.8424 47.4937C64.7025 47.5509 64.5881 47.6335 64.4992 47.7416C64.4165 47.8433 64.3752 47.9736 64.3752 48.1325C64.3752 48.3549 64.4547 48.5393 64.6136 48.6854C64.7725 48.8253 64.9759 48.8952 65.2238 48.8952ZM68.6761 44.7192H69.2004L69.3435 45.2912H69.3816C69.5278 45.0688 69.7153 44.9003 69.9441 44.7859C70.1793 44.6652 70.4463 44.6048 70.745 44.6048C71.3806 44.6048 71.8542 44.7923 72.1656 45.1673C72.4771 45.5423 72.6328 46.1557 72.6328 47.0074C72.6328 47.4079 72.5788 47.7702 72.4707 48.0943C72.369 48.4121 72.2228 48.6823 72.0321 48.9047C71.8414 49.1272 71.6094 49.2988 71.3361 49.4196C71.0692 49.5404 70.7704 49.6007 70.4399 49.6007C70.2047 49.6007 70.0172 49.5848 69.8774 49.5531C69.7439 49.5276 69.5977 49.48 69.4388 49.4101V51.3932H68.6761V44.7192ZM70.602 45.2722C70.2778 45.2722 70.0204 45.358 69.8297 45.5296C69.6454 45.6949 69.5151 45.9491 69.4388 46.2923V48.6568C69.5532 48.7458 69.6835 48.8158 69.8297 48.8666C69.9759 48.9111 70.1698 48.9333 70.4113 48.9333C70.8499 48.9333 71.1963 48.7713 71.4505 48.4471C71.7111 48.1166 71.8414 47.6335 71.8414 46.9979C71.8414 46.7373 71.8192 46.5021 71.7747 46.2923C71.7302 46.0762 71.6571 45.8951 71.5554 45.7489C71.4601 45.5963 71.3329 45.4788 71.174 45.3961C71.0215 45.3135 70.8308 45.2722 70.602 45.2722ZM73.8343 44.7287C74.0567 44.716 74.2887 44.7001 74.5303 44.681C74.7782 44.662 75.0832 44.6524 75.4456 44.6524C76.0748 44.6524 76.5261 44.751 76.7994 44.948C77.0727 45.1387 77.2094 45.4311 77.2094 45.8252C77.2094 46.0476 77.1427 46.2669 77.0092 46.483C76.882 46.6928 76.6691 46.8485 76.3704 46.9502V46.9883C76.7454 47.0583 77.0092 47.1886 77.1617 47.3793C77.3143 47.5699 77.3905 47.8242 77.3905 48.142C77.3905 48.6378 77.2126 48.9969 76.8566 49.2194C76.5007 49.4418 75.9668 49.5531 75.2549 49.5531C74.9879 49.5531 74.74 49.5435 74.5112 49.5245C74.2824 49.5118 74.0567 49.4959 73.8343 49.4768V44.7287ZM74.597 48.8475C74.7178 48.8602 74.8354 48.8698 74.9498 48.8761C75.0705 48.8825 75.2104 48.8857 75.3693 48.8857C75.7951 48.8857 76.1098 48.8253 76.3132 48.7045C76.5229 48.5837 76.6278 48.3772 76.6278 48.0848C76.6278 47.856 76.5388 47.6716 76.3608 47.5318C76.1892 47.3856 75.8809 47.3125 75.436 47.3125H74.597V48.8475ZM75.5314 46.7309C75.6458 46.7309 75.757 46.7119 75.8651 46.6737C75.9731 46.6356 76.0685 46.5847 76.1511 46.5212C76.2401 46.4512 76.31 46.3718 76.3608 46.2828C76.418 46.1938 76.4467 46.0985 76.4467 45.9968C76.4467 45.7425 76.3704 45.5677 76.2178 45.4724C76.0653 45.3707 75.7983 45.3198 75.4169 45.3198C75.2135 45.3198 75.0515 45.323 74.9307 45.3294C74.8163 45.3357 74.7051 45.3421 74.597 45.3484V46.7309H75.5314ZM78.5158 45.072C78.7573 44.9258 79.037 44.8177 79.3548 44.7478C79.679 44.6779 80.0159 44.6429 80.3655 44.6429C80.696 44.6429 80.9598 44.6874 81.1568 44.7764C81.3602 44.8654 81.5128 44.983 81.6145 45.1292C81.7225 45.269 81.7924 45.4247 81.8242 45.5963C81.8623 45.768 81.8814 45.9396 81.8814 46.1112C81.8814 46.4926 81.8719 46.8644 81.8528 47.2267C81.8337 47.589 81.8242 47.9322 81.8242 48.2564C81.8242 48.4916 81.8337 48.7141 81.8528 48.9238C81.8719 49.1336 81.9068 49.3274 81.9577 49.5054H81.3952L81.1949 48.838H81.1473C81.0901 48.927 81.017 49.016 80.928 49.105C80.8454 49.1876 80.7437 49.2639 80.6229 49.3338C80.5021 49.3973 80.3623 49.4514 80.2034 49.4959C80.0445 49.5404 79.8633 49.5626 79.6599 49.5626C79.4565 49.5626 79.2658 49.5308 79.0879 49.4673C78.9163 49.4037 78.7669 49.3147 78.6398 49.2003C78.5126 49.0795 78.4109 48.9365 78.3347 48.7713C78.2647 48.606 78.2298 48.4185 78.2298 48.2087C78.2298 47.9291 78.287 47.6971 78.4014 47.5127C78.5158 47.322 78.6747 47.1727 78.8781 47.0646C79.0879 46.9502 79.3358 46.8708 79.6218 46.8263C79.9142 46.7754 80.2352 46.75 80.5848 46.75C80.6737 46.75 80.7595 46.75 80.8422 46.75C80.9312 46.75 81.0202 46.7563 81.1091 46.7691C81.1282 46.5784 81.1377 46.4068 81.1377 46.2542C81.1377 45.9046 81.0678 45.6599 80.928 45.5201C80.7881 45.3802 80.5339 45.3103 80.1652 45.3103C80.0572 45.3103 79.9396 45.3198 79.8125 45.3389C79.6917 45.3516 79.5646 45.3739 79.4311 45.4057C79.304 45.4311 79.18 45.466 79.0593 45.5105C78.9449 45.5487 78.8432 45.5932 78.7542 45.644L78.5158 45.072ZM79.8697 48.8952C80.0477 48.8952 80.2066 48.873 80.3464 48.8285C80.4862 48.7776 80.607 48.7172 80.7087 48.6473C80.8104 48.571 80.893 48.4884 80.9566 48.3994C81.0265 48.3104 81.0774 48.2246 81.1091 48.142V47.3506C81.0202 47.3443 80.928 47.3411 80.8326 47.3411C80.7437 47.3348 80.6547 47.3316 80.5657 47.3316C80.3686 47.3316 80.1748 47.3443 79.9841 47.3697C79.7998 47.3888 79.6345 47.4301 79.4883 47.4937C79.3485 47.5509 79.2341 47.6335 79.1451 47.7416C79.0624 47.8433 79.0211 47.9736 79.0211 48.1325C79.0211 48.3549 79.1006 48.5393 79.2595 48.6854C79.4184 48.8253 79.6218 48.8952 79.8697 48.8952ZM86.3539 45.3866H84.8665V49.4863H84.1038V45.3866H82.6164V44.7192H86.3539V45.3866ZM90.4425 49.105C90.2518 49.2575 90.0103 49.3783 89.7179 49.4673C89.4319 49.5562 89.1268 49.6007 88.8026 49.6007C88.4403 49.6007 88.1257 49.5435 87.8587 49.4291C87.5918 49.3084 87.3725 49.1399 87.2009 48.9238C87.0293 48.7013 86.9021 48.4376 86.8195 48.1325C86.7369 47.8274 86.6956 47.4841 86.6956 47.1028C86.6956 46.2892 86.8767 45.6694 87.239 45.2436C87.6013 44.8177 88.1193 44.6048 88.7931 44.6048C89.0092 44.6048 89.2253 44.6302 89.4414 44.681C89.6575 44.7255 89.8514 44.8145 90.023 44.948C90.1946 45.0815 90.3345 45.2722 90.4425 45.5201C90.5506 45.7616 90.6046 46.0826 90.6046 46.483C90.6046 46.6928 90.5855 46.9248 90.5474 47.179H87.4869C87.4869 47.4587 87.5155 47.7066 87.5727 47.9227C87.6299 48.1388 87.7189 48.3231 87.8397 48.4757C87.9604 48.6219 88.1162 48.7363 88.3069 48.8189C88.5039 48.8952 88.7422 48.9333 89.0219 48.9333C89.238 48.9333 89.4541 48.8952 89.6703 48.8189C89.8864 48.7427 90.0484 48.6537 90.1565 48.552L90.4425 49.105ZM88.8026 45.2722C88.4276 45.2722 88.1257 45.3707 87.8969 45.5677C87.6744 45.7648 87.5409 46.1017 87.4964 46.5784H89.8609C89.8609 46.0953 89.7688 45.7584 89.5844 45.5677C89.4001 45.3707 89.1395 45.2722 88.8026 45.2722ZM91.8041 44.7192H92.3285L92.4715 45.2912H92.5097C92.6559 45.0688 92.8434 44.9003 93.0722 44.7859C93.3074 44.6652 93.5743 44.6048 93.8731 44.6048C94.5087 44.6048 94.9822 44.7923 95.2937 45.1673C95.6051 45.5423 95.7609 46.1557 95.7609 47.0074C95.7609 47.4079 95.7068 47.7702 95.5988 48.0943C95.4971 48.4121 95.3509 48.6823 95.1602 48.9047C94.9695 49.1272 94.7375 49.2988 94.4642 49.4196C94.1972 49.5404 93.8985 49.6007 93.568 49.6007C93.3328 49.6007 93.1453 49.5848 93.0055 49.5531C92.872 49.5276 92.7258 49.48 92.5669 49.4101V51.3932H91.8041V44.7192ZM93.7301 45.2722C93.4059 45.2722 93.1485 45.358 92.9578 45.5296C92.7735 45.6949 92.6432 45.9491 92.5669 46.2923V48.6568C92.6813 48.7458 92.8116 48.8158 92.9578 48.8666C93.104 48.9111 93.2978 48.9333 93.5394 48.9333C93.978 48.9333 94.3244 48.7713 94.5786 48.4471C94.8392 48.1166 94.9695 47.6335 94.9695 46.9979C94.9695 46.7373 94.9473 46.5021 94.9028 46.2923C94.8583 46.0762 94.7852 45.8951 94.6835 45.7489C94.5882 45.5963 94.461 45.4788 94.3021 45.3961C94.1496 45.3135 93.9589 45.2722 93.7301 45.2722ZM100.906 47.8083L101.173 48.7236H101.22L101.43 47.7988L102.355 44.7192H103.127L101.716 49.0001C101.608 49.3115 101.5 49.6135 101.392 49.9058C101.29 50.1982 101.176 50.4588 101.049 50.6876C100.922 50.9165 100.779 51.0976 100.62 51.2311C100.461 51.3709 100.276 51.4409 100.067 51.4409C99.8379 51.4409 99.6504 51.4091 99.5042 51.3455L99.6377 50.6876C99.7203 50.7194 99.7998 50.7353 99.876 50.7353C100.054 50.7353 100.226 50.64 100.391 50.4493C100.556 50.265 100.693 49.944 100.801 49.4863L98.8845 44.7192H99.7616L100.906 47.8083ZM107.141 49.1717C106.95 49.3115 106.724 49.4164 106.464 49.4863C106.203 49.5626 105.93 49.6007 105.644 49.6007C105.275 49.6007 104.964 49.5435 104.71 49.4291C104.455 49.3084 104.246 49.1399 104.08 48.9238C103.921 48.7013 103.804 48.4376 103.728 48.1325C103.658 47.821 103.623 47.4778 103.623 47.1028C103.623 46.2955 103.801 45.679 104.157 45.2531C104.512 44.8209 105.024 44.6048 105.692 44.6048C105.997 44.6048 106.254 44.6302 106.464 44.681C106.68 44.7255 106.874 44.7923 107.045 44.8813L106.826 45.5391C106.68 45.4565 106.518 45.3929 106.34 45.3484C106.162 45.2976 105.971 45.2722 105.768 45.2722C104.865 45.2722 104.414 45.8824 104.414 47.1028C104.414 47.3443 104.436 47.5763 104.481 47.7988C104.532 48.0149 104.611 48.2087 104.719 48.3804C104.833 48.5456 104.98 48.6791 105.158 48.7808C105.342 48.8825 105.568 48.9333 105.835 48.9333C106.063 48.9333 106.267 48.8984 106.445 48.8285C106.629 48.7585 106.778 48.6791 106.893 48.5901L107.141 49.1717ZM111.061 45.3866H108.954V49.4863H108.191V44.7192H111.824V49.4863H111.061V45.3866ZM116.774 49.105C116.583 49.2575 116.341 49.3783 116.049 49.4673C115.763 49.5562 115.458 49.6007 115.134 49.6007C114.771 49.6007 114.457 49.5435 114.19 49.4291C113.923 49.3084 113.703 49.1399 113.532 48.9238C113.36 48.7013 113.233 48.4376 113.151 48.1325C113.068 47.8274 113.027 47.4841 113.027 47.1028C113.027 46.2892 113.208 45.6694 113.57 45.2436C113.932 44.8177 114.45 44.6048 115.124 44.6048C115.34 44.6048 115.556 44.6302 115.772 44.681C115.989 44.7255 116.182 44.8145 116.354 44.948C116.526 45.0815 116.665 45.2722 116.774 45.5201C116.882 45.7616 116.936 46.0826 116.936 46.483C116.936 46.6928 116.917 46.9248 116.878 47.179H113.818C113.818 47.4587 113.847 47.7066 113.904 47.9227C113.961 48.1388 114.05 48.3231 114.171 48.4757C114.291 48.6219 114.447 48.7363 114.638 48.8189C114.835 48.8952 115.073 48.9333 115.353 48.9333C115.569 48.9333 115.785 48.8952 116.001 48.8189C116.217 48.7427 116.379 48.6537 116.488 48.552L116.774 49.105ZM115.134 45.2722C114.759 45.2722 114.457 45.3707 114.228 45.5677C114.005 45.7648 113.872 46.1017 113.827 46.5784H116.192C116.192 46.0953 116.1 45.7584 115.915 45.5677C115.731 45.3707 115.471 45.2722 115.134 45.2722ZM118.135 49.4863V44.7192H118.898V48.8189H120.528V44.7192H121.291V48.8189H122.921V44.7192H123.684V49.4863H118.135ZM128.073 47.3793H125.918V49.4863H125.156V44.7192H125.918V46.7119H128.073V44.7192H128.836V49.4863H128.073V47.3793ZM130.037 47.1028C130.037 46.2955 130.215 45.679 130.571 45.2531C130.934 44.8209 131.452 44.6048 132.125 44.6048C132.481 44.6048 132.79 44.6652 133.05 44.7859C133.317 44.9003 133.537 45.0688 133.708 45.2912C133.88 45.5074 134.007 45.7711 134.09 46.0826C134.172 46.3877 134.213 46.7277 134.213 47.1028C134.213 47.91 134.032 48.5297 133.67 48.9619C133.314 49.3878 132.799 49.6007 132.125 49.6007C131.77 49.6007 131.458 49.5435 131.191 49.4291C130.93 49.3084 130.714 49.1399 130.543 48.9238C130.371 48.7013 130.244 48.4376 130.161 48.1325C130.079 47.821 130.037 47.4778 130.037 47.1028ZM130.829 47.1028C130.829 47.3443 130.851 47.5763 130.896 47.7988C130.946 48.0212 131.023 48.2151 131.124 48.3804C131.226 48.5456 131.36 48.6791 131.525 48.7808C131.69 48.8825 131.89 48.9333 132.125 48.9333C132.99 48.9397 133.422 48.3295 133.422 47.1028C133.422 46.8549 133.397 46.6197 133.346 46.3972C133.301 46.1748 133.228 45.9809 133.127 45.8156C133.025 45.6504 132.891 45.5201 132.726 45.4247C132.561 45.323 132.361 45.2722 132.125 45.2722C131.261 45.2658 130.829 45.876 130.829 47.1028ZM138.2 45.3866H136.179V49.4863H135.416V44.7192H138.2V45.3866ZM138.52 47.1028C138.52 46.2955 138.698 45.679 139.054 45.2531C139.416 44.8209 139.934 44.6048 140.608 44.6048C140.964 44.6048 141.272 44.6652 141.532 44.7859C141.799 44.9003 142.019 45.0688 142.19 45.2912C142.362 45.5074 142.489 45.7711 142.572 46.0826C142.654 46.3877 142.696 46.7277 142.696 47.1028C142.696 47.91 142.514 48.5297 142.152 48.9619C141.796 49.3878 141.281 49.6007 140.608 49.6007C140.252 49.6007 139.94 49.5435 139.673 49.4291C139.413 49.3084 139.197 49.1399 139.025 48.9238C138.853 48.7013 138.726 48.4376 138.644 48.1325C138.561 47.821 138.52 47.4778 138.52 47.1028ZM139.311 47.1028C139.311 47.3443 139.333 47.5763 139.378 47.7988C139.429 48.0212 139.505 48.2151 139.607 48.3804C139.708 48.5456 139.842 48.6791 140.007 48.7808C140.172 48.8825 140.372 48.9333 140.608 48.9333C141.472 48.9397 141.904 48.3295 141.904 47.1028C141.904 46.8549 141.879 46.6197 141.828 46.3972C141.783 46.1748 141.71 45.9809 141.609 45.8156C141.507 45.6504 141.374 45.5201 141.208 45.4247C141.043 45.323 140.843 45.2722 140.608 45.2722C139.743 45.2658 139.311 45.876 139.311 47.1028ZM56.5068 54.7192H57.0312L57.1742 55.2912H57.2124C57.3585 55.0688 57.5461 54.9003 57.7749 54.7859C58.0101 54.6652 58.277 54.6048 58.5758 54.6048C59.2114 54.6048 59.6849 54.7923 59.9964 55.1673C60.3078 55.5423 60.4635 56.1557 60.4635 57.0074C60.4635 57.4079 60.4095 57.7702 60.3015 58.0943C60.1998 58.4121 60.0536 58.6823 59.8629 58.9047C59.6722 59.1272 59.4402 59.2988 59.1669 59.4196C58.8999 59.5404 58.6012 59.6007 58.2707 59.6007C58.0355 59.6007 57.848 59.5848 57.7081 59.5531C57.5747 59.5276 57.4285 59.48 57.2696 59.4101V61.3932H56.5068V54.7192ZM58.4327 55.2722C58.1086 55.2722 57.8511 55.358 57.6605 55.5296C57.4761 55.6949 57.3458 55.9491 57.2696 56.2923V58.6568C57.384 58.7458 57.5143 58.8158 57.6605 58.8666C57.8067 58.9111 58.0005 58.9333 58.2421 58.9333C58.6806 58.9333 59.027 58.7713 59.2813 58.4471C59.5419 58.1166 59.6722 57.6335 59.6722 56.9979C59.6722 56.7373 59.6499 56.5021 59.6055 56.2923C59.561 56.0762 59.4879 55.8951 59.3862 55.7489C59.2908 55.5963 59.1637 55.4788 59.0048 55.3961C58.8522 55.3135 58.6616 55.2722 58.4327 55.2722ZM61.5887 55.072C61.8303 54.9258 62.1099 54.8177 62.4278 54.7478C62.7519 54.6779 63.0888 54.6429 63.4384 54.6429C63.7689 54.6429 64.0327 54.6874 64.2297 54.7764C64.4331 54.8654 64.5857 54.983 64.6874 55.1292C64.7954 55.269 64.8654 55.4247 64.8971 55.5963C64.9353 55.768 64.9543 55.9396 64.9543 56.1112C64.9543 56.4926 64.9448 56.8644 64.9257 57.2267C64.9067 57.589 64.8971 57.9322 64.8971 58.2564C64.8971 58.4916 64.9067 58.7141 64.9257 58.9238C64.9448 59.1336 64.9798 59.3274 65.0306 59.5054H64.4681L64.2679 58.838H64.2202C64.163 58.927 64.0899 59.016 64.0009 59.105C63.9183 59.1876 63.8166 59.2639 63.6958 59.3338C63.575 59.3973 63.4352 59.4514 63.2763 59.4959C63.1174 59.5404 62.9362 59.5626 62.7329 59.5626C62.5295 59.5626 62.3388 59.5308 62.1608 59.4673C61.9892 59.4037 61.8398 59.3147 61.7127 59.2003C61.5856 59.0795 61.4839 58.9365 61.4076 58.7713C61.3377 58.606 61.3027 58.4185 61.3027 58.2087C61.3027 57.9291 61.3599 57.6971 61.4743 57.5127C61.5887 57.322 61.7476 57.1727 61.951 57.0646C62.1608 56.9502 62.4087 56.8708 62.6947 56.8263C62.9871 56.7754 63.3081 56.75 63.6577 56.75C63.7467 56.75 63.8325 56.75 63.9151 56.75C64.0041 56.75 64.0931 56.7563 64.1821 56.7691C64.2011 56.5784 64.2107 56.4068 64.2107 56.2542C64.2107 55.9046 64.1407 55.6599 64.0009 55.5201C63.8611 55.3802 63.6068 55.3103 63.2382 55.3103C63.1301 55.3103 63.0125 55.3198 62.8854 55.3389C62.7646 55.3516 62.6375 55.3739 62.504 55.4057C62.3769 55.4311 62.253 55.466 62.1322 55.5105C62.0178 55.5487 61.9161 55.5932 61.8271 55.644L61.5887 55.072ZM62.9426 58.8952C63.1206 58.8952 63.2795 58.873 63.4193 58.8285C63.5592 58.7776 63.6799 58.7172 63.7816 58.6473C63.8833 58.571 63.966 58.4884 64.0295 58.3994C64.0994 58.3104 64.1503 58.2246 64.1821 58.142V57.3506C64.0931 57.3443 64.0009 57.3411 63.9056 57.3411C63.8166 57.3348 63.7276 57.3316 63.6386 57.3316C63.4416 57.3316 63.2477 57.3443 63.057 57.3697C62.8727 57.3888 62.7074 57.4301 62.5612 57.4937C62.4214 57.5509 62.307 57.6335 62.218 57.7416C62.1354 57.8433 62.0941 57.9736 62.0941 58.1325C62.0941 58.3549 62.1735 58.5393 62.3324 58.6854C62.4913 58.8253 62.6947 58.8952 62.9426 58.8952ZM66.8526 57.3602V56.7405H67.52C67.6344 56.7405 67.7456 56.7214 67.8537 56.6832C67.9681 56.6451 68.0698 56.5943 68.1588 56.5307C68.2477 56.4608 68.3177 56.3813 68.3685 56.2923C68.4257 56.197 68.4543 56.0985 68.4543 55.9968C68.4543 55.7489 68.3685 55.5741 68.1969 55.4724C68.0253 55.3707 67.7678 55.3198 67.4246 55.3198C67.1767 55.3198 66.9479 55.358 66.7381 55.4343C66.5347 55.5105 66.3758 55.5836 66.2614 55.6535L66.0421 55.0624C66.2328 54.9544 66.4553 54.859 66.7095 54.7764C66.9701 54.6938 67.2784 54.6524 67.6344 54.6524C68.6895 54.6524 69.2171 55.0434 69.2171 55.8252C69.2171 56.0476 69.144 56.2669 68.9978 56.483C68.8579 56.6928 68.6545 56.8422 68.3876 56.9311V56.9693C68.7626 57.0392 69.0232 57.1727 69.1694 57.3697C69.3219 57.5668 69.3982 57.8274 69.3982 58.1515C69.3982 58.3549 69.3569 58.5424 69.2743 58.7141C69.1916 58.8857 69.0677 59.035 68.9024 59.1622C68.7372 59.2893 68.5274 59.391 68.2732 59.4673C68.0253 59.5372 67.7361 59.5721 67.4055 59.5721C67.0814 59.5721 66.8112 59.5435 66.5951 59.4863C66.3854 59.4291 66.1947 59.3592 66.0231 59.2766L66.2424 58.6473C66.3886 58.7299 66.5633 58.7935 66.7667 58.838C66.9765 58.8825 67.2021 58.9047 67.4437 58.9047C67.8314 58.9047 68.127 58.838 68.3304 58.7045C68.5338 58.571 68.6355 58.3676 68.6355 58.0943C68.6355 57.8655 68.5401 57.6875 68.3494 57.5604C68.1588 57.4269 67.8441 57.3602 67.4055 57.3602H66.8526ZM70.6034 54.7287C70.8259 54.716 71.0579 54.7001 71.2994 54.681C71.5473 54.662 71.8524 54.6524 72.2147 54.6524C72.844 54.6524 73.2952 54.751 73.5686 54.948C73.8419 55.1387 73.9785 55.4311 73.9785 55.8252C73.9785 56.0476 73.9118 56.2669 73.7783 56.483C73.6512 56.6928 73.4383 56.8485 73.1395 56.9502V56.9883C73.5145 57.0583 73.7783 57.1886 73.9309 57.3793C74.0834 57.5699 74.1597 57.8242 74.1597 58.142C74.1597 58.6378 73.9817 58.9969 73.6258 59.2194C73.2698 59.4418 72.7359 59.5531 72.024 59.5531C71.757 59.5531 71.5092 59.5435 71.2803 59.5245C71.0515 59.5118 70.8259 59.4959 70.6034 59.4768V54.7287ZM71.3661 58.8475C71.4869 58.8602 71.6045 58.8698 71.7189 58.8761C71.8397 58.8825 71.9795 58.8857 72.1384 58.8857C72.5643 58.8857 72.8789 58.8253 73.0823 58.7045C73.2921 58.5837 73.3969 58.3772 73.3969 58.0848C73.3969 57.856 73.308 57.6716 73.13 57.5318C72.9584 57.3856 72.6501 57.3125 72.2052 57.3125H71.3661V58.8475ZM72.3005 56.7309C72.4149 56.7309 72.5261 56.7119 72.6342 56.6737C72.7423 56.6356 72.8376 56.5847 72.9202 56.5212C73.0092 56.4512 73.0791 56.3718 73.13 56.2828C73.1872 56.1938 73.2158 56.0985 73.2158 55.9968C73.2158 55.7425 73.1395 55.5677 72.987 55.4724C72.8344 55.3707 72.5675 55.3198 72.1861 55.3198C71.9827 55.3198 71.8206 55.323 71.6998 55.3294C71.5854 55.3357 71.4742 55.3421 71.3661 55.3484V56.7309H72.3005ZM78.3359 56.6642L78.3645 56.0731H78.3359L77.945 56.6832L75.7998 59.4863H75.3612V54.7192H76.124V57.6271L76.0954 58.1897H76.1335L76.5053 57.5985L78.6506 54.7192H79.0987V59.4863H78.3359V56.6642ZM83.5979 55.3866H82.1105V59.4863H81.3478V55.3866H79.8604V54.7192H83.5979V55.3866ZM87.3302 56.6642L87.3588 56.0731H87.3302L86.9393 56.6832L84.7941 59.4863H84.3555V54.7192H85.1182V57.6271L85.0896 58.1897H85.1278L85.4996 57.5985L87.6448 54.7192H88.0929V59.4863H87.3302V56.6642ZM91.9343 57.5127L91.2001 57.6271L89.9416 59.4863H89.0168L90.1609 57.856L90.5423 57.5032C90.2117 57.4523 89.9289 57.3189 89.6937 57.1028C89.4649 56.8866 89.3505 56.5943 89.3505 56.2256C89.3505 55.9396 89.3982 55.6949 89.4935 55.4915C89.5952 55.2881 89.7382 55.1196 89.9225 54.9861C90.1069 54.8527 90.3262 54.7573 90.5804 54.7001C90.8347 54.6366 91.1207 54.6048 91.4385 54.6048C91.6737 54.6048 91.893 54.6207 92.0964 54.6524C92.2998 54.6842 92.5 54.7192 92.697 54.7573V59.4863H91.9343V57.5127ZM91.9343 55.3675C91.8516 55.3357 91.7595 55.3135 91.6578 55.3008C91.5561 55.2817 91.4671 55.2722 91.3908 55.2722C90.984 55.2722 90.6726 55.3453 90.4565 55.4915C90.2467 55.6377 90.1418 55.8697 90.1418 56.1875C90.1418 56.4735 90.2531 56.696 90.4755 56.8549C90.7043 57.0074 91.0031 57.0837 91.3717 57.0837C91.3781 57.0837 91.3876 57.0837 91.4004 57.0837C91.4131 57.0837 91.4385 57.0837 91.4766 57.0837C91.5148 57.0837 91.5688 57.0837 91.6387 57.0837C91.7086 57.0773 91.8071 57.071 91.9343 57.0646V55.3675Z" fill="#736D82"/>
<path d="M0.127014 5.28125H32.1306L26.9278 36.8966H0.127014V5.28125Z" fill="url(#paint0_linear_323_269)"/>
<path d="M129.216 4.84766L147.859 37.1084H110.573L129.216 4.84766Z" fill="url(#paint1_linear_323_269)"/>
<path d="M17.6894 36.8969L31.6372 5.29988H40.4392L54.4322 36.8969H45.1336L34.2101 9.67832H37.7309L26.8074 36.8969H17.6894ZM25.3178 30.758L27.6199 24.1678H43.0573L45.3593 30.758H25.3178Z" fill="black"/>
<path d="M56.1263 36.8969V12.4318H64.7026V36.8969H56.1263ZM60.4145 9.72345C58.8497 9.72345 57.5858 9.28711 56.6228 8.41444C55.6599 7.54176 55.1784 6.45843 55.1784 5.16446C55.1784 3.87049 55.6599 2.78716 56.6228 1.91449C57.5858 1.04181 58.8497 0.605469 60.4145 0.605469C61.9793 0.605469 63.2432 1.02676 64.2061 1.86935C65.1691 2.68184 65.6505 3.73507 65.6505 5.02905C65.6505 6.3832 65.1691 7.51167 64.2061 8.41444C63.2732 9.28711 62.0094 9.72345 60.4145 9.72345Z" fill="black"/>
<path d="M66.6161 30.8483V25.0254L80.7896 5.29988H90.043L76.2757 25.0254L72.0327 23.7615H96.7235V30.8483H66.6161ZM83.3173 36.8969V30.8483L83.5882 23.7615V18.3901H92.0291V36.8969H83.3173Z" fill="black"/>
<path d="M115.223 37.5288C112.725 37.5288 110.408 37.1376 108.272 36.3552C106.135 35.5427 104.285 34.3992 102.72 32.9247C101.185 31.4501 99.9814 29.7198 99.1087 27.7337C98.236 25.7175 97.7997 23.5058 97.7997 21.0984C97.7997 18.691 98.236 16.4942 99.1087 14.5081C99.9814 12.492 101.2 10.7466 102.765 9.27207C104.33 7.79754 106.18 6.66908 108.317 5.88668C110.484 5.07418 112.846 4.66794 115.404 4.66794C118.383 4.66794 121.046 5.16446 123.393 6.15751C124.78 6.74426 126.11 7.52926 127.213 8.42068L125.925 10.6037L123.223 15.2918C122.14 14.1182 121.272 13.5452 120.008 12.9734C118.774 12.3716 117.39 12.0707 115.855 12.0707C114.501 12.0707 113.267 12.2813 112.154 12.7026C111.04 13.1239 110.092 13.7408 109.31 14.5533C108.528 15.3357 107.911 16.2836 107.459 17.397C107.038 18.4803 106.827 19.7141 106.827 21.0984C106.827 22.4224 107.038 23.6412 107.459 24.7546C107.911 25.868 108.528 26.831 109.31 27.6435C110.092 28.4259 111.025 29.0428 112.109 29.4941C113.222 29.9154 114.441 30.1261 115.765 30.1261C117.089 30.1261 118.383 29.9154 119.647 29.4941C120.911 29.0428 122.19 28.2904 123.484 27.2372L128.494 33.5115C126.688 34.8054 124.597 35.7985 122.22 36.4906C119.842 37.1827 117.51 37.5288 115.223 37.5288ZM120.595 32.3379V20.4213H128.494V33.5115L120.595 32.3379Z" fill="black"/>
<defs>
<linearGradient id="paint0_linear_323_269" x1="16.1288" y1="5.28125" x2="16.1288" y2="36.8966" gradientUnits="userSpaceOnUse">
<stop stop-color="#FF008A"/>
<stop offset="1" stop-color="#FA00FF"/>
</linearGradient>
<linearGradient id="paint1_linear_323_269" x1="129.216" y1="4.84766" x2="129.216" y2="47.862" gradientUnits="userSpaceOnUse">
<stop offset="0.317708" stop-color="#06EA6F"/>
<stop offset="1" stop-color="#0386FF"/>
</linearGradient>
</defs>
</svg>
