<svg width="58" height="59" viewBox="0 0 58 59" fill="none" xmlns="http://www.w3.org/2000/svg">
<path d="M28.916 0.985529C26.0167 1.05973 23.6521 3.45932 23.6521 6.37512C23.6521 8.74401 25.2142 10.7769 27.3544 11.4967V15.8541C20.9774 16.6287 15.897 21.7049 15.1264 28.0821H10.7856C10.0695 25.9386 8.03094 24.3798 5.65733 24.3798C2.69531 24.3798 0.257812 26.8073 0.257812 29.7694C0.257812 32.7315 2.69531 35.1722 5.65733 35.1722C8.02622 35.1722 10.0619 33.6101 10.7822 31.4699H15.1262C15.9019 37.8431 20.9814 42.9226 27.3542 43.6979V48.0553C25.214 48.7756 23.652 50.808 23.652 53.1769C23.652 56.1389 26.0927 58.5665 29.0547 58.5665C32.0168 58.5665 34.4575 56.139 34.4575 53.1769C34.4575 50.8033 32.8888 48.768 30.7421 48.052V43.698C37.1209 42.9272 42.2042 37.8467 42.9798 31.47H47.3272C48.0475 33.6102 50.0799 35.1723 52.4488 35.1723C55.4108 35.1723 57.8516 32.7315 57.8516 29.7695C57.8516 26.8075 55.4108 24.3799 52.4488 24.3799C50.0752 24.3799 48.0399 25.9387 47.3239 28.0822H42.9831C42.2122 21.7006 37.1247 16.6234 30.7418 15.8542V11.5002C32.8886 10.7842 34.4573 8.74898 34.4573 6.37537C34.4573 3.41335 32.0165 0.985772 29.0545 0.985772C29.0082 0.985772 28.9614 0.984826 28.9156 0.985772L28.916 0.985529ZM29.0549 4.36027C30.186 4.36027 31.0665 5.24412 31.0665 6.37512C31.0665 7.50617 30.186 8.38671 29.0549 8.38671C27.9239 8.38671 27.0401 7.50617 27.0401 6.37512C27.0401 5.24407 27.9239 4.36027 29.0549 4.36027ZM12.5061 7.8375C11.1198 7.8375 9.73209 8.36166 8.68474 9.40902C6.59039 11.5034 6.59039 14.9541 8.68474 17.0484C10.7791 19.1428 14.2298 19.1428 16.3242 17.0484C18.4185 14.9541 18.4185 11.5034 16.3242 9.40902C15.2768 8.36164 13.8923 7.8375 12.5061 7.8375ZM45.4694 7.84459C44.129 7.87862 42.7981 8.40515 41.7837 9.4195C39.6894 11.5138 39.6795 14.9546 41.7733 17.049C43.8677 19.1433 47.3184 19.1433 49.4128 17.049C51.5071 14.9546 51.5071 11.5039 49.4128 9.40957C48.3328 8.3291 46.8964 7.80829 45.469 7.84411L45.4694 7.84459ZM12.5061 11.206C13.018 11.206 13.5289 11.4083 13.9288 11.8082C14.7285 12.6079 14.7285 13.8538 13.9288 14.6536C13.1291 15.4534 11.8832 15.4533 11.0834 14.6536C10.2836 13.8538 10.2837 12.608 11.0834 11.8082C11.4833 11.4083 11.9942 11.206 12.5061 11.206ZM45.5021 11.2131C46.0433 11.1843 46.5925 11.3837 47.0174 11.8087C47.8171 12.6084 47.8171 13.8542 47.0174 14.654C46.2176 15.4538 44.9684 15.4538 44.1687 14.654C43.369 13.8543 43.3789 12.615 44.1791 11.8153C44.5539 11.4405 45.0252 11.2387 45.5026 11.2132L45.5021 11.2131ZM29.0549 19.1404C34.9508 19.1404 39.6952 23.8749 39.6952 29.7706C39.6952 32.0384 38.9924 34.1355 37.7928 35.8583C36.9425 34.0386 35.5325 32.5303 33.7862 31.5472C34.748 30.4507 35.3313 29.0182 35.3313 27.4579C35.3313 24.0241 32.4945 21.218 29.055 21.218C25.6156 21.218 22.7788 24.0241 22.7788 27.4579C22.7788 29.0182 23.362 30.4506 24.3239 31.5472C22.577 32.5303 21.1676 34.0381 20.3173 35.8583C19.1168 34.135 18.4149 32.0389 18.4149 29.7706C18.4149 23.8748 23.1593 19.1404 29.0552 19.1404H29.0549ZM29.0549 24.6061C30.6789 24.6061 31.9432 25.8709 31.9432 27.458C31.9432 29.0451 30.6789 30.3099 29.0549 30.3099C27.4309 30.3099 26.1666 29.0451 26.1666 27.458C26.1666 25.8709 27.4309 24.6061 29.0549 24.6061ZM5.65641 27.7686C6.78746 27.7686 7.67126 28.6392 7.67126 29.7703C7.67126 30.9013 6.78741 31.7851 5.65641 31.7851C4.52541 31.7851 3.64482 30.9013 3.64482 29.7703C3.64482 28.6393 4.52536 27.7686 5.65641 27.7686ZM52.4486 27.7686C53.5796 27.7686 54.4634 28.6392 54.4634 29.7703C54.4634 30.9013 53.5796 31.7851 52.4486 31.7851C51.3176 31.7851 50.437 30.9013 50.437 29.7703C50.437 28.6393 51.3175 27.7686 52.4486 27.7686ZM28.8988 33.6975C28.9508 33.6961 29.0023 33.6975 29.0543 33.6975C32.0713 33.6975 34.5309 35.7421 35.1486 38.5081C33.4244 39.7105 31.3249 40.4106 29.0543 40.4106C26.7838 40.4106 24.6838 39.7106 22.9601 38.5081C23.5669 35.7899 25.9533 33.7665 28.8988 33.6975ZM12.5085 40.9299C11.1245 40.9318 9.74117 41.4607 8.69381 42.508C6.59946 44.6024 6.58954 48.0432 8.68341 50.1376C10.7778 52.2319 14.2285 52.2319 16.3228 50.1376C18.4172 48.0432 18.4172 44.5925 16.3228 42.4981C15.2755 41.4507 13.892 40.9276 12.5081 40.9299H12.5085ZM45.4719 40.937C44.129 40.9682 42.7972 41.4942 41.7829 42.5085C39.6885 44.6028 39.6885 48.0536 41.7829 50.1479C43.8772 52.2423 47.3181 52.2323 49.4124 50.1375C51.5067 48.0432 51.5167 44.6024 49.4228 42.508C48.3428 41.4275 46.9017 40.902 45.4725 40.9355L45.4719 40.937ZM12.5085 44.2984C13.018 44.2965 13.528 44.4941 13.9278 44.8939C14.7275 45.6937 14.7275 46.9429 13.9278 47.7426C13.1281 48.5423 11.8822 48.5423 11.0824 47.7426C10.2826 46.9429 10.2893 45.7035 11.089 44.9039C11.4889 44.504 11.9989 44.3008 12.5083 44.2984H12.5085ZM45.5045 44.3055C46.0481 44.2785 46.5982 44.4794 47.0232 44.9043C47.8229 45.7041 47.8163 46.9434 47.0166 47.7431C46.2168 48.5428 44.9775 48.5494 44.1778 47.7501C43.3781 46.9504 43.3781 45.7046 44.1778 44.9048C44.5526 44.5299 45.0253 44.3296 45.5046 44.3059L45.5045 44.3055ZM29.0549 51.1664C30.186 51.1664 31.0665 52.047 31.0665 53.178C31.0665 54.309 30.186 55.1797 29.0549 55.1797C27.9239 55.1797 27.0401 54.309 27.0401 53.178C27.0401 52.047 27.9239 51.1664 29.0549 51.1664Z" fill="#0386FF"/>
</svg>
