<svg width="61" height="60" viewBox="0 0 61 60" fill="none" xmlns="http://www.w3.org/2000/svg">
<path fill-rule="evenodd" clip-rule="evenodd" d="M59.166 3.71773C57.9878 2.99102 56.7451 3.58338 55.7421 4.32994C55.3355 4.63273 54.9884 5.01441 54.6296 5.37777C53.7009 6.32534 52.821 7.32479 51.8495 8.22762C49.5125 10.4026 46.8393 12.1111 43.8643 13.277C38.2281 15.4866 32.1448 15.9925 26.2519 17.1665C23.8879 17.6372 21.5725 18.2906 19.4036 19.3863C18.996 19.5929 18.766 19.7486 19.2942 20.0697C22.855 20.9074 26.4397 21.5853 30.1114 21.6931C30.9521 21.7181 31.5562 22.0764 31.7455 22.9939C32.1959 25.1782 32.3465 27.4911 32.3765 29.717C32.3979 31.1907 32.1913 34.719 32.1913 34.719C32.375 34.6758 32.6529 34.5791 32.9989 34.5033C34.8986 34.0895 37.7811 35.0977 39.0024 36.6238C40.2508 38.1866 40.6125 40.5571 39.8441 42.4135C39.7698 42.5917 39.3042 43.183 39.4838 43.3357C39.8258 43.6247 40.8651 42.7423 41.1668 42.555C42.062 41.9932 42.9576 41.4446 43.7861 40.785C45.1342 39.7102 46.5148 38.8757 48.1845 40.6863C47.9922 39.5845 47.7118 26.0859 47.784 24.12C47.8309 22.8885 47.8125 22.4992 48.27 21.3236C48.6991 20.2218 49.5677 19.3251 50.4389 18.5572C51.5229 17.6015 52.6064 16.6463 53.6831 15.6839C55.648 13.9302 57.3462 11.9908 58.8155 9.80353C59.475 8.8239 60.2389 7.69926 60.3447 6.48858C60.4175 5.63923 59.9431 4.19611 59.166 3.71773ZM41.706 43.3603C40.6912 44.1196 39.4831 44.7741 38.2749 45.1603C33.7004 46.6178 28.874 44.858 24.7207 42.9541C24.2174 42.7231 23.7009 42.6142 23.2566 42.8585C22.7665 43.1312 22.934 43.7154 22.9869 44.1714C23.0673 44.8549 23.3828 45.4523 23.8714 45.9393C25.6159 47.6711 27.5945 49.0574 29.8632 50.0212C30.9136 50.4675 30.5772 52.3311 30.5848 53.21C30.598 55.1938 30.6433 57.1825 30.7029 59.1708C31.7929 59.265 38.7206 59.0904 40.9914 58.6665C41.0067 56.0823 41.1634 52.3587 41.1125 49.776C41.0871 48.5007 41.4474 48.5674 42.311 48.0045C43.4967 47.2304 44.3771 46.6232 45.1309 45.9083C46.3563 44.747 47.2239 43.519 47.0861 41.7343C46.8668 38.8762 42.5167 42.7513 41.706 43.3603ZM17.6304 17.0596C20.7031 17.0596 23.1942 14.568 23.1942 11.4953C23.1942 8.4225 20.7037 5.93091 17.6304 5.93091C14.5561 5.93091 12.065 8.4225 12.065 11.4953C12.065 14.568 14.5555 17.0596 17.6304 17.0596ZM36.2642 13.2988C39.5858 13.2988 42.2759 10.6073 42.2759 7.28672C42.2759 3.96669 39.1095 0.922852 35.7895 0.922852C32.4694 0.922852 29.8674 3.8837 30.2536 7.28672C30.6257 10.5864 32.9456 13.2988 36.2642 13.2988ZM34.5676 44.2323C36.8429 44.0608 38.6983 42.3433 38.6983 40.014C38.6983 37.6847 36.8505 35.7957 34.5676 35.7957C32.2893 35.7957 30.3493 36.7702 30.1626 39.5983C30.0094 41.923 31.6822 44.4517 34.5676 44.2323ZM22.2231 42.5397C22.3269 42.1245 22.7783 41.5397 23.588 41.6349C21.0628 37.7901 20.0746 29.0477 21.0522 28.4415C22.0354 27.8308 27.7004 28.5743 30.2155 26.8889C31.1173 26.2843 31.358 24.4757 30.8837 23.641C30.3742 22.7438 29.389 22.699 28.4562 22.6278C26.9977 22.5153 25.5559 22.2878 24.1198 22.0191C19.7163 21.1962 15.4171 20.0019 11.7682 17.2874C8.82676 15.0986 7.20179 12.0391 5.84103 8.77249C5.05681 6.89009 4.32862 4.98163 3.33016 3.19694C2.95662 2.52875 2.35307 2.27633 1.605 2.36234C0.866073 2.44784 0.484903 2.92825 0.241633 3.58168C-0.0163846 4.27328 -0.0123064 4.9939 0.0314543 5.70484C0.122548 7.24421 0.329675 8.77708 0.657913 10.2844C1.22636 12.9012 2.147 15.4264 3.36225 17.8121C4.30779 19.6691 5.71639 21.3072 6.36583 23.319C9.8874 34.21 8.64415 46.6285 8.26765 50.0092C8.11141 51.4026 16.5073 55.0906 18.2086 55.8697C19.296 56.5076 22.2162 56.8052 22.2162 56.8052C24.1378 55.6087 27.5393 52.7726 28.6925 50.7762C27.2259 49.6892 25.6452 48.7868 24.2102 47.6276C21.8459 45.7146 22.0323 43.3107 22.2231 42.5397Z" fill="#06EADC"/>
</svg>
