<svg width="49" height="49" viewBox="0 0 49 49" fill="none" xmlns="http://www.w3.org/2000/svg">
<path d="M45.7245 5.875H36.1443C35.5092 5.875 34.8997 6.12734 34.4507 6.5764C34.0016 7.02547 33.7493 7.63493 33.7493 8.27004V15.4552H26.5641C25.929 15.4552 25.3196 15.7075 24.8705 16.1566C24.4214 16.6056 24.1691 17.2151 24.1691 17.8502V25.0353H16.984C16.3489 25.0353 15.7394 25.2877 15.2904 25.7367C14.8413 26.1858 14.5889 26.7952 14.5889 27.4304V34.6155H7.40383C6.76872 34.6155 6.15926 34.8678 5.71019 35.3169C5.26113 35.7659 5.00879 36.3754 5.00879 37.0105V46.5907C5.00879 47.2258 5.26113 47.8353 5.71019 48.2843C6.15926 48.7334 6.76872 48.9857 7.40383 48.9857H45.7245C46.3596 48.9857 46.969 48.7334 47.4181 48.2843C47.8672 47.8353 48.1195 47.2258 48.1195 46.5907V8.27004C48.1195 7.63493 47.8672 7.02547 47.4181 6.5764C46.969 6.12734 46.3596 5.875 45.7245 5.875Z" fill="#FA00FF"/>
<path d="M4.88802 21.4026L16.4642 9.79931V11.3912C16.4642 12.3556 16.9786 13.2464 17.8134 13.7282C18.6482 14.2101 19.677 14.2101 20.5118 13.7282C21.3467 13.2464 21.8611 12.3555 21.8611 11.3912V3.29591C21.855 2.97245 21.7912 2.65262 21.6719 2.35146C21.681 2.27074 21.681 2.18943 21.6719 2.10872C21.5876 1.8949 21.4593 1.70215 21.2943 1.54192L21.1322 1.3263C20.9112 1.13355 20.6666 0.970316 20.404 0.84022C20.0221 0.642047 19.5909 0.557734 19.1626 0.597486H11.0673C10.103 0.597486 9.21214 1.11187 8.73028 1.94671C8.24841 2.78154 8.24841 3.81033 8.73028 4.64515C9.21214 5.47997 10.103 5.99437 11.0673 5.99437H12.6592L1.0559 17.5705C0.545127 18.0771 0.257812 18.7668 0.257812 19.4866C0.257812 20.2064 0.545127 20.896 1.0559 21.4026C1.56247 21.9134 2.25213 22.2007 2.97195 22.2007C3.69177 22.2007 4.38142 21.9134 4.88802 21.4026Z" fill="#FA00FF"/>
</svg>
