<svg width="55" height="56" viewBox="0 0 55 56" fill="none" xmlns="http://www.w3.org/2000/svg">
<path d="M21.0469 10.3672H21.0389V10.3862H21.0469V10.3672Z" fill="#FF9900"/>
<path d="M12.3389 7.6123H7.35775V12.5934H12.3389V7.6123Z" fill="#FF9900"/>
<path d="M5.23926 14.5205H0.258145V19.5016H5.23926V14.5205Z" fill="#FF9900"/>
<path d="M10.2207 40.5859H5.23959V45.567H10.2207V40.5859Z" fill="#FF9900"/>
<path d="M13.7451 30.9043H8.76401V35.8854H13.7451V30.9043Z" fill="#FF9900"/>
<path d="M18.5264 37.4658H13.5453V42.4469H18.5264V37.4658Z" fill="#FF9900"/>
<path d="M19.8418 5.12109H14.8607V10.1022H19.8418V5.12109Z" fill="#FF9900"/>
<path d="M12.7109 19.502H7.72983V24.4831H12.7109V19.502Z" fill="#FF9900"/>
<path d="M19.2627 24.2754H14.2816V29.2565H19.2627V24.2754Z" fill="#FF9900"/>
<path d="M19.5932 35.3001V30.3164L24.5791 30.3203V35.3001L19.5932 35.3001Z" fill="#FF9900"/>
<path d="M13.5814 54.2888C14.4699 51.3402 15.0957 48.3186 15.4516 45.2592H21.0577V40.2807H26.0374V35.2995H31.0185V30.3189H26.0374V25.2931H21.0524V20.335H16.0731V15.353L21.0469 15.3478V10.3862L26.041 10.3832V5.4012L21.0542 5.38905V1.85887C23.4352 1.08851 25.909 0.641929 28.4093 0.531711C40.6243 -0.100205 51.085 7.74539 50.7483 18.5653C50.7041 19.9936 50.4541 22.0969 50.4601 23.4709C50.4714 28.3522 54.6947 30.3573 54.7759 31.9111C54.9096 34.4622 51.9127 33.6653 50.856 37.2742C49.5145 41.8555 51.4393 47.0802 45.1939 46.7573C42.7027 46.657 38.6543 45.6905 36.9191 47.3037C35.8128 48.3323 34.9217 52.8217 34.5742 54.8086L34.5746 54.8082C34.4778 55.3598 33.9983 55.7613 33.4383 55.76H14.6903C14.3279 55.7613 13.9859 55.5911 13.768 55.3016C13.5497 55.0122 13.4803 54.6372 13.581 54.2887L13.5814 54.2888ZM35.6738 15.3683H40.6549V10.3859H35.6738V15.3683ZM30.6961 12.2904H25.7155V17.2715H30.6966L30.6961 12.2904ZM34.4234 23.9965V19.0149H29.4423V23.9965H34.4234ZM28.1455 46.4377H33.1261V41.4557H28.1455V46.4377Z" fill="#FF9900"/>
</svg>
