<svg width="34" height="34" viewBox="0 0 34 34" fill="none" xmlns="http://www.w3.org/2000/svg">
<path d="M17.3174 32.4497C25.8778 32.4497 32.8174 25.5101 32.8174 16.9497C32.8174 8.38929 25.8778 1.44971 17.3174 1.44971C8.75697 1.44971 1.81738 8.38929 1.81738 16.9497C1.81738 25.5101 8.75697 32.4497 17.3174 32.4497Z" fill="url(#paint0_linear_115_937)"/>
<path fill-rule="evenodd" clip-rule="evenodd" d="M8.83394 16.7861C13.3525 14.8175 16.3656 13.5196 17.8732 12.8925C22.1777 11.1022 23.0721 10.7911 23.6551 10.7809C23.7834 10.7786 24.07 10.8104 24.2558 10.9611C24.4126 11.0883 24.4557 11.2602 24.4764 11.3808C24.497 11.5015 24.5227 11.7763 24.5023 11.991C24.269 14.4419 23.2597 20.3897 22.7462 23.1347C22.5289 24.2963 22.1011 24.6857 21.6869 24.7238C20.7868 24.8067 20.1033 24.129 19.2315 23.5575C17.8673 22.6633 17.0966 22.1066 15.7724 21.234C14.2421 20.2255 15.2341 19.6712 16.1063 18.7654C16.3345 18.5283 20.3004 14.921 20.3772 14.5938C20.3868 14.5528 20.3957 14.4003 20.3051 14.3197C20.2144 14.2392 20.0807 14.2667 19.9841 14.2886C19.8473 14.3197 17.668 15.7601 13.4462 18.61C12.8276 19.0348 12.2673 19.2417 11.7652 19.2309C11.2118 19.2189 10.1472 18.918 9.35583 18.6607C8.38514 18.3452 7.61366 18.1784 7.68084 17.6425C7.71583 17.3634 8.10019 17.0779 8.83394 16.7861Z" fill="white"/>
<defs>
<linearGradient id="paint0_linear_115_937" x1="17.3174" y1="1.44971" x2="17.3174" y2="32.2198" gradientUnits="userSpaceOnUse">
<stop stop-color="#2AABEE"/>
<stop offset="1" stop-color="#229ED9"/>
</linearGradient>
</defs>
</svg>
